<?xml version="1.0" encoding="utf-8"?>
<!-- Generator: Adobe Illustrator 24.1.1, SVG Export Plug-In . SVG Version: 6.00 Build 0)  -->
<svg version="1.1" xmlns="http://www.w3.org/2000/svg" xmlns:xlink="http://www.w3.org/1999/xlink" x="0px" y="0px"
	 viewBox="0 0 450 450" style="enable-background:new 0 0 450 450;" xml:space="preserve">
<style type="text/css">
	.st0{fill:#FFFFFF;}
	.st1{fill:#6B6969;}
	.st2{fill:#A8A8A8;}
	.st3{fill:url(#XMLID_2_);}
	.st4{fill:url(#SVGID_1_);}
	.st5{fill:url(#SVGID_2_);}
</style>
<g id="Capa_1">
	<g id="Capa_2_copia">
		<g>
			<g>
				<path class="st0" d="M271.48,261.76c0.3-0.15,0.6-0.3,0.9-0.45c13.98-7.54,25.21-17.84,33.67-30.91
					c10.61-11.59,17.77-25.19,21.48-40.81c5-15.95,5.72-31.9,2.14-47.85c-0.72-15.97-5.47-30.84-14.24-44.62
					c-6.25-8.1-12.51-16.19-18.76-24.29c-14.97-14.87-32.62-25.16-52.95-30.86c-10.63-1.43-21.27-2.86-31.9-4.29
					c-21.66,0.07-41.85,5.53-60.57,16.38c-0.3,0.15-0.6,0.3-0.9,0.45c-13.98,7.54-25.21,17.84-33.67,30.91
					c-10.61,11.59-17.77,25.19-21.48,40.81c-5,15.95-5.72,31.9-2.14,47.85c0.72,15.97,5.47,30.84,14.24,44.62
					c6.25,8.1,12.51,16.19,18.76,24.29c14.97,14.87,32.62,25.16,52.95,30.86c10.63,1.43,21.27,2.86,31.9,4.29
					C232.58,278.08,252.77,272.62,271.48,261.76L271.48,261.76z"/>
			</g>
		</g>
		<g>
			<g>
				<path class="st0" d="M236.21,276.83c16.52,0.62,31.93-2.82,46.23-10.33c14.88-4.84,27.75-13.11,38.62-24.81
					c11.7-10.87,19.97-23.74,24.81-38.62c7.51-14.3,10.96-29.71,10.34-46.23c-1.43-10.63-2.86-21.27-4.29-31.9
					c-5.7-20.33-15.99-37.98-30.86-52.95c-8.1-6.25-16.19-12.51-24.29-18.76c-18.72-10.86-38.91-16.32-60.57-16.38
					c-16.52-0.62-31.93,2.82-46.23,10.34c-14.88,4.84-27.75,13.11-38.62,24.81c-11.7,10.87-19.97,23.74-24.81,38.62
					c-7.51,14.3-10.96,29.71-10.34,46.23c1.43,10.63,2.86,21.27,4.29,31.9c5.7,20.33,15.99,37.98,30.86,52.95
					c8.1,6.25,16.19,12.51,24.29,18.76C194.36,271.3,214.54,276.77,236.21,276.83L236.21,276.83z"/>
			</g>
		</g>
		<g>
			<g>
				<path class="st0" d="M266.88,290.37c16.52,0.62,31.93-2.82,46.23-10.34c14.88-4.84,27.75-13.11,38.62-24.81
					c11.7-10.87,19.97-23.74,24.81-38.62c7.51-14.3,10.96-29.71,10.34-46.23c-1.43-10.63-2.86-21.27-4.29-31.9
					c-5.7-20.33-15.99-37.98-30.86-52.95c-8.1-6.25-16.19-12.51-24.29-18.76c-18.72-10.86-38.91-16.32-60.57-16.38
					c-16.52-0.62-31.93,2.82-46.23,10.34c-14.88,4.84-27.75,13.11-38.62,24.81c-11.7,10.87-19.97,23.74-24.81,38.62
					c-7.51,14.3-10.96,29.71-10.34,46.23c1.43,10.63,2.86,21.27,4.29,31.9c5.7,20.33,15.99,37.98,30.86,52.95
					c8.1,6.25,16.19,12.51,24.29,18.76C225.04,284.84,245.22,290.3,266.88,290.37L266.88,290.37z"/>
			</g>
		</g>
		<g>
			<g>
				<path class="st0" d="M288.09,318.34c16.52,0.62,31.93-2.82,46.23-10.34c14.88-4.84,27.75-13.11,38.62-24.81
					c11.7-10.87,19.97-23.74,24.81-38.62c7.51-14.3,10.96-29.71,10.34-46.23c-1.43-10.63-2.86-21.27-4.29-31.9
					c-5.7-20.33-15.99-37.98-30.86-52.95c-8.1-6.25-16.19-12.51-24.29-18.76c-18.72-10.86-38.91-16.32-60.57-16.38
					c-16.52-0.62-31.93,2.82-46.23,10.34c-14.88,4.84-27.75,13.11-38.62,24.81c-11.7,10.87-19.97,23.74-24.81,38.62
					c-7.51,14.3-10.96,29.71-10.34,46.23c1.43,10.63,2.86,21.27,4.29,31.9c5.7,20.33,15.99,37.98,30.86,52.95
					c8.1,6.25,16.19,12.51,24.29,18.76C246.24,312.81,266.43,318.27,288.09,318.34L288.09,318.34z"/>
			</g>
		</g>
		<g>
			<g>
				<path class="st0" d="M289.44,353.98c16.52,0.62,31.93-2.82,46.23-10.34c14.88-4.84,27.75-13.11,38.62-24.81
					c11.7-10.87,19.97-23.74,24.81-38.62c7.51-14.3,10.96-29.71,10.34-46.23c-1.43-10.63-2.86-21.27-4.29-31.9
					c-5.7-20.33-15.99-37.98-30.86-52.95c-8.1-6.25-16.19-12.51-24.29-18.76c-18.72-10.86-38.91-16.32-60.57-16.38
					c-16.52-0.62-31.93,2.82-46.23,10.34c-14.88,4.84-27.75,13.11-38.62,24.81c-11.7,10.87-19.97,23.74-24.81,38.62
					c-7.51,14.3-10.96,29.71-10.34,46.23c1.43,10.63,2.86,21.27,4.29,31.9c5.7,20.33,15.99,37.98,30.86,52.95
					c8.1,6.25,16.19,12.51,24.29,18.76C247.59,348.45,267.78,353.92,289.44,353.98L289.44,353.98z"/>
			</g>
		</g>
		<g>
			<g>
				<path class="st0" d="M285.38,372.48c16.52,0.62,31.93-2.82,46.23-10.34c14.88-4.84,27.75-13.11,38.62-24.81
					c11.7-10.87,19.97-23.74,24.81-38.62c7.51-14.3,10.96-29.71,10.34-46.23c-1.43-10.63-2.86-21.27-4.29-31.9
					c-5.7-20.33-15.99-37.98-30.86-52.95c-8.1-6.25-16.19-12.51-24.29-18.76c-18.72-10.86-38.91-16.32-60.57-16.38
					c-16.52-0.62-31.93,2.82-46.23,10.34c-14.88,4.84-27.75,13.11-38.62,24.81c-11.7,10.87-19.97,23.74-24.81,38.62
					c-7.51,14.3-10.96,29.71-10.34,46.23c1.43,10.63,2.86,21.27,4.29,31.9c5.7,20.33,15.99,37.98,30.86,52.95
					c8.1,6.25,16.19,12.51,24.29,18.76C243.53,366.95,263.72,372.41,285.38,372.48L285.38,372.48z"/>
			</g>
		</g>
		<g>
			<g>
				<path class="st0" d="M275.91,397.75c16.52,0.62,31.93-2.82,46.23-10.33c14.88-4.84,27.75-13.11,38.62-24.81
					c11.7-10.87,19.97-23.74,24.81-38.62c7.51-14.3,10.96-29.71,10.34-46.23c-1.43-10.63-2.86-21.27-4.29-31.9
					c-5.7-20.33-15.99-37.98-30.86-52.95c-8.1-6.25-16.19-12.51-24.29-18.76c-18.72-10.86-38.91-16.32-60.57-16.38
					c-16.52-0.62-31.93,2.82-46.23,10.34c-14.88,4.84-27.75,13.11-38.62,24.81c-11.7,10.87-19.97,23.74-24.81,38.62
					c-7.51,14.3-10.96,29.71-10.34,46.23c1.43,10.63,2.86,21.27,4.29,31.9c5.7,20.33,15.99,37.98,30.86,52.95
					c8.1,6.25,16.19,12.51,24.29,18.76C234.06,392.22,254.25,397.68,275.91,397.75L275.91,397.75z"/>
			</g>
		</g>
		<g>
			<g>
				<path class="st0" d="M242.07,411.73c16.52,0.62,31.93-2.82,46.23-10.34c14.88-4.84,27.75-13.11,38.62-24.81
					c11.7-10.87,19.97-23.74,24.81-38.62c7.51-14.3,10.96-29.71,10.34-46.23c-1.43-10.63-2.86-21.27-4.29-31.9
					c-5.7-20.33-15.99-37.98-30.86-52.95c-8.1-6.25-16.19-12.51-24.29-18.76c-18.72-10.86-38.91-16.32-60.57-16.38
					c-16.52-0.62-31.93,2.82-46.23,10.34c-14.88,4.84-27.75,13.11-38.62,24.81c-11.7,10.87-19.97,23.74-24.81,38.62
					c-7.51,14.3-10.96,29.71-10.34,46.23c1.43,10.63,2.86,21.27,4.29,31.9c5.7,20.33,15.99,37.98,30.86,52.95
					c8.1,6.25,16.19,12.51,24.29,18.76C200.22,406.2,220.41,411.67,242.07,411.73L242.07,411.73z"/>
			</g>
		</g>
		<g>
			<g>
				<path class="st0" d="M215,413.54c16.52,0.62,31.93-2.82,46.23-10.33c14.88-4.84,27.75-13.11,38.62-24.81
					c11.7-10.87,19.97-23.74,24.81-38.62c7.51-14.3,10.96-29.71,10.34-46.23c-1.43-10.63-2.86-21.27-4.29-31.9
					c-5.7-20.33-15.99-37.98-30.86-52.95c-8.1-6.25-16.19-12.51-24.29-18.76c-18.72-10.86-38.91-16.32-60.57-16.38
					c-16.52-0.62-31.93,2.82-46.23,10.34c-14.88,4.84-27.75,13.11-38.62,24.81c-11.7,10.87-19.97,23.74-24.81,38.62
					c-7.51,14.3-10.96,29.71-10.34,46.23c1.43,10.63,2.86,21.27,4.29,31.9c5.7,20.33,15.99,37.98,30.86,52.95
					c8.1,6.25,16.19,12.51,24.29,18.76C173.15,408.01,193.34,413.47,215,413.54L215,413.54z"/>
			</g>
		</g>
		<g>
			<g>
				<path class="st0" d="M188.83,400c16.52,0.62,31.93-2.82,46.23-10.34c14.88-4.84,27.75-13.11,38.62-24.81
					c11.7-10.87,19.97-23.74,24.81-38.62c7.51-14.3,10.96-29.71,10.34-46.23c-1.43-10.63-2.86-21.27-4.29-31.9
					c-5.7-20.33-15.99-37.98-30.86-52.95c-8.1-6.25-16.19-12.51-24.29-18.76c-18.72-10.86-38.91-16.32-60.57-16.38
					c-16.52-0.62-31.93,2.82-46.23,10.34c-14.88,4.84-27.75,13.11-38.62,24.81c-11.7,10.87-19.97,23.74-24.81,38.62
					c-7.51,14.3-10.96,29.71-10.34,46.23c1.43,10.63,2.86,21.27,4.29,31.9c5.7,20.33,15.99,37.98,30.86,52.95
					c8.1,6.25,16.19,12.51,24.29,18.76C146.98,394.47,167.17,399.94,188.83,400L188.83,400z"/>
			</g>
		</g>
		<g>
			<g>
				<path class="st0" d="M172.14,387.37c16.52,0.62,31.93-2.82,46.23-10.33c14.88-4.84,27.75-13.11,38.62-24.81
					c11.7-10.87,19.97-23.74,24.81-38.62c7.51-14.3,10.96-29.71,10.34-46.23c-1.43-10.63-2.86-21.27-4.29-31.9
					c-5.7-20.33-15.99-37.98-30.86-52.95c-8.1-6.25-16.19-12.51-24.29-18.76c-18.72-10.86-38.91-16.32-60.57-16.38
					c-16.52-0.62-31.93,2.82-46.23,10.34c-14.88,4.84-27.75,13.11-38.62,24.81c-11.7,10.87-19.97,23.74-24.81,38.62
					c-7.51,14.3-10.96,29.71-10.34,46.23c1.43,10.63,2.86,21.27,4.29,31.9c5.7,20.33,15.99,37.98,30.86,52.95
					c8.1,6.25,16.19,12.51,24.29,18.76C130.29,381.84,150.48,387.3,172.14,387.37L172.14,387.37z"/>
			</g>
		</g>
		<g>
			<g>
				<path class="st0" d="M163.12,368.87c16.52,0.62,31.93-2.82,46.23-10.34c14.88-4.84,27.75-13.11,38.62-24.81
					c11.7-10.87,19.97-23.74,24.81-38.62c7.51-14.3,10.96-29.71,10.34-46.23c-1.43-10.63-2.86-21.27-4.29-31.9
					c-5.7-20.33-15.99-37.98-30.86-52.95c-8.1-6.25-16.19-12.51-24.29-18.76c-18.72-10.86-38.91-16.32-60.57-16.38
					c-16.52-0.62-31.93,2.82-46.23,10.34c-14.88,4.84-27.75,13.11-38.62,24.81c-11.7,10.87-19.97,23.74-24.81,38.62
					c-7.51,14.3-10.96,29.71-10.34,46.23c1.43,10.63,2.86,21.27,4.29,31.9c5.7,20.33,15.99,37.98,30.86,52.95
					c8.1,6.25,16.19,12.51,24.29,18.76C121.27,363.34,141.46,368.8,163.12,368.87L163.12,368.87z"/>
			</g>
		</g>
		<g>
			<g>
				<path class="st0" d="M158.6,348.12c16.52,0.62,31.93-2.82,46.23-10.34c14.88-4.84,27.75-13.11,38.62-24.81
					c11.7-10.87,19.97-23.74,24.81-38.62c7.51-14.3,10.96-29.71,10.33-46.23c-1.43-10.63-2.86-21.27-4.29-31.9
					c-5.7-20.33-15.99-37.98-30.86-52.95c-8.1-6.25-16.19-12.51-24.29-18.76c-18.72-10.86-38.91-16.32-60.57-16.38
					c-16.52-0.62-31.93,2.82-46.23,10.34c-14.88,4.84-27.75,13.11-38.62,24.81c-11.7,10.87-19.97,23.74-24.81,38.62
					c-7.51,14.3-10.96,29.71-10.34,46.23c1.43,10.63,2.86,21.27,4.29,31.9c5.7,20.33,15.99,37.98,30.86,52.95
					c8.1,6.25,16.19,12.51,24.29,18.76C116.75,342.59,136.94,348.05,158.6,348.12L158.6,348.12z"/>
			</g>
		</g>
		<g>
			<g>
				<path class="st0" d="M158.6,331.42c16.52,0.62,31.93-2.82,46.23-10.34c14.88-4.84,27.75-13.11,38.62-24.81
					c11.7-10.87,19.97-23.74,24.81-38.62c7.51-14.3,10.96-29.71,10.33-46.23c-1.43-10.63-2.86-21.27-4.29-31.9
					c-5.7-20.33-15.99-37.98-30.86-52.95c-8.1-6.25-16.19-12.51-24.29-18.76c-18.72-10.86-38.91-16.32-60.57-16.38
					c-16.52-0.62-31.93,2.82-46.23,10.34c-14.88,4.84-27.75,13.11-38.62,24.81c-11.7,10.87-19.97,23.74-24.81,38.62
					c-7.51,14.3-10.96,29.71-10.34,46.23c1.43,10.63,2.86,21.27,4.29,31.9c5.7,20.33,15.99,37.98,30.86,52.95
					c8.1,6.25,16.19,12.51,24.29,18.76C116.75,325.9,136.94,331.36,158.6,331.42L158.6,331.42z"/>
			</g>
		</g>
		<g>
			<g>
				<path class="st0" d="M180.26,294.88c16.52,0.62,31.93-2.82,46.23-10.34c14.88-4.84,27.75-13.11,38.62-24.81
					c11.7-10.87,19.97-23.74,24.81-38.62c7.51-14.3,10.96-29.71,10.34-46.23c-1.43-10.63-2.86-21.27-4.29-31.9
					c-5.7-20.33-15.99-37.98-30.86-52.95c-8.1-6.25-16.19-12.51-24.29-18.76c-18.72-10.86-38.91-16.32-60.57-16.38
					c-16.52-0.62-31.93,2.82-46.23,10.34c-14.88,4.84-27.75,13.11-38.62,24.81c-11.7,10.87-19.97,23.74-24.81,38.62
					c-7.51,14.3-10.96,29.71-10.34,46.23c1.43,10.63,2.86,21.27,4.29,31.9c5.7,20.33,15.99,37.98,30.86,52.95
					c8.1,6.25,16.19,12.51,24.29,18.76C138.41,289.35,158.6,294.81,180.26,294.88L180.26,294.88z"/>
			</g>
		</g>
	</g>
	<g>
		<path class="st1" d="M20.77,222.03C21.7,116.97,103.26,32.13,201.42,22.01c64.46-6.65,120.75,12.29,167.21,57.75
			c34.47,33.73,54.62,75.06,59.37,123.18c6.32,64.02-12.68,119.89-57.89,165.72c-40.69,41.25-90.7,61.04-148.89,60.54
			C112.83,428.26,18.7,337.42,20.77,222.03z M224.55,22.94C113.36,22.96,22.76,113.49,22.93,225.31
			c0.17,111.49,90.65,201.85,202.26,201.76c111.34-0.09,201.88-90.4,201.87-202.16C427.04,113.29,336.41,22.54,224.55,22.94z"/>
		<path class="st2" d="M224.55,22.94c111.87-0.4,202.49,90.35,202.51,201.98c0.01,111.77-90.52,202.07-201.87,202.16
			C113.58,427.17,23.1,336.8,22.93,225.31C22.76,113.49,113.36,22.96,224.55,22.94z M224.31,28.96
			C117.13,27.51,28.3,115.84,28.05,223.41c-0.26,108.44,85.1,196.96,195.81,197.1c109.47,0.14,195.51-87.31,196.03-195.43
			C420.42,115.63,330.66,27.86,224.31,28.96z"/>
		<path class="st1" d="M224.31,28.96c106.35-1.1,196.11,86.67,195.59,196.13c-0.52,108.12-86.56,195.57-196.03,195.43
			c-110.71-0.14-196.07-88.66-195.81-197.1C28.3,115.84,117.13,27.51,224.31,28.96z M42.51,224.74
			c-0.1,100.4,81.55,182.44,181.85,182.75c100.58,0.31,182.92-81.55,183.08-182.01C407.61,124.8,326.03,42.8,225.36,42.46
			C125,42.12,42.61,124.25,42.51,224.74z"/>
	</g>
	<g>
		<g>
			<linearGradient id="XMLID_2_" gradientUnits="userSpaceOnUse" x1="345.3501" y1="101.4266" x2="111.1953" y2="335.5814">
				<stop  offset="0.0139" style="stop-color:#48459E"/>
				<stop  offset="0.1899" style="stop-color:#83449D"/>
				<stop  offset="0.3002" style="stop-color:#A4449D"/>
				<stop  offset="0.3524" style="stop-color:#A74296"/>
				<stop  offset="0.4264" style="stop-color:#B13B84"/>
				<stop  offset="0.5136" style="stop-color:#C03165"/>
				<stop  offset="0.6036" style="stop-color:#D3243E"/>
				<stop  offset="0.8766" style="stop-color:#F59F27"/>
				<stop  offset="1" style="stop-color:#F5D926"/>
			</linearGradient>
			<path id="XMLID_6_" class="st3" d="M225.35,103.2c38.5,0,43.06,0.15,58.27,0.84c14.06,0.64,21.69,2.99,26.78,4.97
				c6.73,2.62,11.53,5.74,16.58,10.79c5.05,5.05,8.17,9.85,10.79,16.58c1.98,5.08,4.32,12.72,4.97,26.78
				c0.69,15.21,0.84,19.77,0.84,58.27c0,38.51-0.15,43.07-0.84,58.27c-0.64,14.06-2.99,21.7-4.97,26.78
				c-2.62,6.73-5.74,11.54-10.79,16.58c-5.04,5.04-9.85,8.17-16.58,10.79c-5.08,1.98-12.72,4.33-26.78,4.97
				c-15.21,0.69-19.76,0.84-58.27,0.84c-38.51,0-43.07-0.15-58.27-0.84c-14.06-0.64-21.7-2.99-26.78-4.97
				c-6.73-2.62-11.54-5.74-16.58-10.79c-5.04-5.05-8.17-9.85-10.79-16.58c-1.97-5.08-4.32-12.71-4.97-26.78
				c-0.69-15.2-0.84-19.76-0.84-58.27c0-38.5,0.15-43.06,0.84-58.27c0.64-14.06,2.99-21.69,4.97-26.78
				c2.62-6.73,5.74-11.53,10.79-16.58c5.05-5.05,9.85-8.17,16.58-10.79c5.08-1.98,12.72-4.33,26.78-4.97
				C182.28,103.35,186.85,103.2,225.35,103.2 M225.35,77.22c-39.17,0-44.07,0.17-59.46,0.87c-15.35,0.7-25.83,3.14-35,6.7
				c-9.48,3.69-17.53,8.62-25.54,16.63c-8.02,8.02-12.95,16.06-16.63,25.54c-3.57,9.17-6.01,19.65-6.7,35
				c-0.7,15.38-0.87,20.29-0.87,59.46c0,39.16,0.17,44.07,0.87,59.46c0.7,15.35,3.14,25.83,6.7,35c3.68,9.48,8.61,17.53,16.63,25.54
				c8.02,8.02,16.06,12.95,25.54,16.63c9.17,3.56,19.65,6,35,6.7c15.38,0.7,20.29,0.87,59.46,0.87c39.16,0,44.07-0.17,59.45-0.87
				c15.35-0.7,25.83-3.14,35-6.7c9.48-3.69,17.53-8.62,25.54-16.63c8.02-8.02,12.95-16.06,16.63-25.54c3.56-9.17,6-19.65,6.7-35
				c0.7-15.38,0.87-20.29,0.87-59.46c0-39.16-0.17-44.07-0.87-59.46c-0.7-15.35-3.14-25.83-6.7-35
				c-3.69-9.48-8.62-17.53-16.63-25.54c-8.02-8.02-16.06-12.95-25.54-16.63c-9.17-3.56-19.65-6-35-6.7
				C269.42,77.39,264.51,77.22,225.35,77.22"/>
			<linearGradient id="SVGID_1_" gradientUnits="userSpaceOnUse" x1="763.6675" y1="-317.3403" x2="-1248.4469" y2="1694.7742">
				<stop  offset="0.0139" style="stop-color:#48459E"/>
				<stop  offset="0.1899" style="stop-color:#83449D"/>
				<stop  offset="0.3002" style="stop-color:#A4449D"/>
				<stop  offset="0.3524" style="stop-color:#A74296"/>
				<stop  offset="0.4264" style="stop-color:#B13B84"/>
				<stop  offset="0.5136" style="stop-color:#C03165"/>
				<stop  offset="0.6036" style="stop-color:#D3243E"/>
				<stop  offset="0.8766" style="stop-color:#F59F27"/>
				<stop  offset="1" style="stop-color:#F5D926"/>
			</linearGradient>
			<path class="st4" d="M302.33,126.7c-10.21,0-18.35,8.84-17.2,19.28c0.88,7.93,7.29,14.35,15.23,15.22
				c10.44,1.15,19.27-6.99,19.27-17.2C319.63,134.44,311.88,126.7,302.33,126.7z"/>
			<linearGradient id="SVGID_2_" gradientUnits="userSpaceOnUse" x1="345.2119" y1="101.562" x2="111.0567" y2="335.7172">
				<stop  offset="0.0139" style="stop-color:#48459E"/>
				<stop  offset="0.1899" style="stop-color:#83449D"/>
				<stop  offset="0.3002" style="stop-color:#A4449D"/>
				<stop  offset="0.3524" style="stop-color:#A74296"/>
				<stop  offset="0.4264" style="stop-color:#B13B84"/>
				<stop  offset="0.5136" style="stop-color:#C03165"/>
				<stop  offset="0.6036" style="stop-color:#D3243E"/>
				<stop  offset="0.8766" style="stop-color:#F59F27"/>
				<stop  offset="1" style="stop-color:#F5D926"/>
			</linearGradient>
			<path class="st5" d="M225.34,149.39c-39.78,0-72.03,32.25-72.03,72.03c0,39.79,32.25,72.05,72.03,72.05
				c39.79,0,72.05-32.25,72.05-72.05C297.39,181.64,265.13,149.39,225.34,149.39z M225.34,269.48c-26.54,0-48.06-21.51-48.06-48.06
				c0-26.54,21.52-48.06,48.06-48.06c26.56,0,48.06,21.52,48.06,48.06C273.41,247.97,251.9,269.48,225.34,269.48z"/>
		</g>
	</g>
</g>
<g id="Capa_2">
</g>
</svg>
