<?xml version="1.0" encoding="utf-8"?>
<!-- Generator: Adobe Illustrator 24.1.1, SVG Export Plug-In . SVG Version: 6.00 Build 0)  -->
<svg version="1.0" id="Capa_1" xmlns="http://www.w3.org/2000/svg" xmlns:xlink="http://www.w3.org/1999/xlink" x="0px" y="0px"
	 viewBox="0 0 450 450" enable-background="new 0 0 450 450" xml:space="preserve">
<g>
	<path display="none" fill="#FEFEFE" d="M0.1,225c0-73.6,0-147.3-0.1-220.9C0,0.7,0.7,0,4.1,0c147.3,0.1,294.5,0.1,441.8,0
		c3.4,0,4.1,0.7,4.1,4.1c-0.1,147.3-0.1,294.5,0,441.8c0,3.4-0.7,4.1-4.1,4.1c-147.3-0.1-294.5-0.1-441.8,0c-3.4,0-4.1-0.7-4.1-4.1
		C0.1,372.3,0.1,298.6,0.1,225z"/>
	<path fill="#FD5161" d="M69.1,370c-11.8-11.7-21-25.2-29.1-39.6c-14.1-25-22.6-51.7-26-80.3C0.7,141.3,73.6,39.2,181.8,17.1
		C248.8,3.4,309.3,19,362,62.7c37.6,31.1,61,71.2,71.5,118.9c0.3,1.4,0.3,3,0.5,4.4c-1.5,4.3-4.4,7.8-7,11.4
		c-13.9,19.7-29.5,38.1-47.1,54.6c-9.1,8.5-18.2,17.1-28.2,24.4c-1.5,1.1-3.4,3.6-4.9-0.2c-0.6-2.8-0.4-5.7-0.4-8.5
		c0-45.1-0.5-90.3,0.2-135.4c0.3-15.9-13.2-29.1-28.7-28.9c-62,0.6-123.9,0.6-185.9,0c-15.5-0.1-28.8,13.1-28.6,28.5
		c0.6,62.1,0.3,124.3,0.2,186.4c0,11.5,4.8,19.8,14.6,25.4c3.9,2.2,8.1,2.7,12.5,2.7c26.3,0,52.6,0,79,0c2.6,0,5.4-0.4,7.8,1
		c1.4,3.2-1.6,3.1-3,3.7c-6.2,2.4-12.6,4.3-19,6c-26.1,7.1-52.5,12-79.6,13.5C100.2,371.5,84.6,371.9,69.1,370z"/>
	<path fill="#FC4253" d="M348.1,278c14-11.1,27.5-22.8,40-35.7c15.5-15.9,29.6-32.9,42-51.4c1.2-1.7,1.9-3.9,4-4.9
		c2.5,8.3,3.2,17,3.6,25.5c2.8,50.7-9.5,97.3-39.4,138.5c-34.2,47.2-80.1,76.9-137.9,85.9c-74.7,11.7-138.3-10.9-190.8-65.1
		c-0.2-0.2-0.3-0.6-0.5-0.8c1.8-1.8,4.2-1.2,6.2-0.9c17.7,2,35.4,0.5,53.1-1c29.9-2.5,58.7-9.3,87.1-18.8c0.9-0.3,1.8-0.8,2.7-1.2
		c2.3-2.3,5.3-1.6,8-1.6c31.3-0.1,62.5-0.1,93.8,0c11.9,0,19.6-6.2,24.7-16.3c1.6-3.2,1.9-6.7,1.9-10.2c0-11.6,0-23.3,0-34.9
		C346.5,282.6,346,280,348.1,278z"/>
	<path fill="#FEFEFE" d="M348.1,278c-0.1,14.1-0.1,28.3-0.2,42.4c-0.1,15.5-12,27.4-27.5,27.5c-31.9,0-63.9,0-95.8,0
		c-2.2,0-4.3,0.1-6.5,0.2c-29-0.1-58-0.1-86.9-0.2c-17.6,0-29-11.5-29-29.1c0-62.6,0-125.2,0-187.9c0-17.2,11.6-28.8,28.8-28.8
		c62.8,0,125.6,0,188.4,0c17,0,28.6,11.6,28.6,28.5c0,47.1,0,94.3,0,141.4C347.9,274,348,276,348.1,278z"/>
	<path fill="#ECA6AD" d="M122,74.6c0.4,4.4-1.9,7.9-4.5,11.5c-8.3,11.4-18.8,20.9-27.2,32.2c-6.3,8.5-11.9,17.5-19.8,24.8
		c-1,0.9-1.9,1.9-3,2.7c-5.5,4-8.2,3-10.6-3.5c-4.4-11.7,0.4-21.7,6-31.4c10-17.2,24.6-29.7,41.9-39.1c2.3-1.3,4.5-2.8,6.9-3.9
		C119,64.5,122.1,66.5,122,74.6z"/>
	<path fill="#ECA6AD" d="M156.1,58.4c0.4,2.4-1.4,4.2-3.6,5.4c-4.2,2.2-8.3,4.8-13.1,5.7c-2.4,0.5-4.7,1.2-6.3-1.1
		c-1.7-2.3-1.5-5.1-0.2-7.5c3.7-6.7,9.3-10.1,17-9.8C154.2,51.2,156,53.6,156.1,58.4z"/>
	<path fill="#FD5161" d="M256,334c-14.5,0.1-29,0.2-43.4,0.2c-30.5,0-60.9-0.1-91.4,0.1c-4,0-5.4-0.7-5.4-5.1
		c0.2-42.8,0.2-85.6,0-128.4c0-4.1,1.3-5,5.1-4.9c8.5,0.3,17,0.2,25.5,0c3.8-0.1,4,0.9,2.8,4.2c-17.6,47.7,10,97.7,59.7,108.3
		c44,9.4,88.8-22,95.4-66.5c2.1-14.7,0.8-28.9-4.7-42.6c-0.4-0.9-0.6-1.8-1-3.2c11.7,0,23,0,34.3,0c2.8,0,2.6,1.7,2.6,3.6
		c-0.1,13.2-0.1,26.3,0,39.5c0.1,29.8,0.2,59.6,0.2,89.4c0,1.8,0.7,3.7-0.6,5.3c-1.8-2-1.3-4.4-1.3-6.7c-0.1-11.9,0-23.9,0-36.5
		c-7.2,4.6-13.6,9.3-20.3,13.5c-15,9.6-30.7,18-46.6,26C263.3,331.7,259.6,332.7,256,334z"/>
	<path fill="#FD5161" d="M272.1,225.4c-0.5,26.9-21.7,47.2-48.8,46.6c-25.3-0.5-45.7-22.3-45.2-48.2c0.5-26.1,21.9-46.3,48.6-45.9
		C251.6,178.3,272.5,200.1,272.1,225.4z"/>
	<path fill="#FD5161" d="M294.1,185.3c-17.1-0.3-31-14.5-30.8-31.5c0.2-17.6,14.6-31.4,32.4-31c17.2,0.4,30.6,14.4,30.4,31.8
		C325.9,172,311.7,185.6,294.1,185.3z"/>
	<path fill="#FC4253" d="M256,334c2.8-2.6,6.4-3.3,9.7-4.9c16-8,31.8-16.4,46.9-26.2c7.3-4.7,14.5-9.6,22.4-14.8
		c0,15.7,0,30.7,0,45.6c-0.5,0.1-0.9,0.4-1.4,0.4C307.7,334.1,281.8,334,256,334z"/>
</g>
<g display="none">
	<path fill="#FEFEFE" d="M449.9,225c0,73.6,0,147.2,0.1,220.8c0,3.2-0.4,4.2-4,4.2c-147.2-0.1-294.5-0.1-441.7,0
		c-3.7,0-4.3-0.9-4.3-4.4C0.1,298.5,0.1,151.5,0,4.4C0,1.1,0.4,0,4.3,0C151.5,0.1,298.7,0.1,446,0c3.5,0,4,0.8,4,4.1
		C449.9,77.8,449.9,151.4,449.9,225z"/>
	<path display="inline" fill="#007FCF" d="M68.3,368.9c-14.8-15.1-26.1-32.7-35.1-51.7C-25.6,193.2,46,47,180,17.3
		C294-7.9,408.5,66,433,180.6c0.4,1.8,1.2,3.5,0.8,5.4c-0.5,2.2-1.7,3.9-2.9,5.7c-14.8,22.1-31.8,42.3-51.1,60.5
		c-29,27.2-61,50.4-96.3,69c-11.7,6.1-23.5,11.7-35.6,17c-2.2,1-4.9,3.2-6.9-0.4c-0.6-2-0.5-4-0.5-6c0-27.1,0-54.3,0-81.4
		c0-8,0.8-8.8,8.9-8.9c7.2,0,14.3-0.1,21.5,0c3.9,0,6.2-1.6,7.5-5.2c4-10.8,8.4-21.4,12.5-32.1c1.5-4.1,1.2-4.6-3.3-4.6
		c-12.7-0.1-25.3,0-38-0.1c-7.8,0-9.1-1.4-9.1-9c-0.1-8.2-0.2-16.3,0-24.5c0.4-15.4,8.4-23.3,23.7-23.5c2.8,0,5.7,0,8.5-0.1
		c2.4-0.1,3.7-1.3,3.7-3.8c0.1-11.3,0.1-22.6,0-34c0-2.6-1.4-4-4-4c-14,0-28-1.3-41.8,1.6c-21.2,4.5-38.6,25.9-39,47.6
		c-0.2,13.3,0,26.6-0.1,40c0,8.4-1.2,9.6-9.5,9.6c-6.8,0-13.7-0.1-20.5,0.1c-4.6,0.1-5.5,1.2-3.9,5.5c3.6,10.4,7.3,20.7,11.1,31.1
		c1.4,3.8,3.8,5.5,7.9,5.4c3.2-0.2,6.3-0.1,9.5,0.1c3.4,0.1,5.2,1.8,5.3,5.3c0.1,1.5,0.1,3,0.1,4.5c0,32.6,0,65.3,0,97.9
		c0,2.6,0.3,5.4-1,7.8c-1.6,1.9-4,2.3-6.2,2.9c-22.3,5.7-44.9,9.4-67.9,10.7c-14.1,0.8-28.2,1.4-42.3-0.1
		C71.9,370.3,69.9,370.2,68.3,368.9z"/>
	<path display="inline" fill="#007FFE" d="M68.3,368.9c12.6,1.1,25.2,1.5,37.8,1c28.3-1.3,56.2-5.1,83.5-12.9c2.4,1.3,2,3.7,2,5.7
		c0.2,5.5,0.2,11,0,16.4c-0.1,3.8,1.5,5.3,5.3,5.3c12.8-0.1,25.6-0.1,38.3,0c3.9,0,5.2-1.7,5.2-5.4c-0.1-11.1-0.1-22.2,0-33.3
		c0-2.3-0.7-5.1,2.1-6.7c21.6-8.2,41.9-19.1,61.8-30.9c19.3-11.4,37.5-24.5,54.6-38.9c16.4-13.7,31.8-28.6,45.6-45
		c10.1-11.9,19.4-24.3,28.1-37.3c0.3-0.4,0.8-0.6,1.2-0.9c3.9,16.8,4.8,33.9,3.8,51.1c-2.3,41.7-15.3,79.9-40.1,113.6
		c-36.9,50.2-86.5,80.1-148.4,86.7c-70.7,7.6-130.9-15.8-180-67.3C68.8,369.7,68.6,369.3,68.3,368.9z"/>
	<path display="inline" fill="#FEFEFE" d="M242.5,338.9c-0.1,14-0.2,28-0.1,41.9c0,3.6-0.7,4.9-4.6,4.8c-14.5-0.2-29-0.2-43.5,0
		c-3.8,0.1-4.8-1.2-4.7-4.9c0.2-8,0-16-0.1-24c0.1-24.3,0.2-48.6,0.2-72.9c0-12.3-0.1-24.6,0.1-37c0.1-3.5-1.1-4.9-4.5-4.4
		c-0.2,0-0.3,0-0.5,0c-5-0.1-11,1.5-14.7-0.7c-4.1-2.5-4.2-9.3-6.1-14.3c-3-7.9-5.8-15.9-8.6-23.9c-1.8-5.4-1.3-6,4.3-6
		c8.5,0,17-0.1,25.5,0.1c3.4,0.1,4.6-0.7,4.5-4.4c-0.2-13.1,0-26.3-0.1-39.5c-0.2-31.2,23.4-54.8,54.5-54.7c9.5,0,19,0.1,28.5-0.1
		c3.5-0.1,5.1,0.6,5,4.6c-0.3,12.1-0.2,24.3,0,36.5c0,3-0.8,4.2-4,4c-4.2-0.2-8.3-0.1-12.5,0c-11.2,0.2-18.5,7.1-18.8,18.4
		c-0.3,10.5,0.1,21-0.1,31.5c-0.1,3.4,1.5,3.7,4.3,3.7c14.7-0.1,29.3,0.1,44-0.1c4-0.1,4.3,1,2.9,4.5c-5,12.2-9.7,24.4-14.4,36.7
		c-1.1,3-2.6,4-5.8,3.9c-9-0.2-18,0-27-0.1c-2.5,0-4,0.2-4,3.4C242.5,277,242.5,308,242.5,338.9z"/>
	<path display="inline" fill="#A4E1FE" d="M122,74.7c1,6-3.4,10.3-6.9,14.6c-6.2,7.7-12.7,15.1-19.4,22.5
		c-6.5,7.2-11.4,15.7-17.6,23.1c-3.7,4.5-7.5,8.8-12.4,12c-3.6,2.3-5.8,1.4-7.9-2.5c-3.5-6.4-3.1-13-1.1-19.6
		c5.1-16.5,15.8-28.9,28.6-40c7-6.1,15.2-10.3,22.9-15.3c1.2-0.8,2.6-1.4,4-2C119.1,64.6,122,66.5,122,74.7z"/>
	<path display="inline" fill="#A4E1FE" d="M149.3,51.1c3.2-0.6,5.6,1.1,6.5,3.9c1,3,0.7,6.4-2.6,8.3c-4.8,2.9-9.8,5.5-15.3,6.6
		c-1.8,0.4-3.7,0.3-4.9-1.5c-1.6-2.3-1.6-5.1-0.4-7.1C136.1,55,141.3,50.7,149.3,51.1z"/>
</g>
<g display="none">
	<path fill="#FEFEFE" d="M0.1,224.5C0.1,151,0.1,77.6,0,4.1C0,0.7,0.7,0,4.1,0c147.3,0.1,294.5,0.1,441.8,0c3.4,0,4.1,0.7,4.1,4.1
		c-0.1,147.3-0.1,294.5,0,441.8c0,3.4-0.7,4.1-4.1,4.1c-147.3-0.1-294.5-0.1-441.8,0c-3.4,0-4.1-0.7-4.1-4.1
		C0.1,372.1,0.1,298.3,0.1,224.5z"/>
	<path display="inline" fill="#01A5FE" d="M68.3,368.9C54,354.2,43,337.3,34.1,319C-26.3,194.9,45.3,47,180,17.3
		C294.2-7.9,408.3,65.8,433,180.6c0.4,1.8,1.1,3.5,0.8,5.4c-3.9,9.1-10.3,16.7-16.2,24.4c-10.9,14.3-22.9,27.7-35.9,40.1
		c-28.5,27.1-60,50.1-94.6,68.9c-26.1,14.2-53.4,25.7-81.7,34.6c-24.4,7.6-49.3,12.7-74.7,15.4c-15.9,1.6-31.8,2.2-47.8,1.8
		C78,371.1,72.9,371,68.3,368.9z"/>
	<path display="inline" fill="#01CCFE" d="M68.3,368.9c8.9,0.3,17.9,1.2,26.8,1.1c28.6-0.2,56.7-3.8,84.5-10.4
		c34.1-8.1,66.6-20.4,97.7-36.4c28.1-14.5,54.5-31.5,78.8-51.8c11-9.2,21.7-18.6,31.7-28.8c15.6-15.9,29.8-32.9,42.1-51.5
		c1.2-1.8,1.9-3.9,3.9-5.1c3.9,16.5,4.7,33.3,3.9,50.1c-2.2,42.3-15.2,80.9-40.4,115c-36.9,50-86.4,79.7-148.1,86.3
		c-70.7,7.6-130.9-15.8-180-67.3C68.8,369.7,68.6,369.3,68.3,368.9z"/>
	<path display="inline" fill="#FEFEFE" d="M376.9,222c-8.9,8.4-19.6,12.3-31.8,11.9c-2.1-0.1-3.6,0-4.4,2.7
		c-15.5,51.7-52.8,79.4-102.9,92.2c-33.6,8.6-67.2,9-100-3.8c-25.3-9.9-46.5-25.6-63.2-47.5c37.9,26.4,74.1,23.8,109.4-5.5
		c-1.8-1.4-3.5-0.8-4.9-1c-3.7-0.5-7.1-1.6-10.3-3.6c-6.7-4.3-7.6-11.1-2.2-16.9c1.7-1.8,3.7-3.2,6.1-5.2c-6.4-0.3-12.3-1-17.7-3.4
		c-6.6-2.9-11.8-7.4-15.7-13.4c-1.5-2.3-1.2-3.9,1-5.4c3.6-2.6,7.4-4.4,11.8-5.1c0.6-0.8,2.9,0.5,2.1-1.8
		c-12.9-3.8-23.5-10.4-28.2-23.8c-2.1-6-1.8-6.4,4.4-7.3c3.3-0.5,6.5-0.9,10.2-1.4c-1.1-2-3.1-2.6-4.6-3.7
		c-9.9-7.3-17-16.3-18.6-28.9c-0.7-5.4-0.1-5.8,4.7-3.9c22.8,8.9,45.3,18.5,67.2,29.5c9.8,4.9,18.4,11.3,26.3,18.8
		c1,1,1.8,2.4,3.6,2.7c11.3-27.1,21.8-54.8,46.6-73.1c2.3,1.5-1,3.2,1,4.1c1.4,0.7,2.5-0.6,3.6-1.2c7.6-4.1,11.6-5.4,16.4-5
		c-0.3,2.7-2.2,4.3-4.4,6.1c4.4,0.3,8-2,11.9-1.9c2.5,0,5.5-0.5,6.3,2.6c0.7,2.7-1.8,4-3.8,5.2c-5.5,3.1-11.7,4.5-17.7,6.7
		c8.3,1.4,16.5,3.1,24,7c19.9,10.2,31,27.2,36.8,48.1c1,3.7,2.6,5.1,6.2,5.7c10.2,1.6,20.2,1.7,30.2-1.5
		c-6.1,12.2-17.8,14.3-29.8,16.4c5.5,3,13,4.1,25.5,3.9C373.6,220.8,375.7,219.3,376.9,222z"/>
	<path display="inline" fill="#C8FEFE" d="M122,74.7c0.5,4.3-1.8,7.8-4.4,11.3c-8.3,11.5-18.9,21-27.4,32.4
		c-6.4,8.6-12,17.7-20,24.9c-1.2,1.1-2.4,2.2-3.8,3.1c-4.7,2.8-7,2-9.2-2.8c-3.8-8.7-1.9-17,1.8-25.1c8.7-19.3,23.1-33.3,41.1-43.9
		c3.9-2.3,7.8-4.9,11.9-6.8C119.1,64.4,122.1,66.5,122,74.7z"/>
	<path display="inline" fill="#C8FEFE" d="M149.3,51.1c3-0.7,5.5,1,6.4,3.8c1.1,3.3,0.6,6.8-2.8,8.7c-4.3,2.4-8.5,4.9-13.5,5.9
		c-2.4,0.5-4.6,1.3-6.3-0.9c-1.8-2.3-1.6-5.2-0.4-7.5C136.2,54.8,141.4,50.9,149.3,51.1z"/>
	<path display="inline" fill="#9EDCFE" d="M154,216c1-0.1,2.3-0.3,2.5,0.8c0.2,1.3-1.3,1.1-2.1,1.1c-0.8,0.1-1.6-0.1-2.4-0.1
		C152.6,217.3,153.3,216.6,154,216z"/>
	<path display="inline" fill="#81D2FE" d="M376.9,222c-1.4-1.8-3.5-0.3-5-1.1c1.4-1.1,3.1-0.9,4.7-0.7
		C377.9,220.3,378.1,221.1,376.9,222z"/>
</g>
<g display="none">
	<path fill="#FEFEFE" d="M449.9,225c0,73.6,0,147.2,0.1,220.8c0,3.3-0.4,4.2-4,4.2c-147.2-0.1-294.5-0.1-441.7,0
		c-3.7,0-4.3-0.9-4.3-4.4C0.1,298.5,0.1,151.5,0,4.4C0,1,0.4,0,4.3,0C151.5,0.1,298.7,0.1,446,0c3.5,0,4,0.8,4,4.1
		C449.9,77.8,449.9,151.4,449.9,225z"/>
	<path display="inline" fill="#C4001C" d="M69,369.7c-11.3-11-20.1-23.9-27.9-37.4c-73.4-126,0.8-288.6,143.9-316
		C299.3-5.5,409.7,68.5,433.7,183c0.2,1,0.1,2,0.2,3c-0.4,2-1.5,3.7-2.6,5.4c-15,22.3-32.2,42.9-51.8,61.3
		c-29,27.2-61.1,50.2-96.4,68.9c-37.9,20.1-77.7,34.7-119.9,43c-15.7,3.1-31.5,4.9-47.5,6c-10.5,0.7-20.9,0.5-31.4,0.7
		C79.2,371.3,74.1,370.3,69,369.7z"/>
	<path display="inline" fill="#FD0000" d="M69,369.7c2-1.4,4.2-0.8,6.3-0.6c27.5,2.5,54.6-0.2,81.6-4.9c36.6-6.3,71.3-18,104.9-33.6
		c33.8-15.7,65-35.4,93.8-58.9c29.8-24.3,55.6-52.2,76.7-84.5c0.3-0.5,1-0.9,1.5-1.3c3.9,16.7,4.8,33.6,3.8,50.6
		c-3.1,54.4-23.4,101.5-62.1,139.9C329.3,422.3,273,443.1,207.9,438c-53.9-4.2-99.2-26.9-136.7-65.6C70.4,371.5,69.8,370.6,69,369.7
		z"/>
	<path display="inline" fill="#FEFEFE" d="M178.7,339.4c0-75.2,0-149.9,0-225.3c10.5,7.8,20.5,15.1,30.5,22.5
		c40.9,30,81.8,60.1,122.7,90c2.5,1.9,3.6,2.7,0.2,5c-50.6,35.6-101.1,71.3-151.7,107C180.2,338.9,179.7,339,178.7,339.4z"/>
	<path display="inline" fill="#FEFEFE" d="M122,74.7c0.8,6.4-3.9,10.8-7.6,15.3c-6,7.4-12.2,14.6-18.6,21.6
		c-6.6,7.2-11.5,15.8-17.8,23.2c-3.5,4.1-6.9,8.3-11.6,11.3c-5,3.2-7.2,2.3-9.5-3.2c-3.6-8.4-1.7-16.4,1.7-23.9
		c8.6-19.4,23-33.7,41.2-44.4c4-2.4,7.9-5,12.1-7C119,64.4,122.1,66.5,122,74.7z"/>
	<path display="inline" fill="#FEFEFE" d="M149.5,51.1c3-0.8,5.4,1.1,6.3,3.7c1,2.9,1,6.3-2.3,8.4c-4.9,3.2-10.2,5.7-15.9,6.9
		c-1.9,0.4-3.7,0-4.8-1.8c-1.3-2.3-1.2-4.9-0.2-7.1C135.6,54.8,141.9,51.1,149.5,51.1z"/>
</g>
<g display="none">
	<path fill="#FEFEFE" d="M225,449.9c-73.6,0-147.2,0-220.8,0.1c-3.3,0-4.2-0.5-4.2-4C0.1,298.7,0.1,151.5,0,4.3C0,0.5,1,0,4.4,0
		c147.1,0.1,294.1,0.1,441.2,0c3.4,0,4.4,0.5,4.4,4.3c-0.1,147.2-0.1,294.5,0,441.7c0,3.5-0.9,4-4.2,4
		C372.2,449.9,298.6,449.9,225,449.9z"/>
	<path display="inline" fill="#FDBB48" d="M69.1,369.9C57,357.8,47.5,343.8,39.2,329c-20.9-37.7-29.4-78.3-25.9-121
		c3.8-46.7,21.3-87.9,52.4-123.1C98.9,47.1,140.4,23.5,190,15.6c61.1-9.8,117,4,166,42.3c39.2,30.6,64.6,70.5,76.3,118.9
		c0.7,3,1.9,6,1.6,9.2c-0.9,3.3-3.1,5.8-5,8.6c-11.5,16.9-24.6,32.5-38.8,47.3c-1.4,1.5-2.6,4.2-5.6,2.9c-1.5-2.3-1.8-5-2.6-7.5
		c-6.5-18.6-25.1-30.5-44.5-28.4c-6.6,0.7-7.3,0.3-9.1-6.2c-5.8-20.3-17.7-36.2-36.1-46.5c-17.8-9.9-36.7-11.5-55.9-4.3
		c-10,3.7-11.8,6.5-11.8,17.1c0,39.5,0,79,0,118.4c0,2-0.1,4,0.2,6c0.6,3.9,3,6.2,6.8,7c2.1,0.4,4.3,0.3,6.5,0.3c33,0,66,0,98.9,0
		c2.6,0,5.4-0.5,7.8,1c0.1,3.5-2.7,2.6-4.4,2.7c-6,0.2-12,0.4-18,0c-6.3-0.3-11.6,1.4-16.9,4.6c-33.7,20.6-69.5,36.5-107.5,47.3
		c-26.8,7.6-54,12.7-82,14.3C100.2,371.4,84.7,371.8,69.1,369.9z"/>
	<path display="inline" fill="#FE9500" d="M385.8,245.1c8.3-9.6,17.3-18.7,25.2-28.6c7.1-8.9,14-18,20.3-27.5
		c0.7-1.1,1.1-2.4,2.5-2.9c3.7,16.5,4.7,33.3,3.8,50.1c-2.2,42.1-15.2,80.6-40.2,114.6C360.6,401,311,430.8,249,437.4
		c-70.2,7.5-130-15.5-179-66.4c-0.3-0.4-0.6-0.8-0.9-1.2c1.8-1.8,4.2-1,6.2-0.8c20.9,2.1,41.7,0.4,62.5-2
		c28.5-3.3,56.1-10.2,83.1-19.6c31-10.9,60.4-25.1,88.4-42.4c2.4-1.5,4.8-2.1,7.5-2.1c8,0.1,16,0,24,0c1.5,0,3,0.4,4.2-0.9
		c1.1-1.5,2.7-1.8,4.3-2.2c21.3-5.4,35.3-22.7,36.3-44.6C385.8,251.9,383.4,248.5,385.8,245.1z"/>
	<path display="inline" fill="#FEFEFE" d="M385.8,245.1c4.3,23.6-8.9,43.9-24.3,51.8c-5.2,2.7-10.8,4.2-16.6,5.1
		c-11.6,0-23.3,0-34.9,0c-25.3,0-50.6,0-75.9,0c-7.8,0-11.2-3.4-11.3-11.2c0-41.8,0.1-83.6-0.1-125.4c0-6.9,3.4-10.8,9.2-13.4
		c20.8-9.2,41.3-8,60.9,2.8c19.4,10.7,31.4,27.3,37,48.6c1,3.8,2.1,5,6.4,4.1c21-4.2,43.4,11.8,48.6,34.2
		C385.1,242.9,385.5,244,385.8,245.1z"/>
	<path display="inline" fill="#F9E8B4" d="M122,74.6c0.5,4.3-1.8,7.9-4.4,11.4c-8.2,11.4-18.7,20.9-27.2,32.1
		c-6.4,8.6-12.1,17.8-20.1,25.1c-1.3,1.2-2.8,2.4-4.3,3.4c-4,2.6-6.5,1.7-8.6-2.6c-4.2-8.9-2.1-17.5,1.6-25.8
		C67.9,99,82.2,85,100.2,74.5c4-2.3,7.8-5,12-6.9C119,64.4,122.1,66.7,122,74.6z"/>
	<path display="inline" fill="#FEFEFE" d="M197.9,242.5c1.2-18.4,2.8-42.5,4.4-66.6c0.2-2.7,1-5.2,4.1-5.4c3.4-0.2,3.9,2.6,4.1,5.2
		c1.2,14.2,2.4,28.5,3.5,42.7c0.7,9.3,1.5,18.6,1.9,27.9c0.5,12.7-1.8,25.2-3.3,37.7c-0.5,4.8-1.2,9.6-1.9,14.3
		c-0.4,2.4-1,4.7-4.2,4.6c-3-0.1-3.9-2.2-4.2-4.7C200.6,281.6,197.7,265,197.9,242.5z"/>
	<path display="inline" fill="#FEFEFE" d="M152.8,243.6c0.3-15.9,2.5-36.9,4.2-58c0.2-2.6,1.1-4.8,4-4.7c3,0.1,3.6,2.6,3.8,5
		c1.4,15.7,2.4,31.5,4.1,47.2c2.4,21.9-1.6,43.4-4.1,65c-0.3,2.4-1.1,4.8-4.1,4.7c-2.6-0.1-3.5-2-3.8-4.4
		C155,282,152.6,265.5,152.8,243.6z"/>
	<path display="inline" fill="#FEFEFE" d="M175,248.9c1.6-18.4,3.2-37.8,4.8-57.1c0.2-2.5,0.8-5,3.7-5.1c3.1-0.1,4,2.6,4.2,5.2
		c1.1,11.7,1.7,23.6,3.3,35.2c3.3,23.6-0.5,46.7-3.3,70c-0.3,2.6-0.4,5.8-4.1,5.8c-3.6-0.1-3.7-3.2-4-5.8
		C177.7,281.3,176.2,265.6,175,248.9z"/>
	<path display="inline" fill="#FEFEFE" d="M148,248.6c-1.2,17.7-3.5,33.7-5.4,49.7c-0.3,2.1-0.8,4.6-3.7,4.5
		c-2.9-0.1-3.8-2.2-4.1-4.7c-3.7-26.3-5.6-52.6-2.3-79c1-7.9,1.7-15.9,2.4-23.8c0.2-2.5,0.9-4.9,3.8-5c2.9-0.1,3.9,2.5,4.1,4.8
		C144.7,213.5,146.4,231.9,148,248.6z"/>
	<path display="inline" fill="#FEFEFE" d="M124.1,257.2c-1.1,10.8-2.6,25.8-4.2,40.9c-0.2,2.2-0.9,4.6-3.5,4.8
		c-3.1,0.2-3.7-2.6-3.9-4.8c-2.3-25.4-6.9-50.9-0.4-76.3c0.2-0.8,0.2-1.7,0.4-2.4c0.6-1.8,1.4-3.7,3.5-3.7c2.4-0.1,3.5,1.8,3.9,3.9
		C121.8,230.5,124.6,241.5,124.1,257.2z"/>
	<path display="inline" fill="#FEFEFE" d="M85.9,250.2c0.6-13.4,2.7-24.9,4.3-36.4c0.3-2,1.4-3.5,3.6-3.5c2.4,0.1,3.3,1.9,3.6,4
		c2.7,16.2,6.1,32.4,3.5,49c-1.5,10-2.4,20.1-3.7,30.2c-0.3,2.3-0.9,4.5-3.8,4.3c-2.4-0.2-3.2-2.1-3.4-4.3
		C88.6,278.6,87.2,263.6,85.9,250.2z"/>
	<path display="inline" fill="#FEFEFD" d="M80.2,251.6c-1.4,9.5-3,20-4.7,30.5c-0.3,1.8-0.8,3.9-3.2,3.7c-2.2-0.2-2.7-2.3-3-4.1
		c-2.7-17.9-5.9-35.8-0.4-53.8c0.7-2.1,0.9-4.7,3.5-4.7c2.7,0,3.1,2.6,3.5,4.7C77.7,235.4,79.4,242.9,80.2,251.6z"/>
	<path display="inline" fill="#F9E8B4" d="M149.4,51.1c3.1-0.5,5.5,1.2,6.4,4.1c0.9,2.9,0.7,6.1-2.4,8c-4.9,3.1-10.1,5.7-15.8,6.9
		c-1.9,0.4-3.8,0-4.8-1.9c-1.2-2.3-1.3-4.9,0-7.1C136.3,54.6,141.6,50.9,149.4,51.1z"/>
</g>
<g display="none">
	<path fill="#FEFEFE" d="M449.9,225.5c0,73.4,0,146.9,0.1,220.3c0,3.3-0.5,4.2-4,4.1c-147.2-0.1-294.5-0.1-441.7,0
		c-3.8,0-4.3-1-4.3-4.4C0.1,298.5,0.1,151.5,0,4.4C0,0.9,0.5,0,4.3,0c147.1,0.1,294.1,0.1,441.2,0c3.9,0,4.5,1.1,4.5,4.7
		C449.9,78.3,449.9,151.9,449.9,225.5z"/>
	<path display="inline" fill="#04C7CC" d="M68.4,369c-20.3-21.5-34.9-46.5-44.3-74.4c-40.9-121.1,30.8-249,155.5-277
		c39.7-8.9,79-6.1,117.4,7.6c1.3,0.5,3,0.5,3.8,1.9c-9.5,8.1-17.8,17.3-26.7,26.1c-13,12.8-25.7,25.9-38.8,38.6
		c-3.3,3.2-4.3,5.8-1.3,9.4c0.5,2.1,0.4,4.3,0.4,6.5c0,51.6,0,103.2,0,154.9c0,8.1-1.5,15.9-4.4,23.4c-5.3,14-14.9,23.4-30.2,25
		c-15,1.6-27.5-4.1-36.7-16.1c-11.1-14.4-11.1-33.1-0.5-46.3c4.6-5.7,10.8-9.4,17.6-11.9c5.6-2.1,11.3-4.2,17.2-5.1
		c3.7-0.6,5.4-2.2,5.3-6.3c-0.3-10.3-0.2-20.6,0-31c0.1-3.2-1.2-4.2-4.1-3.9c-29.4,2.8-54.6,13.1-70.7,39.7
		c-17.4,28.7-12.9,71.3,9.8,96c15.3,16.6,34,25.1,56.6,25.4c3.2,0,6.3-0.7,9.4-1.2c1.9-0.3,4-1.1,5.6,0.9c-0.8,2.5-3.2,2.8-5.1,3.4
		c-28.7,8.3-57.7,14.4-87.6,16c-14.3,0.8-28.5,1.4-42.8-0.1C71.8,370.3,70,370.1,68.4,369z"/>
	<path display="inline" fill="#FE1853" d="M68.4,369c17.1,1,34.3,1.4,51.4,0c30.4-2.5,60.3-7.9,89.2-17.9c3.2-3.4,7.8-3.4,11.7-5.2
		c3.1-1.5,6.5-2.7,9.7-3.9c24.4-8.7,47.4-20.2,69.6-33.5c25.2-15,48.6-32.5,70.5-52.2c22.3-20.1,41.4-42.7,58.5-67.2
		c1-1.4,1.5-3.5,3.9-3.3c3.7,5.2,3.1,11.4,3.6,17.2c6.3,69.8-15.1,129.8-66,178.2c-43.2,41.1-95.6,60.1-155.2,57.4
		c-57.5-2.7-105.9-25.9-145.5-67.6C69.4,370.3,68.9,369.6,68.4,369z"/>
	<path display="inline" fill="#04C7CC" d="M433,185.9c-10.4,15.4-21.7,30.1-34.1,43.9c-22.2,24.8-47.4,46.1-74.9,64.9
		c-28,19.2-57.9,34.7-89.3,47.5c-1.2,0.5-2.4,1.2-3.8,0.6c-0.1-2.5,1.9-3.3,3.5-4.4c26.5-18.6,38.4-44.8,39-76.5
		c0.5-23.5,0.1-47,0.1-70.5c0-1.5,0-3,0-4.5c0.2-6.7,1.5-7.5,7.4-4.2c9,5.1,18.3,9.5,28.4,12.1c6,1.6,12.2,1.9,18.3,2.2
		c3.3,0.2,4.9-1.3,4.9-4.7c0-9.7-0.1-19.3,0-29c0-3.3-1.2-4.7-4.6-5.1c-10.8-1.3-20.7-4.9-29.5-11.4c-11.4-8.4-17.8-20-21.8-33.2
		c-1.1-3.7-1.9-7.4-2.6-11.2c-0.5-2.7-2.1-4-4.9-4c-10.3,0-20.7,0-31,0c-2.1,0-3.8,1.1-5.7,1.6c-2.9-2.1-3.4-3.8-0.3-6.8
		c21.2-20.9,42.2-42,63.2-63.1c1.5-1.5,2.8-3.4,5.4-3.1c14.7,5.7,28.7,12.9,41.8,21.8c23.8,16.1,43.7,36,59.5,60
		c14.7,22.3,24.6,46.6,30.6,72.5C433,182.9,432.9,184.4,433,185.9z"/>
	<path display="inline" fill="#FEFEFE" d="M232.5,100.1c0.1-2.3,1.2-2.9,3.5-2.9c11.8,0.1,23.7,0.2,35.5,0c3.1,0,3.4,1.4,3.8,3.8
		c1.9,11.4,5.2,22.2,11.9,32c10.3,15,24.9,22,42.4,24c3.8,0.4,4.5,1.7,4.5,5.2c-0.2,10.5-0.3,21,0,31.5c0.1,4.1-1.2,4.9-5,5
		c-14.9,0.3-28.5-4.1-41.6-10.8c-3.8-2-7.6-4.1-11.3-6.1c-1.5,1.1-0.8,2.6-0.8,3.8c0,24.5,0.1,49-0.1,73.4
		c-0.3,29.1-9.4,54.6-31.7,74.3c-3.9,3.5-8.4,6.4-12.6,9.6c-7,3.6-14.3,6.3-21.9,8.3c-9.6,1.4-19.1,2.5-28.8,0.6
		c-32.5-6.4-57.9-32.5-63.2-65.4c-8-49.6,23-90.5,73.1-96.3c3.6-0.4,7.3-0.6,10.9-1.1c2.6-0.3,3.4,0.5,3.3,3.2
		c-0.2,12.2-0.2,24.3,0,36.5c0,2.7-1,3.3-3.3,3.7c-6.9,1.3-13.6,3-20.2,5.6c-16.5,6.5-24.9,17.8-24.6,33.3
		c0.4,17.1,10.8,31.3,26.8,36.6c19.1,6.3,36.8-1.5,44.8-20c4-9.3,5.2-19.2,5.2-29.3c-0.1-50.8-0.2-101.6-0.3-152.4
		C232.8,104,232.6,102,232.5,100.1z"/>
	<path display="inline" fill="#FEFEFE" d="M122,74.5c0.6,4.4-1.8,8-4.5,11.6c-8.2,11.4-18.6,20.8-27,32c-6.4,8.5-12,17.7-19.9,24.9
		c-0.7,0.7-1.4,1.5-2.1,2.1c-6.1,5.1-8.7,4.1-11.6-3.5c-4.4-11.5,0.5-21.2,5.8-30.5c10-17.4,24.7-30,42.2-39.5
		c2.4-1.3,4.7-3,7.2-4.1C119,64.5,122,66.5,122,74.5z"/>
	<path display="inline" fill="#FEFEFE" d="M149,51.1c3.5-0.7,5.9,1.1,6.8,4.1c1,3.3,0.2,6.7-3.2,8.5c-4.3,2.2-8.5,4.8-13.4,5.8
		c-2.4,0.5-4.6,1.1-6.2-1.2c-1.7-2.2-1.6-5.1-0.5-7C136,55.1,141.2,50.8,149,51.1z"/>
</g>
<g display="none">
	<path fill="#FEFEFE" d="M0.1,225c0-73.6,0-147.3-0.1-220.9C0,0.7,0.7,0,4.1,0c147.3,0.1,294.5,0.1,441.8,0c3.4,0,4.1,0.7,4.1,4.1
		c-0.1,147.3-0.1,294.5,0,441.8c0,3.4-0.7,4.1-4.1,4.1c-147.3-0.1-294.5-0.1-441.8,0c-3.4,0-4.1-0.7-4.1-4.1
		C0.1,372.3,0.1,298.6,0.1,225z"/>
	<path display="inline" fill="#299F44" d="M69.1,369.8c-12.7-12.7-22.6-27.4-31.1-43.1c-67-125,2.8-279,141.7-308.9
		c80.6-17.3,149.9,6.7,205.5,67.9c25.1,27.6,40.6,60.4,48.4,96.9c0.2,1.1,0.2,2.3,0.2,3.5c-3.8,8.8-9.9,16.2-15.7,23.6
		c-36.1,46.4-80.8,82.5-132.4,110.5c-30.2,16.4-61.7,29.1-94.8,38c-24.1,6.5-48.6,10.8-73.7,12.4c-10.3,0.6-20.6,0.5-30.9,0.8
		C80.6,371.4,74.9,370.5,69.1,369.8z"/>
	<path display="inline" fill="#036C38" d="M69.1,369.8c1.4-1.4,3.2-0.9,4.7-0.8c37.4,3.1,74.1-1.7,110.3-10.6
		c32.9-8.1,64.3-20.3,94.3-35.8c29-15,56.1-32.9,81.1-53.9c27.7-23.3,52.1-49.8,72-80.1c0.6-1,1.1-2.1,2.3-2.6
		c3.8,16.5,4.7,33.3,3.8,50.1c-3,54.6-23.3,101.9-62.1,140.3C329.3,422.3,273.1,443,208,438c-53.7-4.2-98.9-26.7-136.3-65.2
		C70.7,371.9,69.9,370.8,69.1,369.8z"/>
	<path display="inline" fill="#FEFEFE" d="M195.7,161.4c41.7,0.3,80.9,6.2,118.1,22.7c4.7,2.1,9.3,4.5,13.8,6.9
		c9.5,5.1,12.6,13,8.5,21.3c-4.3,8.6-12.9,11.5-22.5,6.5c-12.8-6.6-25.8-12.4-39.6-16.2c-44.9-12.4-90.2-14.1-135.8-3.9
		c-3.4,0.8-6.9,1.4-10.3,1.8c-8.5,1.1-14-2.8-16-11.2c-1.9-7.9,2.2-15.5,9.7-17.8c13.2-4.1,26.7-6.9,40.5-8.3
		C173.8,161.9,185.4,161.7,195.7,161.4z"/>
	<path display="inline" fill="#FEFEFE" d="M199.4,215c38.4,1.1,74.9,9,108.1,29.1c5.6,3.4,8.1,8.3,7.2,14.7c-1.2,8.5-8.9,13-17,10.2
		c-1.6-0.5-3.1-1.2-4.5-2.1c-36-21-75.1-26.8-115.9-24.3c-12.7,0.8-25.1,2.8-37.4,6.1c-7.9,2.1-15.1-1.9-16.7-8.6
		c-1.9-8,2.1-14.7,10.6-17C155.2,217.3,177,214.3,199.4,215z"/>
	<path display="inline" fill="#FEFEFE" d="M199.1,267.1c29.2,0,59.3,6.6,87.2,22c3.5,1.9,7.3,3.6,9.1,7.5c1.6,3.3,2,6.8-0.7,9.8
		c-2.9,3.2-6.2,5.7-10.8,4.7c-1.9-0.4-3.8-1.3-5.5-2.2c-35.2-19.8-72.8-24.2-112.1-18.3c-7.6,1.1-15.1,2.7-22.6,4.2
		c-7.2,1.4-12-1-13.5-6.7c-1.6-6.2,2.1-11.9,9.1-13.7C158.1,269.5,177.2,267.3,199.1,267.1z"/>
	<path display="inline" fill="#118B67" d="M122,74.7c0.4,4.2-1.8,7.7-4.2,11.1c-8.4,11.6-19.1,21.2-27.6,32.6
		c-6.3,8.5-12,17.6-19.9,24.8c-1.2,1.1-2.5,2.2-3.9,3.1c-4.5,3-7,2-9.2-3c-3.8-8.5-1.9-16.7,1.6-24.5c8.6-19.3,23-33.5,41-44.1
		c4-2.4,7.9-5,12.1-6.9C119,64.4,122.1,66.6,122,74.7z"/>
	<path display="inline" fill="#118B67" d="M149.3,51.1c3.2-0.5,5.6,1.2,6.5,4.1c1,3.2,0.5,6.5-2.8,8.2c-4.3,2.3-8.5,5-13.5,6
		c-2.4,0.5-4.7,1.2-6.3-1c-1.7-2.3-1.6-5.1-0.3-7.5C136.3,54.5,141.7,50.9,149.3,51.1z"/>
</g>
<g display="none">
	<path fill="#FEFEFE" d="M449.9,225.6c0,73.4,0,146.9,0.1,220.3c0,3.4-0.7,4.1-4.1,4.1c-147.2-0.1-294.5-0.1-441.7,0
		c-3.9,0-4.2-1.2-4.2-4.5c0.1-147,0.1-294.1,0-441.1C0,0.8,0.7,0,4.3,0c147.1,0.1,294.1,0.1,441.2,0c4,0,4.5,1.2,4.5,4.7
		C449.9,78.3,449.9,151.9,449.9,225.6z"/>
	<path display="inline" fill="#B3AACE" d="M69,370c-10.5-10.3-18.8-22.4-26.3-34.9c-15.2-25.2-25.1-52.5-28.4-81.7
		c-6.8-59.9,7.5-114.1,45.4-161.6c26.1-32.6,59.2-55.2,98.6-68.5c19.3-6.5,39.2-9.8,59.6-10.4c39-1.1,75.5,7.2,109.6,26.1
		c26.8,14.9,49.6,34.3,67.7,59.2c8.7,11.9,16.5,24.2,22.8,37.4c7.1,14.9,12.1,30.4,15.6,46.5c0.3,1.3,0.1,2.6,0.2,4
		c-0.5,2.1-1.8,3.9-3,5.7c-14.8,22.1-31.8,42.3-51.1,60.5c-29,27.2-61,50.3-96.3,69c-25.2,13.4-51.5,24.2-78.6,32.9
		c-1.9,0.6-3.8,1.2-5.8,1.4c-1.2,0.1-2.5,0.1-2.3-1.7c4.7-8.1,11.8-14.4,17.7-21.6c3-3.7,6.4-7.3,9.4-11c2.8-3.5,6.1-4.8,10.4-4.7
		c7.3,0.1,14.7,0,22,0.1c3.7,0.1,6.7-1,9.4-3.7c16.1-16.2,32.3-32.3,48.4-48.4c7-7.1,14.5-13.8,21.4-21c2.8-2.9,4.2-6.1,4.2-10.2
		c-0.1-34-0.1-68-0.1-101.9c0-6.4-0.3-6.7-6.8-6.7c-52.3,0-104.6,0-156.9-0.1c-4.5,0-7.8,1.3-10.8,4.8c-8.4,9.7-16.8,19.4-25.5,28.8
		c-2.8,3-4,6.3-4,10.4c0,47.3,0,94.6,0,141.9c0,5.6,0.5,6,6,6.1c12.2,0.1,24.3,0,36.5,0c7.7,0,8.5,0.8,8.5,8.7c0,7,0,14,0,21
		c0,6.5,0.1,6.5,6.4,7.4c1.2,0.2,2.3,0.4,3.2,1.2c-0.2,2.7-2.6,2.7-4.4,3.2c-24.6,6.6-49.5,11-75,12.6C100.8,371.5,84.9,372,69,370z
		"/>
	<path display="inline" fill="#62509B" d="M69,370c2.1-2,4.8-1,7.1-0.8c40.7,2.9,80.5-2.9,119.6-13.8c0.1,0,0.3-0.2,0.4-0.3
		c0.2-0.3,0.5-0.4,0.9-0.2c20.2-5,39.5-12.7,58.4-21.1C293,317,327.6,295.4,359.1,269c27.3-22.8,51.3-48.7,71.1-78.4
		c1.1-1.6,1.7-3.6,3.7-4.6c3.8,16.8,4.7,33.9,3.8,51.1c-2.4,42.4-15.8,81.1-41.3,115.2c-37,49.4-86.4,78.7-147.8,85.1
		C177.9,444.8,118,421.4,69,370z"/>
	<path display="inline" fill="#FEFEFE" d="M196.9,354.8c-0.3,0.1-0.6,0.2-0.9,0.2c-10.9-0.5-10.9-0.5-10.9-11.3
		c0-6.7-0.3-13.3,0.1-20c0.3-4.9-1.6-5.8-6-5.7c-13.5,0.2-27,0-40.5,0.2c-3.7,0.1-4.8-1-4.8-4.7c0.1-49.1,0.1-98.2,0-147.3
		c0-2.8,0.8-5.1,2.7-7.2c9.9-11,19.6-22.2,29.4-33.3c1.6-1.8,3.3-2.5,5.6-2.5c54.9,0.1,109.9,0.1,164.8,0c3.6,0,4.4,1.2,4.4,4.6
		c-0.1,36.3-0.2,72.6,0,108.9c0,5-3.7,7-6.2,9.6c-22.2,22.4-44.8,44.5-67.1,67c-3.7,3.8-7.4,5.4-12.6,5.1c-7.6-0.4-15.3-0.1-23-0.1
		c-2.3,0-4.1,0.3-5.7,2.2C216.6,331.9,206.8,343.3,196.9,354.8z"/>
	<path display="inline" fill="#9896D3" d="M122,74.5c0.5,4.3-1.7,7.9-4.3,11.5c-8.3,11.4-18.8,21-27.3,32.2
		c-6.3,8.5-12,17.6-19.9,24.8c-1,0.9-1.9,1.9-3,2.7c-5.5,4-8.2,3-10.7-3.5c-4.4-11.8,0.4-21.8,6-31.5c9.9-17.1,24.4-29.5,41.6-38.9
		c2.6-1.4,5.1-3.2,7.8-4.3C119.1,64.6,122.1,66.8,122,74.5z"/>
	<path display="inline" fill="#9896D3" d="M149.3,51.1c3.2-0.5,5.6,1.2,6.5,4.1c0.9,2.9,0.7,6.1-2.4,8c-4.9,3-10,5.8-15.8,6.9
		c-1.9,0.4-3.8,0-4.8-1.9c-1.3-2.3-1.3-4.8,0-7.1C136.3,54.6,141.6,50.9,149.3,51.1z"/>
	<path display="inline" fill="#B3AACE" d="M228.9,296.4c0-8.3-0.2-15.2,0.1-22.1c0.1-3.4-1.1-4.2-4.3-4.2c-12.5,0.2-25-0.1-37.5,0.1
		c-3.7,0.1-5.2-0.7-5.2-4.9c0.2-41.1,0.1-82.3,0-123.4c0-3.6,0.8-4.9,4.7-4.9c45.1,0.1,90.3,0.1,135.4,0c4.1,0,5,1.3,5,5.1
		c-0.1,29.5-0.1,59,0,88.4c0,2.7-0.7,4.7-2.7,6.6c-10.1,9.9-20.1,19.9-30,30c-2.2,2.2-4.4,3-7.5,3c-10.7-0.2-21.3,0-32-0.1
		c-2.3,0-4.1,0.4-5.7,2.4C242.9,280.1,236.4,287.6,228.9,296.4z"/>
	<path display="inline" fill="#B3AACE" d="M199.1,329.2c0-6.6-0.2-13.3,0.1-19.9c0.1-3.6-1.2-4.5-4.6-4.5c-13.8,0.2-27.6,0-41.5,0.1
		c-3.7,0-5.2-0.7-5.2-4.9c0.2-43.1,0.1-86.3,0.1-129.4c0-1.8-0.2-3.6,1.2-5.2c6.2-6.9,12.4-13.8,18.9-21.1c1.3,1.9,0.7,3.7,0.7,5.4
		c0,42.8,0.1,85.6-0.1,128.4c0,4.4,0.8,6.1,5.7,5.9c11.1-0.4,22.3-0.1,33.5-0.1c7.9,0,7-0.8,7.1,6.8c0,3-0.3,6,0.1,9
		c1,8.6-1,15.9-7.9,21.7c-2.7,2.3-4.7,5.4-7,8.2C199.8,329.5,199.4,329.4,199.1,329.2z"/>
	<path display="inline" fill="#B4ABCE" d="M239.9,304.9c5.8-7,10.9-13.1,16-19.1c0.8-0.9,1.6-1.7,2.9-1.7c5.7,0,11.5,0,18.3,0
		c-7,7.1-13.3,13.4-19.6,19.7c-1.8,1.8-4.1,1-6.2,1.1C247.9,304.9,244.5,304.9,239.9,304.9z"/>
	<path display="inline" fill="#FEFEFE" d="M251.1,200.5c0,7.1-0.2,14.3,0.1,21.4c0.1,3.7-0.7,5.4-4.9,5.2c-9.9-0.4-8.3,1.2-8.4-8.5
		c-0.1-13.1,0.1-26.2-0.1-39.4c-0.1-3.9,0.8-5.7,5.2-5.4c9.5,0.5,8-1,8.1,8.3C251.1,188.3,251.1,194.4,251.1,200.5z"/>
	<path display="inline" fill="#FEFEFE" d="M295,200.9c0,7.3-0.1,14.6,0,22c0,2.8-0.5,4.3-3.8,4.2c-11.6-0.3-9.3,1.1-9.4-9
		c-0.2-13,0.1-25.9-0.1-38.9c-0.1-4.2,1.3-5.8,5.4-5.2c1.1,0.2,2.3,0.2,3.5,0c3.6-0.5,4.6,1.1,4.5,4.5
		C294.8,185.9,295,193.4,295,200.9z"/>
</g>
<g display="none">
	<path fill="#FEFEFE" d="M449.9,225.5c0,73.4,0,146.9,0.1,220.3c0,3.3-0.5,4.2-4,4.2c-147.2-0.1-294.5-0.1-441.7,0
		c-3.8,0-4.3-1-4.3-4.4C0.1,298.5,0.1,151.5,0,4.4C0,1,0.5,0,4.3,0c147.1,0.1,294.1,0.1,441.2,0c3.9,0,4.5,1,4.5,4.7
		C449.9,78.3,449.9,151.9,449.9,225.5z"/>
	<path display="inline" fill="#008BDB" d="M68.2,368.9c-22.5-24-37.9-52-47-83.4c-34.4-119,37.6-240.7,158.6-268
		C291.3-7.9,406.2,64.3,431.9,175.7c0.8,3.4,1.3,6.8,1.9,10.2c-1.5,4.9-4.8,8.7-7.7,12.7c-13.8,19.2-29.1,37.2-46.2,53.5
		c-21.9,20.8-45.9,38.9-71.5,54.7c-1.7,1-3.8,4.2-6.2,0.7c-0.4-3.9,0.7-7.6,1.5-11.3c7.3-33.5,14.3-67.1,21.5-100.6
		c3.1-14.5,6.1-29,9.4-43.5c0.6-2.8,1.2-5.5,1.2-8.4c-0.1-8.5-5.3-12.2-13.3-9.4c-9.4,3.3-18.7,7-28,10.6
		c-55.4,21.2-110.7,42.5-166.1,63.6c-3.3,1.2-6.6,2.3-9.5,4.4c-5.6,4.2-5.2,8.3,1.3,10.9c4.5,1.8,9.2,3.1,13.8,4.5
		c10.5,3.2,21,6.4,31.5,9.9c4.4,1.5,8.1,1,12.2-1.6c36.7-23,73.3-46.1,110.1-68.9c1.3-0.8,2.5-1.7,3.9-2.2c1.9-0.7,4.1-1.2,5.5,0.7
		c1.5,2,0.1,3.9-1.4,5.3c-4.2,4-8.6,7.9-12.9,11.8c-14.9,13.3-29.7,26.7-44.6,40c-10.9,9.8-21.9,19.5-32.6,29.4
		c-2.4,2.2-3.9,4.6-4,7.7c-0.9,13.9-1.8,27.9-3,41.8c-0.2,2.9,1.2,3.7,3.7,2.6c2.8-1.2,5-3.3,7.1-5.4c5.6-5.5,10.9-11.2,16.7-16.5
		c5.7-5.2,6.6-5.2,12.8-0.8c15,10.8,29.8,21.9,44.8,32.6c1.3,0.9,2.9,1.8,2.6,3.9c-2.7,3.6-6.9,5.2-10.7,7.1
		c-35.6,17.8-72.8,31.3-112,38.9c-26.7,5.2-53.7,7.5-80.9,6.7C77.9,371.1,72.8,371.2,68.2,368.9z"/>
	<path display="inline" fill="#4EA3F7" d="M68.2,368.9c9.9,0.4,19.9,1.3,29.8,1.1c33.5-0.5,66.2-5.6,98.4-14.7
		c27.4-7.7,53.7-18.3,79.1-31.1c3.7-1.8,7.4-3.6,10.6-6.3c7.8,0.8,12.9-2.5,15.8-9.7c0.1-0.2,0.6-0.3,0.9-0.3c2.3,1.1,3.7-1,5.1-1.9
		c22.8-14.4,44.4-30.3,64.4-48.4c23-20.9,43-44.2,60.1-70.1c0.4-0.5,1-0.9,1.4-1.3c2.8,9.5,3.5,19.3,3.9,29.1
		C440,279.6,418.4,335,372,380c-33.1,32.1-73,51.3-118.9,57c-60.8,7.6-115-8.4-162.6-46.7C82.4,383.8,74.8,376.9,68.2,368.9z"/>
	<path display="inline" fill="#FEFEFE" d="M302.8,307.8c-0.8,2-1.5,4-2.5,5.9c-2.9,5.2-6.2,6.2-14.2,4.2
		c-16.7-12.1-33.4-24.1-50-36.4c-2.8-2-4.3-2.3-6.9,0.3c-6.7,6.9-13.9,13.4-20.9,20.1c-1.1,1-2.1,2.1-3.3,3c-2,1.6-4.5,3.2-6.8,2.1
		c-2.2-1.1-0.9-3.9-0.7-5.9c0.9-13.6,2-27.2,2.8-40.8c0.2-3.5,1.2-6.1,4-8.6c29.7-26.5,59.3-53.1,88.9-79.7c1.6-1.4,5.2-2.9,3.6-5.1
		c-1.8-2.4-4.8-0.1-7,1.2c-29.2,18.2-58.4,36.5-87.5,54.7c-9,5.6-18.1,11.2-27.1,16.9c-2.1,1.4-4,1.6-6.5,0.8
		c-15.3-4.9-30.7-9.6-46.1-14.4c-0.5-0.1-1-0.2-1.4-0.4c-3.3-1.5-7.4-2.3-7.8-6.8c-0.4-4.7,3.2-6.9,6.7-8.3
		c13.7-5.6,27.5-10.8,41.2-16.1c52.9-20.2,105.7-40.5,158.6-60.7c12.1-4.6,19.1,0.9,16.7,13.9c-2.8,15.5-6.4,30.9-9.7,46.4
		C318.9,232,310.8,269.9,302.8,307.8z"/>
	<path display="inline" fill="#FEFEFE" d="M122,74.6c0.8,6.4-3.8,10.8-7.6,15.4c-6,7.4-12.2,14.6-18.6,21.6
		C89.2,119,84.3,127.5,78,135c-3.5,4.2-7,8.3-11.7,11.3c-4.6,2.9-7,2.1-9.1-2.7c-3.8-8.6-1.9-16.9,1.7-24.9
		c8.6-19.4,23.1-33.4,41.2-44.1c3.9-2.3,7.7-4.9,11.8-6.8C119.1,64.4,122,66.3,122,74.6z"/>
	<path display="inline" fill="#FEFEFE" d="M149.5,51.1c3.1-0.7,5.5,1.2,6.3,3.9c0.9,2.7,0.8,6-2.2,8c-4.9,3.3-10.2,5.8-16,7
		c-1.9,0.4-3.8,0-4.8-1.8c-1.3-2.3-1.4-4.9-0.2-7.1C136.2,54.8,141.5,50.8,149.5,51.1z"/>
</g>
<g display="none">
	<path fill="#FEFEFE" d="M449.9,225c0,73.6,0,147.2,0.1,220.8c0,3.3-0.5,4.2-4,4.2c-147.2-0.1-294.5-0.1-441.7,0
		c-3.8,0-4.3-1-4.3-4.4C0.1,298.5,0.1,151.5,0,4.4C0,1,0.5,0,4.3,0C151.5,0.1,298.7,0.1,446,0c3.5,0,4,0.9,4,4.2
		C449.9,77.8,449.9,151.4,449.9,225z"/>
	<path display="inline" fill="#E58031" d="M69.1,369.8c-10.4-10-18.5-21.7-25.9-34c-23.8-39.4-33.4-82.3-29.9-128
		c7.3-95.5,80-175.3,174.5-191.9c112-19.7,219.5,51.5,244.9,162.3c0.6,2.6,1.6,5.1,1.2,7.8c-0.5,2.2-1.8,3.9-3,5.7
		c-14.8,22-31.8,42.2-51,60.4c-12.9,12.3-26.5,23.7-40.9,34.1c-1.4,1-2.8,3.5-4.8,0.7c-1.2-9.3-0.4-18.6-0.5-27.9
		c-0.1-4.5-0.4-9-1.3-13.4c-2.9-14-15.3-24.2-29.6-24.2c-29.8,0-59.6,0-89.4,0c-13.9,0-25.8,9.3-29.4,22.6c-0.2,0.8-0.4,1.6-0.6,2.4
		c-1.4,5.2-2.5,5.8-7.4,3.4c-11.7-5.7-23.3-11.6-34.9-17.4c-3-1.5-6.1-3-9.5-2.6c-6.3,0.6-11,3.6-13.4,9.7
		c-1.4,3.5-1.6,7.1-1.6,10.8c0,19.6,0,39.3,0,58.9c0,1.8,0,3.7,0.2,5.5c1.6,12.3,11.9,18,23,12.6c9.2-4.4,18.2-9,27.3-13.6
		c2.1-1,4.2-2.1,6.3-3.1c7.6-3.7,8.1-3.5,10.6,4.7c4.5,14.8,15.7,23.1,31.2,23.1c27.5,0.1,55,0,82.4,0.1c2.6,0,5.4-0.7,7.6,1.5
		c-1.5,3.2-4.5,2.3-7,2.3c-17.5,0.1-34.9,0.1-52.4,0c-5.1,0-9.8,1-14.5,2.8c-32.8,12.5-66.6,20.9-101.5,24.3
		c-14.9,1.5-29.8,2.2-44.8,1.9C79.6,371.3,74.4,370.7,69.1,369.8z"/>
	<path display="inline" fill="#E56631" d="M334.9,288c18.6-13.8,36.5-28.6,52.7-45.1c15.8-16.1,30.1-33.4,42.6-52.2
		c1.1-1.6,1.7-3.6,3.7-4.6c4,17.2,4.8,34.6,3.7,52.1c-2.5,41.5-15.6,79.5-40.4,113c-37,50-86.5,79.7-148.2,86.3
		c-69.8,7.4-129.4-15.4-178.3-65.7c-0.6-0.6-1-1.3-1.5-2c1.9-1.5,4.2-1,6.2-0.7c20.6,2.2,40.9,0.4,61.4-1.9
		c33.8-3.8,66.3-12.4,97.8-24.8c2.5-1,5.1-1.3,7.8-1.3c19.1,0.1,38.2,0.1,57.4,0c1.8,0,3.7,0.6,5.2-0.8c0.7-1.3,2-1.7,3.3-2
		c17.7-5,25.1-17.3,25.3-35.4c0-3.2,0-6.3,0-9.5C333.7,291.3,333.4,289.4,334.9,288z"/>
	<path display="inline" fill="#FEFEFE" d="M334.9,288c-0.1,5.6-0.2,11.3-0.2,16.9c-0.1,19.2-9.8,30.7-29.7,35.2
		c-29.1,0-58.3-0.1-87.4-0.1c-20.1,0-31.2-8.6-35.9-28.2c-0.8-3.1-1.9-2.7-4-1.6c-12,6.1-24.1,12.1-36.2,18.1
		c-14.2,7-26.1-0.3-26.1-16.1c0-21.5,0.4-43-0.2-64.4c-0.4-15.1,13.3-24.1,26.9-16.4c12.4,7,25.5,12.9,38.3,19.3
		c1.4-1.8,1.2-3.7,1.6-5.4c2.9-14,15.3-25.3,29.6-25.4c30.8-0.4,61.6-0.4,92.4,0c17.4,0.3,30.4,15.1,30.7,33.7
		C334.8,265,334.8,276.5,334.9,288z"/>
	<path display="inline" fill="#FEFEFE" d="M209,104.5c20.5,0.8,36.3,9.7,46.9,27.4c1.8,3,2.8,3.4,5.8,1.5
		c20.2-12.7,45.8-7.5,59.4,11.7c13.3,18.9,9.6,44.9-8.4,59.2c-18.4,14.6-44,12.6-59.9-5c-2.6-2.8-3.7-3.2-6.7-0.3
		c-17.2,16.4-42.4,19.6-63.4,8.5c-20.4-10.9-32-34.2-28.3-56.6c4-23.5,21.9-41.7,45.1-45.6C202.6,104.8,205.8,104.8,209,104.5z"/>
	<path display="inline" fill="#E69C5B" d="M122,74.7c0.4,4.1-1.7,7.6-4.2,11.1c-8.4,11.6-19.1,21.2-27.6,32.6
		c-6.3,8.5-12,17.6-19.9,24.8c-1.3,1.2-2.8,2.4-4.3,3.4c-4,2.6-6.6,1.7-8.6-2.6c-4.2-9-2.1-17.6,1.7-25.9c8.8-19,23.1-33,41-43.5
		c3.9-2.3,7.6-4.8,11.6-6.7C119.1,64.4,122.1,66.4,122,74.7z"/>
	<path display="inline" fill="#E69C5B" d="M156,57.9c0.5,2.7-1.3,4.6-3.5,5.8c-4.2,2.2-8.3,4.8-13.1,5.8c-2.4,0.5-4.6,1.2-6.4-1
		c-1.7-2.2-1.5-4.8-0.5-7.1c2.7-6.6,11.1-11.3,18.2-10.3C154.4,51.6,156.2,53.9,156,57.9z"/>
	<path display="inline" fill="#E58131" d="M209.2,121.1c21.6,0.1,38.9,17.7,38.8,39.3c-0.1,21.5-17.7,38.8-39.4,38.7
		c-21.4-0.1-38.8-17.9-38.6-39.5C170.2,138.3,187.9,120.9,209.2,121.1z"/>
	<path display="inline" fill="#E58131" d="M287.7,202c-17.7-0.2-31.8-14.6-31.7-32.4c0.1-17.6,14.7-31.8,32.5-31.6
		c17.3,0.2,31.5,14.7,31.4,32.2C319.8,187.9,305.4,202.2,287.7,202z"/>
	<path display="inline" fill="#FEFEFE" d="M237.8,160.2c-0.1,15.8-13.5,29-29.2,28.7c-15.6-0.3-28.5-13.4-28.5-29
		c0.1-15.8,13.5-29,29.2-28.7C225,131.5,237.9,144.6,237.8,160.2z"/>
	<path display="inline" fill="#FEFEFE" d="M309.8,170.2c-0.1,11.9-10.4,21.9-22.2,21.7c-11.9-0.2-21.8-10.5-21.5-22.3
		c0.3-11.7,10.3-21.5,21.9-21.4C299.9,148.2,310,158.4,309.8,170.2z"/>
</g>
<g display="none">
	<path fill="#FEFEFE" d="M224.9,449.9c-73.6,0-147.3,0-220.9,0.1c-3.6,0-4-0.9-4-4.2C0.1,298.6,0.1,151.3,0,4c0-3.6,0.9-4,4.2-4
		C151.4,0.1,298.7,0.1,446,0c3.6,0,4,0.9,4,4.2c-0.1,147.3-0.1,294.5,0,441.8c0,3.6-0.9,4-4.2,4
		C372.2,449.9,298.6,449.9,224.9,449.9z"/>
	<path display="inline" fill="#666666" d="M69.1,369.9c-11.7-11.5-20.8-25-28.9-39.1c-21.6-38-31.4-79.2-26.8-122.5
		c9.5-88.7,55.9-151.6,139.7-182.5c74.5-27.5,144.8-14.1,206.9,35.5c39.2,31.3,63.1,72.8,73.7,121.9c0.2,1,0.1,2,0.1,3
		c-0.4,1.3-0.8,2.5-1.6,3.6c-9.7,14.5-20.4,28.3-32,41.3c-14.7,16.6-31,31.5-48.3,45.3c-1.9,1.5-4.1,4.5-6.2,0
		c-0.6-2.8-0.4-5.7-0.4-8.5c0-36-0.4-72,0.2-107.9c0.2-14.9-9.2-24.7-25.5-23.1c-1.7,0.2-4.3-0.2-4.1,2.4c0.1,2,2.4,2,4,2.1
		c2.3,0.3,4.7,0.1,7,0.2c7.9,0.3,13.6,5.5,14.4,13.2c0.5,5.1,0.3,10.3,0.1,15.5c-0.1,3.4-2,5.1-5.3,5.3c-2,0.1-4,0.1-6,0.1
		c-70.1,0-140.2,0-210.4,0c-11,0-11.2-0.2-11.2-11.1c0-2.3,0-4.7,0-7c0.3-10.4,5.8-16,16.3-16c28.1-0.1,56.3,0,84.4,0
		c28.3,0,56.6,0,84.9-0.1c2.7,0,7.4,1.2,7.3-2.6c-0.1-3.3-4.6-2-7.2-2c-55.6-0.1-111.3-0.1-166.9-0.1c-15,0-22.6,7.7-22.7,22.8
		c0,11.5,0,23,0,34.5c0,0.8-0.1,1.7,0,2.5c0.2,1.9-0.6,5,1.8,5c2.5,0.1,1.9-3,2-4.8c0.2-3.7,0.1-7.3,0.1-11c0-4.1,1.9-6.2,6-6.2
		c1.7,0,3.3-0.1,5-0.1c70.1,0,140.2,0,210.4,0c11.5,0,11.6,0.1,11.6,11.8c0,30.1,0,60.3,0,90.4c0,2.2,0.1,4.3-0.4,6.4
		c-0.4,0.8-1.2,2.5-1.7,1.8c-2.8-3.6-4.5-0.5-6.3,0.8c-15.9,11.2-32.4,21.3-49.5,30.6c-0.7,0.4-1.5,0.7-2.3,0.9
		c-1.7,0.3-3.3,0.3-5,0.3c-50.4,0-100.9,0-151.3,0c-10.7,0-16.2-5.6-16.5-16.3c0-1.8,0-3.7,0-5.5c0-25.3,0.1-50.6-0.1-75.9
		c0-2.9,1.5-7.9-2-8c-2.9-0.1-1.7,5-1.7,7.8c-0.1,26.5-0.1,52.9-0.1,79.4c0,1.7,0,3.3,0.1,5c0.8,10.3,7.9,17.2,18.2,17.4
		c15.1,0.2,30.3,0.1,45.4,0.1c30,0,59.9,0,89.9,0c2.6,0,5.3-0.3,7.9,0.8c2.5,3-0.8,3.3-2.1,4c-5.6,2.9-11.4,5.4-17.3,7.9
		c-35.8,15.1-72.9,25.6-111.5,30C113.3,371.4,91.2,372.9,69.1,369.9z"/>
	<path display="inline" fill="#3B3B3B" d="M69.1,369.9c2-1.8,4.5-1,6.7-0.8c17.4,1.9,34.7,0.5,52.1-1c32.6-2.7,64-10.5,94.7-21.2
		c15.2-5.3,30.1-11.4,44.4-18.8c2-2.1,4.6-1.6,7-1.6c17.8-0.1,35.6,0.1,53.4-0.1c10.2-0.1,17.9-8.1,18-18.1c0-1.2,0-2.3-0.3-3.5
		c-0.2-0.6-0.5-1.3-1.2-1.4c-1-0.2-1.5,0.4-1.9,1.3c-0.6,1.4-0.5,2.9-0.7,4.4c-1.4,8.7-6.5,13.2-15.2,13.3
		c-12.3,0.1-24.6,0.1-36.9,0c-2.1,0-4.4,0.3-6.1-1.4c4.8-4.4,10.9-6.6,16.4-9.9c13.3-8,26.2-16.5,38.8-25.6c1.6,1.3,0.1,3.5,1.7,4.5
		c5.1,1,5.5,0.6,5.8-4.6c0.2-2.5-0.9-5.3,1.4-7.4c8.1-4.9,14.9-11.5,21.9-17.7c24.5-21.6,45.7-46.1,63.6-73.4
		c0.3-0.4,0.8-0.6,1.2-0.9c3.9,16.8,4.8,33.9,3.8,51.1c-3.3,54.7-23.9,102-63.1,140.3C328.4,422.6,272.5,443,208,438
		c-54.2-4.2-99.8-27.1-137.3-66.2C70.1,371.2,69.6,370.5,69.1,369.9z"/>
	<path display="inline" fill="#FEFEFE" d="M347.1,278c-0.1,3.1-0.2,6.3-0.2,9.4c0,1.9-0.2,3.7-2.2,4.6c-2.4,1.1-3.7-0.4-4.9-2.1
		c0-35.1-0.1-70.3,0-105.4c0-3.3-1.2-3.8-4.1-3.8c-73.8,0.1-147.6,0.1-221.4,0c-3.6,0-4.5,1.2-4.3,4.6c0.3,4.8,0,9.7,0.1,14.5
		c0,2.6-0.7,4.9-3.6,4.9c-2.6,0-3.5-2.1-3.5-4.6c0-15.3-0.2-30.7,0.1-46c0.2-10.7,9.4-18.9,20.6-18.9c34.5-0.1,69,0,103.4,0
		c23.2,0,46.3,0,69.5,0c1,0,2,0.1,3,0c2.8-0.2,4.8,1.1,4.8,3.8c0,2.9-2.3,3.7-4.9,3.7c-1.5,0-3,0-4.5,0c-56.3,0-112.6,0-168.9,0
		c-11.7,0-16.1,4.3-16,15.8c0,4.8-1.6,11.2,0.8,14c2.8,3.3,9.4,1.1,14.3,1.1c69.6,0.1,139.3,0,208.9,0.2c4.5,0,6.2-1,5.7-5.7
		c-0.4-4.3,0-8.7-0.1-13c-0.3-7.2-5.3-12.1-12.5-12.3c-3.2-0.1-6.3,0-9.5-0.1c-2.6-0.1-4.9-0.9-4.7-3.9c0.1-2.6,2-3.7,4.5-3.6
		c4.5,0.2,9-0.6,13.4,0.5c10.1,2.6,15.8,10.1,15.8,20.9c0,38.6,0,77.3,0,115.9C346.9,274.4,347.1,276.2,347.1,278z"/>
	<path display="inline" fill="#FDFDFD" d="M283,321c14.8,0.1,29.6,0.2,44.4,0.1c7.1-0.1,12.1-5.2,12.5-12.3c0.1-1.3,0.1-2.7,0-4
		c0-2.4,1-4,3.4-4.1c2.4-0.1,3.4,1.4,3.7,3.8c1.7,13.4-7.1,23.4-20.6,23.4c-19.8,0-39.5,0.1-59.3,0.1c-48.1,0-96.2-0.1-144.3-0.1
		c-9.7,0-17.3-6-19.2-15.4c-0.4-1.9-0.4-4-0.4-6c0-29,0-57.9,0-86.9c0-0.8,0-1.7,0-2.5c0-2.3,1.2-4,3.4-4.1c2.3-0.1,3.5,1.6,3.6,3.9
		c0.1,1.3,0,2.7,0,4c0,28.1,0,56.3,0,84.4c0,11.3,4.4,15.8,15.5,15.8c51.8,0,103.5,0,155.3,0.1C281.6,321.2,282.3,321.1,283,321z"/>
	<path display="inline" fill="#989898" d="M122,74.8c0.4,4.3-1.8,7.7-4.3,11.1c-8.2,11.4-18.8,20.9-27.2,32.2
		c-6.4,8.6-12.1,17.8-20.2,25.1c-1.3,1.2-2.8,2.4-4.3,3.4c-4,2.6-6.5,1.7-8.6-2.7c-4.1-8.7-2.2-17.3,1.5-25.4
		c8.7-19.2,23-33.3,41-43.9c3.8-2.3,7.6-4.8,11.6-6.7C119.1,64.4,122.1,66.4,122,74.8z"/>
	<path display="inline" fill="#FDFDFD" d="M133.5,146.8c6.1,0,11.1,4.9,11.2,11c0.1,6.2-5.2,11.5-11.4,11.4c-6-0.1-11.1-5.3-11-11.3
		C122.4,151.8,127.5,146.8,133.5,146.8z"/>
	<path display="inline" fill="#FDFDFD" d="M149.6,158.2c-0.1-6.2,4.6-11.2,10.7-11.4c6.3-0.2,11.5,4.9,11.5,11.2
		c0,6-5.1,11.1-11.1,11.2C154.7,169.3,149.8,164.4,149.6,158.2z"/>
	<path display="inline" fill="#FDFDFD" d="M187.6,146.8c6.1-0.1,11.3,4.8,11.5,10.8c0.2,6.1-5.1,11.6-11.3,11.6
		c-6.1,0-11-4.9-11.1-11.1C176.7,151.9,181.5,146.9,187.6,146.8z"/>
	<path display="inline" fill="#989898" d="M149.1,51.1c3.2-0.5,5.8,1,6.7,4.2c0.9,3.2,0.3,6.5-3,8.2c-4.4,2.3-8.6,5-13.6,6
		c-2.4,0.5-4.6,1.1-6.3-1.1c-1.6-2.2-1.5-4.9-0.4-7.1C136,54.9,141.2,51,149.1,51.1z"/>
	<path display="inline" fill="#666666" d="M226.6,223.6c14.2,0.1,25.7,11.6,25.6,25.8c-0.1,14.6-11.6,25.7-26.2,25.6
		c-14.1-0.1-25.4-11.7-25.3-26.1C200.7,234.8,212.2,223.5,226.6,223.6z"/>
	<path display="inline" fill="#666666" d="M179.9,279.1c-15.7-6.3-29.1-15.8-40.5-28.2c-1.3-1.4-2.9-2.6-0.4-4.3
		c19.8-12.8,41.1-22.2,65.4-26.8c-16.7,16.1-19,33.2-6.7,52.2c-3.1,0.3-5.7-1-8.4-1.6c-5.5-1.3-7.5-0.1-8.4,5.6
		c0.4,1,1.7,1.8,0.7,3.1C181.2,279.7,180.5,279.4,179.9,279.1z"/>
	<path display="inline" fill="#666666" d="M254.5,272.7c12.5-21.6,11.5-31.8-5.2-52.4c12.3,2.4,23.7,6.3,34.8,11.1
		c8.9,3.8,17.3,8.5,25.5,13.6c2.2,1.3,3.1,2.1,0.3,4c-17,11.1-35,19.7-54.9,23.9C254.8,273,254.6,272.8,254.5,272.7z"/>
	<path display="inline" fill="#6B6B6B" d="M133.5,162c-2.5-0.3-4-1.7-3.9-4.2c0.1-2.4,1.6-3.9,4.2-3.8c2.4,0.1,3.6,1.7,3.7,3.8
		C137.6,160.3,136,161.7,133.5,162z"/>
	<path display="inline" fill="#6D6D6D" d="M160.9,162.1c-2.8-0.5-4.2-2-4-4.5c0.2-2.3,1.7-3.6,4.1-3.5c2.4,0.1,3.7,1.7,3.7,3.9
		C164.7,160.4,163,161.7,160.9,162.1z"/>
	<path display="inline" fill="#6B6B6B" d="M191.9,157.6c-0.3,2.5-1.5,4.2-4,4.3c-2.5,0-4-1.4-4-4c0-2.3,1.4-3.7,3.6-3.9
		C190.1,153.8,191.4,155.4,191.9,157.6z"/>
	<g display="inline">
		<path fill="#FFFFFF" d="M231.1,214.1c16.9-0.1,32.6,3,47.5,9.4c7.7,3.3,14.9,7.4,21.6,12.5c4.9,3.7,9.3,7.9,13.5,12.3
			c0.8,0.9,1.4,1.9,2.3,2.8c1,0.9,0.7,1.8-0.1,2.7c-4.7,5.5-9.8,10.5-15.5,14.8c-16.3,12.3-34.7,19-54.8,21.3
			c-16.9,2-33.5,0.5-49.8-4.5c-9.5-2.9-18.5-7-26.9-12.5c-6.1-4-11.8-8.5-16.8-13.8c-1.8-2-3.6-3.9-5.3-6c-0.7-0.8-0.3-0.9,0.1-1.5
			c3.7-4.7,7.9-8.8,12.4-12.6c6.9-5.8,14.5-10.5,22.7-14.3c10.3-4.8,21-7.8,32.2-9.4C220,214.4,225.8,214,231.1,214.1z M231.4,280.9
			c12.1,0,23.6-1.8,34.7-5.6c8.1-2.8,15.8-6.6,22.9-11.5c3.4-2.4,6.5-5.1,9.6-7.7c3.8-3.1,3.9-3.6,0.6-7c-0.1-0.1-0.1-0.2-0.2-0.3
			c-4.9-4.3-10-8.2-15.6-11.5c-11.3-6.6-23.4-10.7-36.3-12.5c-18.1-2.6-35.8-0.9-52.9,5.6c-12.6,4.8-23.8,11.7-33.1,21.5
			c-0.6,0.6-0.3,0.5,0.1,0.9c2.4,2.6,4.9,4.9,7.6,7.1c5.9,4.9,12.5,8.9,19.4,12C202.1,278,216.6,281,231.4,280.9z"/>
		<path fill="#FFFFFF" d="M231.6,271.6c-5.7,0.1-11-1.5-15.7-4.7c-2.9-2-5.2-4.7-6.7-8c-1.5-3.2-1.6-6.5-1.1-9.8
			c0.7-3.9,2.9-7.1,5.8-9.6c6.4-5.5,13.9-7.2,22.2-6c6.1,0.9,11.4,3.5,15.4,8.4c3.3,4.1,4.9,9,3.5,14.2c-1.4,5.1-4.6,9-9.1,11.7
			C241.5,270.4,236.7,271.7,231.6,271.6z"/>
	</g>
</g>
<g display="none">
	<path fill="#FEFEFE" d="M0,0c150,0,299.9,0,450,0c0,149.9,0,299.9,0,450c-149.9,0-300,0-450,0C0,300.1,0,150,0,0z"/>
	<path display="inline" fill="#7E3820" d="M69,370c-8-7.4-14.2-16.3-20.2-25.2c-17.4-25.6-28.4-53.8-33.5-84.3
		c-3.2-19.1-3.5-38.4-1.5-57.7c4.5-42.2,20.1-79.7,47.1-112.4c31.9-38.7,72.6-63.2,121.8-73.6c20.1-4.2,40.3-5.4,60.6-3.5
		c55.1,5.1,101.6,28.1,139.1,68.7c26.6,28.8,43.4,62.8,51.6,101.1c0.2,1,0.1,2,0.1,3c-2.1,6.7-7.1,11.6-11.1,17
		c-12.6,17.4-26.6,33.6-42.2,48.4c-9.5,9-19.4,17.7-29.7,25.8c-1.5,1.2-3.6,4.2-5.2-0.1c-0.6-2.8-0.4-5.7-0.4-8.5
		c0-36.3-0.3-72.7,0.1-109c0.2-15.2-9.4-24.2-25.1-23c-1.7,0.1-4.4-0.2-4.4,2.1c0,2.7,2.8,2.3,4.6,2.5c2.1,0.2,4.3,0.1,6.5,0.2
		c7.8,0.4,13.5,5.6,14.2,13.4c0.5,4.8,0.3,9.7,0.1,14.5c-0.2,4.1-2.4,6-6.4,6.2c-1.8,0.1-3.7,0.1-5.5,0.1c-69.8,0-139.7,0-209.5,0
		c-0.7,0,0.2,0-0.5,0c-10.4,0-11.2-0.8-11.2-11c0-2.7-0.1-5.3,0.1-8c0.5-9.5,6.1-14.9,15.6-15.2c2,0,4,0,6,0c54.2,0,108.3,0,162.5,0
		c2.2,0,4.3,0.1,6.5-0.3c1.3-0.2,2.8-0.6,2.7-2.3c-0.1-1.5-1.4-1.7-2.5-1.9c-1.5-0.3-3-0.3-4.5-0.3c-56,0-112-0.1-168,0
		c-14.4,0-22.1,7.9-22.2,22.4c0,11.8,0,23.7,0,35.5c0,1-0.1,2,0.1,3c0.2,1.5-0.4,4,1.8,4.1c2.2,0.1,1.8-2.4,1.9-3.9
		c0.3-4.2,0-8.3,0.2-12.5c0.1-3.6,1.9-5.5,5.5-5.6c1.8-0.1,3.7-0.1,5.5-0.1c70.2,0,140.3,0,210.5,0c11.5,0,11.6,0.1,11.6,11.8
		c0,29.7,0,59.3,0,89c0,2.7,0.2,5.3-0.4,8c-0.4,0.8-1.2,2.5-1.7,1.8c-2.8-3.7-4.5-0.5-6.3,0.8c-16,11.1-32.5,21.3-49.5,30.6
		c-0.7,0.4-1.5,0.7-2.3,0.9c-1.8,0.4-3.7,0.3-5.5,0.3c-50.1,0-100.3,0-150.4,0.1c-6.1,0-11.1-1.4-14.5-6.9
		c-2.2-3.6-2.4-7.5-2.4-11.6c0-26.5,0-53,0-79.5c0-1.8,0.1-3.7-0.2-5.5c-0.2-1.2,0-3-1.9-2.9c-1.5,0.1-1.4,1.6-1.6,2.7
		c-0.2,1-0.2,2-0.2,3c0,28.3,0,56.6,0,85c0,5.2,1.5,9.8,5,13.7c3.9,4.3,8.7,5.7,14.3,5.7c18.7-0.1,37.3,0,56,0c26.1,0,52.3,0,78.4,0
		c2.6,0,5.3-0.3,7.9,0.8c2.3,2.6-0.7,3-1.8,3.7c-5.7,3.4-12,5.7-18.2,8.3c-32.8,13.9-66.8,23.8-102.1,28.7
		c-20.6,2.9-41.4,4.3-62.2,3.4C77.6,371.3,73.3,370.8,69,370z"/>
	<path display="inline" fill="#6A0020" d="M69,370c2.4-1.7,5.2-1,7.7-0.7c12.2,1.4,24.5,1.4,36.7,0c4.8-0.5,9.5-0.4,14.4-0.9
		c7.8-0.9,15.7-1.8,23.5-3c9.3-1.4,18.5-3.2,27.6-5.3c21.8-5.2,43.2-12.1,63.9-20.8c8.2-3.4,16.4-6.8,24.3-11
		c2.1-2.3,4.9-1.6,7.5-1.6c17.6-0.1,35.2,0.1,52.9-0.1c9.8-0.1,17.4-7.4,18-17c0.1-1.2,0.1-2.3-0.1-3.5c-0.2-1.1-0.4-2.5-2-2.4
		c-1.3,0.1-1.4,1.3-1.6,2.2c-0.3,1.3-0.2,2.6-0.4,4c-1.2,7.6-6.6,12.5-14.3,12.7c-13,0.2-25.9,0.1-38.9,0c-1.8,0-3.7,0.1-5.1-1.4
		c1.8-3.1,5.4-3.8,8.1-5.3c11.5-6.4,22.6-13.3,33.5-20.8c4.6-3.2,9.2-6.3,13.8-9.4c1.3,1.3-0.3,3.4,1.4,4.5c5.1,1.2,5.6,0.8,5.9-4.4
		c0.1-2.2-0.6-4.7,1.4-6.5c9-7.8,18.3-15.2,27-23.3c5.2-4.8,10.5-9.6,15.4-14.8c8.4-8.9,16.5-18,24.1-27.6
		c5.6-7.1,10.5-14.8,16.4-21.7c1.5-1.8,1.5-4.5,4-5.5c1.9,5.6,2.3,11.4,2.9,17.2c6.1,69.1-15,128.4-64.7,176.9
		c-31.5,30.7-69.3,49.8-112.9,56.2c-74.1,10.8-137.2-11.5-189.3-65.1C69.6,370.8,69.3,370.4,69,370z"/>
	<path display="inline" fill="#FEFDFD" d="M347.2,279.1c-0.1,2.8-0.2,5.5-0.1,8.3c0,2.1-0.1,4-2.3,4.9c-2.4,1-3.6-0.6-4.8-2.2
		c0-35.2,0-70.3,0.1-105.5c0-2.7-0.5-4.2-3.5-3.7c-0.8,0.1-1.7,0-2.5,0c-72.7,0-145.3,0-218,0c-6.8,0-5.8-0.7-5.9,5.8
		c0,4.3,0,8.7,0,13c0,3.3-1.3,5.1-3.4,5.2c-2.2,0.1-3.6-1.6-3.6-4.9c0-15.2-0.2-30.3,0.1-45.5c0.1-10.1,8.8-18.6,18.9-19.2
		c1.7-0.1,3.3,0,5,0c56.7,0,113.3,0,170,0c1.5,0,3-0.1,4.5,0.1c2,0.4,3.2,1.9,3.2,3.9c0,1.8-1.3,3.1-3.2,3.4c-1.6,0.2-3.3,0.2-5,0.2
		c-56.5,0-113,0.2-169.5-0.2c-12.8-0.1-17.9,6.6-17,17.1c0.3,3.1,0,6.3,0,9.5c0,4.5,0,4.5,4.7,4.5c0.5,0,1,0,1.5,0
		c72.5,0,145,0,217.5,0c1,0,2-0.1,3,0c2.4,0.2,3.2-0.8,3.1-3.2c-0.1-5.2,0.1-10.3-0.1-15.5c-0.3-7.1-5.4-12-12.5-12.3
		c-3-0.1-6,0-9-0.1c-3.6-0.1-5.4-1.5-5.3-3.9c0.1-2.2,1.9-3.5,5.1-3.6c4,0,8.1-0.3,12,0.3c10.2,1.7,16.8,9.9,16.8,20.5
		c0,39.3,0,78.7,0,118C347,275.8,347.1,277.4,347.2,279.1z"/>
	<path display="inline" fill="#FDFDFD" d="M283,321.1c15,0.1,29.9,0.3,44.9,0.1c6.5-0.1,11.4-5.2,12-11.8c0.1-1.7,0-3.3,0.1-5
		c0.1-2.2,1.2-3.5,3.4-3.5c2.2-0.1,3.5,1.2,3.6,3.3c0.6,7.1-0.6,13.6-6,18.8c-3.5,3.3-7.5,5.2-12.5,5.2c-18.6-0.1-37.3,0-55.9,0
		c-1.8,0-3.7,0.1-5.5,0.1c-1.8,0-3.7-0.1-5.5-0.1c-46.1,0-92.3-0.3-138.4,0.2c-10.7,0.1-20.3-9.2-20.2-20.2
		c0.2-29.7,0.1-59.3,0.1-89c0-4.1,1.2-6.1,3.4-6.2c2.4-0.1,3.6,2.1,3.6,6.5c0,29,0,58,0,87c0,2.2-0.1,4.3,0.8,6.4
		c2,5.1,5.7,8.1,11.3,8.4c1.3,0.1,2.7,0,4,0c51.3,0,102.6,0,153.9,0C281.1,321.3,282.1,321.2,283,321.1z"/>
	<path display="inline" fill="#FEFEFE" d="M122,74.5c0.6,4-1.3,7.6-3.9,10.8c-6.2,7.7-12.3,15.4-19.2,22.5
		c-5.7,5.8-10.2,12.7-15,19.3c-5.3,7.3-10.5,14.7-18.2,19.8c-3.6,2.4-5.6,1.6-7.8-2.2c-3.6-6.3-3.4-12.9-1.5-19.4
		c2.7-9.1,7.4-17.2,13.3-24.6c7.3-9.2,15.9-17.1,25.7-23.4c5.8-3.7,11.6-7.8,18.2-10.2c5.6-2,8.3,0.1,8.3,6.1
		C122,73.4,122,73.8,122,74.5z"/>
	<path fill="#FDFCFC" d="M188.1,291.8c-1.7,2-2,4.2-3,6c-2.1,4-5.7,5.6-9.5,4c-3.7-1.6-5.3-5.4-3.7-9.6c1.3-3.4,2.6-6.9,4.2-10.1
		c1.1-2.3,1.2-4.2-0.1-6.5c-3.6-6.5-5.6-13.6-6.2-20.9c-1.1-15.5,3.6-29.4,14.1-40.8c15.1-16.4,33.9-22.8,55.6-16.6
		c21.7,6.2,34.7,21.2,39.6,43.3c6.8,30.3-18.2,67.8-58.7,65.3C209.9,305.2,199.4,300.6,188.1,291.8z"/>
	<path display="inline" fill="#FDFDFD" d="M160.8,146.8c6.1,0,11.1,5,11.1,11.1c0,6.2-5.3,11.5-11.5,11.3c-6-0.2-11-5.4-10.9-11.4
		C149.6,151.7,154.7,146.8,160.8,146.8z"/>
	<path display="inline" fill="#FDFCFC" d="M133.4,146.8c6.1-0.1,11.2,4.8,11.4,10.9c0.2,6.1-5.2,11.6-11.4,11.5
		c-6-0.1-11.1-5.2-11.2-11.2C122.3,152,127.4,146.9,133.4,146.8z"/>
	<path display="inline" fill="#FDFDFD" d="M188.1,146.8c6.1,0.1,11.1,5.3,11,11.3c-0.1,6.1-5.6,11.4-11.7,11.1
		c-6-0.2-10.8-5.4-10.7-11.5C176.9,151.5,182,146.7,188.1,146.8z"/>
	<path display="inline" fill="#FEFEFE" d="M149.2,51c3.2,0,6,1.7,6.8,3.9c0.9,2.8-0.2,6.7-2.8,8.4c-4.8,3.1-9.9,5.6-15.6,6.7
		c-1.9,0.3-3.7,0.1-4.8-1.8c-1.3-2.3-1.3-4.9-0.2-7.1C135.6,54.7,142,51,149.2,51z"/>
	<path fill="#7E3820" d="M216.9,244.2c0,2.6,0,5.1,0,7.7c-0.9,11.6-10.1,17.8-22.9,15.2c-4.3-1.4-8.2-3.5-11.2-7
		c-5.9-3.6-5.4-9.8-4.7-15.1c1.2-8.6,6.7-14.3,15.2-16.6c7.9-2.1,14.2,0.8,19.7,6.4C215.7,237.5,216.7,240.7,216.9,244.2z"/>
	<path fill="#7E3921" d="M250.9,253c0.2-1.5,1.2-1.7,2.5-1.7c6.8,0,13.7,0,20.5,0c2.2,0,2.7,0.8,2.5,3c-0.5,8.1-3,15.6-7,22.7
		c-1,1.7-2.1,2.8-4.3,2.8c-5.8-0.1-11.6,0-17.7,0c0.2-3.7,1.9-6.9,1.8-10.4C249.4,263.9,248.7,258.3,250.9,253z"/>
	<path fill="#7E3921" d="M250.1,234.1c-0.9-4-1.9-8.1-3-12.8c6.5,0,12.7,0,18.9,0c1.4,0,2.1,0.8,2.7,1.8c4.6,7.5,7.3,15.6,7.7,24.5
		c0.1,1.6-0.5,2.2-1.9,2.2c-7.2,0-14.3,0-21.5,0c-1.4,0-2.2-0.6-2.1-2.1c0-2.2,0-4.3,0-6.5C249.9,239,251.2,236.4,250.1,234.1z"/>
	<path fill="#7E3921" d="M226.4,221.2c5.3,0,10.6,0.1,15.9,0c2.2-0.1,3.3,0.7,3.8,2.9c1.8,7.4,3,14.9,3.1,22.6
		c0,1.9-0.2,3.2-2.6,3.1c-6.5-0.1-12.9,0-19.4-0.1c-0.4,0-0.8-0.4-1.3-0.7c-1.3-1.5-1.3-3.3-1.3-5.2c0-5.8-0.1-11.5,0-17.3
		C224.7,224.7,224.5,222.6,226.4,221.2z"/>
	<path fill="#7E3921" d="M226.4,251.3c7.4,0,14.9,0,22.3,0c2.7,5.4,1.4,10.6-0.5,15.9c-0.7,3.2-1.4,6.5-2.1,9.7
		c-0.3,1.3-0.6,2.8-2.3,2.8c-5.9-0.2-11.9,0.8-17.8-0.5c-1.2-1.3-1.3-3-1.3-4.6c0-6.1-0.1-12.2,0-18.3
		C224.7,254.4,224.6,252.5,226.4,251.3z"/>
	<path fill="#7E3921" d="M224.1,279.1c-5.9,1.3-11.8,0.3-17.7,0.6c-1.7,0.1-2.1-1.3-2.5-2.6c-3.8-5.8-3.3-8,2.8-10.9
		c5.5-2.5,8.4-7.3,11.1-12.3c0.6-3.8,3.6-2.4,5.8-2.7c0.3,0.2,0.7,0.4,0.7,0.7C225.2,261,225.8,270.1,224.1,279.1z"/>
	<path fill="#7F3922" d="M203.9,224c0.3-2.3,1.8-2.8,3.9-2.8c5.3,0.1,10.6,0,15.9,0c0.3,0.2,0.7,0.4,0.7,0.7
		c0.8,9.1,1.4,18.1-0.3,27.2c-4.7,1.2-4.6,1.2-5.4-3.2c-0.2-1.3-0.6-2.5-0.9-3.8c-3.5-5.6-7.2-10.9-13.9-13.3
		C201.4,227.9,202.3,225.7,203.9,224z"/>
	<path fill="#7F3922" d="M205.4,281.3c6,0,11.1,0,16.2,0c1.5,0,2.6,0.2,2.6,2.1c0,5.6,0,11.3,0,16.9c0,1.5-0.7,1.9-2.1,1.9
		c-2,0-3.6-0.8-5-1.9C211.2,295.5,207.9,289.2,205.4,281.3z"/>
	<path fill="#7F3A22" d="M217.3,200.3c2.1-1,4.2-2,6.7-1.2c2,7,2.8,13.9-0.4,20.8c-5.8,0-11.5,0-17.3,0.1c-1.2-0.5-1.3-1.8-1-2.5
		C207.6,210.5,209.9,203.5,217.3,200.3z"/>
	<path fill="#7F3922" d="M237.3,296.2c-2.1,2.1-4,4.5-6.8,5.7c-3.2,1.3-4.5,0.4-4.5-3c0-4.6,0.1-9.3-0.1-13.9
		c-0.1-2.7,0.6-3.8,3.5-3.7c4.8,0.2,9.6,0,14.4,0C245.2,286.2,242.5,292.5,237.3,296.2z"/>
	<path fill="#7F3B23" d="M237,199.9c13.8,4.4,23.3,10.8,28.9,19.7c-6.3,0-12.4,0-18.4,0c-0.9,0-1.4-0.7-1.8-1.5
		c-3.9-5.1-5.8-11.3-10.3-16C234.2,200.9,234.3,199.1,237,199.9z"/>
	<path fill="#7F3A23" d="M245.8,283c0.7-1.8,2.2-1.7,3.7-1.7c5.3,0,10.6,0,16.8,0c-8,11-18.4,17.1-31.1,20.3
		c0.2-2.1,2.4-2.7,2.9-4.3C240.9,292.6,243,287.6,245.8,283z"/>
	<path fill="#7F3A23" d="M204.2,218.1c-0.6,1.5-1.9,1.7-3.3,1.7c-5.5,0-10.9,0-17.2,0c7.7-10.6,17.6-16.6,29.4-19.8
		c2.2,0.3,1.2,1.7,0.6,2.4C209.4,207,207.5,213,204.2,218.1z"/>
	<path fill="#803B24" d="M176.7,249.9c-2.5,0.2-3.6-0.6-3.3-3.4c0.9-8,3.1-15.5,7.2-22.5c0.9-1.5,1.6-2.8,3.7-2.7
		c5.6,0.1,11.3,0,16.9,0c1,0,1.4,0.6,1.6,1.5c0.1,3.3-1,5.1-4.8,5.3c-12.6,0.8-18.7,9-20.1,18.8
		C177.9,248.1,178.1,249.3,176.7,249.9z"/>
	<path fill="#7F3A22" d="M243.7,219.9c-0.8,0-1.6,0-2.4,0c-4.1-0.8-8.3-0.2-12.4-0.4c-1.7-0.1-3.7,0-3.7-2.3
		c0.1-6.1-1.2-12.2,0.8-18.2c2.5-0.8,4.6,0.2,6.7,1.2c6.8,3.9,9.6,10.6,11.8,17.6C244.7,218.5,244.7,219.5,243.7,219.9z"/>
	<path fill="#7F3A22" d="M187.2,266.3c1.9,0.8,3.7,1.4,5.3,2.2c1,0.5,0.6,1.4,0.3,2.2c-3.6,8.6-7.2,17.2-10.8,25.7
		c-0.9,2.1-2.4,3.2-4.8,2.4c-2.2-0.7-3.1-2.7-2.1-5.3c3.5-8.6,7.1-17.2,10.7-25.8C186.1,266.9,186.4,266.1,187.2,266.3z"/>
	<path fill="#7F3A23" d="M214.4,300.8c-9-1.3-16.6-5.4-23.4-11.2c-1.3-1.1-1.9-2.3-0.8-3.9c1.1-1.6,0.7-4.6,3.8-4.5
		c0.2,0,0.3,0,0.5,0c8.2-0.5,8.2-0.6,11.6,6.9C208.2,292.8,210.9,296.9,214.4,300.8z"/>
	<path fill="#ECE2DE" d="M176.7,249.9c0.4-2.4,0.6-4.9,1.3-7.3c2.4-8.6,9.9-15.1,18.7-15.2c3.8-0.1,5.2-1.6,6.2-4.6
		c0.3,0.4,0.7,0.8,1,1.2c-0.5,2.3-0.7,4,2.3,5.1c6,2.2,9.9,6.8,11.6,13c-0.9,0.5-0.7,1.4-0.9,2.1c-1.4-2.8-2.3-5.8-4.3-8.3
		c-6.2-7.3-16.5-8.9-24.7-3.8c-7.9,4.9-11,15.3-7,24c0.6,1.3,1.4,2.6,2.1,3.9c-0.3,0.3-0.6,0.7-0.9,1c-5-1.6-4.7-6-5.2-10
		C177.8,250.7,177.7,250.3,176.7,249.9z"/>
	<path fill="#823F28" d="M176.8,251.2c1.9,3.2,1.9,7.4,5.2,10c1.3,1.6,2.2,3,0.9,5.2c-1.3,2.2-2.2,4.8-3.4,7.5
		c-2.6-2.8-3.4-6.3-4.3-9.7c-0.8-3-1.1-6.1-1.7-9.2C172.9,252.2,174,251,176.8,251.2z"/>
	<path fill="#86452F" d="M202.9,278.4c-2.9,3-6.3,0.8-10.2,1.3c1.6-3.9,3-7.2,4.4-10.5c3-1.9,4.3,0,4.8,2.5
		C202.3,273.9,202.9,276.1,202.9,278.4z"/>
	<path fill="#EADFDB" d="M202.9,278.4c-1.1-2-1.7-4.1-1.9-6.4c-0.2-2.7-1.6-3.2-3.9-2.8c-0.4-1.6-2.5-0.6-3.1-2
		c2.8-0.2,5.7,0.3,8.4-0.4c6.3-1.7,10.8-5.6,13.3-11.6c0.4-1.1,0.3-2.3,1.2-3.2c0.2,0.7,0,1.6,0.9,2c-1.6,6.9-6.1,11.3-12.4,13.8
		c-2.6,1-3.4,2-2.5,4.5c0.5,1.5,0.6,3.2,0.9,4.8C203.5,277.5,203.2,277.9,202.9,278.4z"/>
	<path fill="#E7DBD7" d="M226,199.1c0,5.8,0.1,11.5,0,17.3c-0.1,2.3,0.7,3.1,3.1,3.1c4.1,0,8.2-0.7,12.2,0.5
		c-5.9,0.4-11.8,0.4-17.7-0.1c0.9-6.9,0.2-13.9,0.4-20.8C224.7,199.1,225.4,199.1,226,199.1z"/>
	<path fill="#E7DBD7" d="M224.1,249.1c0-7.5,0-14.9-0.1-22.4c0-1.8-0.2-3.6-0.3-5.4c0.9,0,1.8,0,2.7,0c-0.7,7.5-0.1,14.9-0.3,22.4
		c0,1.8-0.1,3.6-0.1,5.5C225.3,249.1,224.7,249.1,224.1,249.1z"/>
	<path fill="#E7DBD7" d="M224.1,279.1c-0.4-9.3,0.4-18.6-0.4-27.8c0.9,0,1.8,0,2.7,0c-0.8,9.3,0,18.6-0.4,27.8
		C225.4,279.1,224.7,279.1,224.1,279.1z"/>
	<path fill="#E9DEDA" d="M204.2,218.1c1.6-6.1,4.7-11.4,8.8-16.1c0.5-0.6,1.8-1.3,0.1-2.1c1.6-2.1,2.9,0,4.3,0.3
		c-4.6,4.4-8.1,9.5-10.5,15.4c-0.5,1.4-1.4,2.7-0.5,4.2C204.9,220.2,205.2,218.4,204.2,218.1z"/>
	<path fill="#E8DCD8" d="M243.7,219.9c-0.1-6.5-3.9-11.3-7.6-16c-1-1.3-2.2-2.4-3.4-3.6c1.4-0.4,2.7-2.4,4.3-0.3
		c-1.2,0.1-1.9,0.4-0.7,1.6c3.1,3,5.3,6.7,7.2,10.6c0.9,1.9,1.8,3.9,2.2,6C244.9,218.5,245.2,220.2,243.7,219.9z"/>
	<path fill="#E2D3CE" d="M248.2,267.1c0.1-5.3,1.7-10.5,0.5-15.9c1.4-0.3,1.2,1.4,2.2,1.7c0.4,5.5-0.1,11-1.7,16.4
		C248.9,268.6,249.2,267.6,248.2,267.1z"/>
	<path fill="#E6D9D5" d="M245.8,283c-1.6,5.3-3.7,10.2-7.7,14.2c-0.3-0.3-0.5-0.7-0.8-1c2.3-3.8,4.7-7.5,6.2-11.7
		c0.4-1.1,0.9-2.1,0.4-3.3C245.2,281,244.9,282.6,245.8,283z"/>
	<path fill="#7E3921" d="M250.1,234.1c1.8,2.2,0.6,4.8,0.8,7.2C250,239,250.2,236.5,250.1,234.1z"/>
	<path display="inline" fill="#83412A" d="M164.8,157.8c0.1,2.1-1.8,4.2-4,4.1c-2.3,0-3.7-1.3-4-3.6c-0.3-2.2,1.4-4.2,3.6-4.4
		C162.5,153.8,164.7,155.7,164.8,157.8z"/>
	<path display="inline" fill="#823F28" d="M133.6,154c2.2,0,4.2,2,4,4.1c-0.2,2.2-1.5,3.6-3.8,3.8c-2.2,0.2-4.2-1.7-4.3-3.9
		C129.4,155.9,131.4,154,133.6,154z"/>
	<path display="inline" fill="#834029" d="M187.8,154c2.2-0.1,4.2,1.9,4.1,4.1c-0.1,2.3-1.5,3.6-3.7,3.9c-2.2,0.3-4.2-1.5-4.3-3.8
		C183.8,155.9,185.6,154,187.8,154z"/>
	<g display="inline">
		<path fill="#FFFFFF" d="M280.5,266.4c-3.8-2.4-3.8-2.6-3.1-6.3c0.4-2.3,0.7-4.6,1-7.3c-3.4,0-6.7-0.1-9.9,0
			c-2.2,0.1-3.8-0.6-5.4-2.1c-2.4-2.2-3.7-4.4-4-7.8c-0.4-4.8-1.7-9.4-2.8-14.1c-0.1-0.6-0.9-1.6-1.4-1.6
			c-6.9-0.1-13.7-0.1-20.8-0.1c0,7,0,13.8,0,20.9c3.7,0,7.5,0,11.4,0c0,1.7,0,3.1,0,4.7c-3.8,0-7.6,0-11.4,0c0,7.1,0,13.9,0,21
			c2.9,0,5.8,0,8.6,0c3,0,3,0,2.9,3.1c0,0.4-0.1,0.9-0.2,1.6c-3.8,0-7.5,0-11.4,0c0,6.2,0,12.1,0,18.3c4.5-0.4,7.9-2.8,11.5-5.8
			c0,3,0.1,5.5-0.1,8c0,0.5-1.2,1.2-1.9,1.3c-16.4,3.7-31.3,0.5-44.4-10c-17.2-13.7-23.6-36.6-16.1-57.3
			c7.3-20.4,27.1-34.1,48.9-33.9c34.1,0.3,58.5,33.1,49,65.6C280.9,265.2,280.7,265.7,280.5,266.4z M229.3,227.1
			c-7.1,0-13.9,0-20.7,0.1c-0.6,0-1.5,0.9-1.7,1.6c-1,4.2-2,8.5-2.8,12.8c-0.4,2.1-0.4,4.3-0.5,6.6c8.4,0,16.4,0,24.3-0.1
			c0.5,0,1.3-0.8,1.3-1.3C229.3,240.3,229.3,233.9,229.3,227.1z M229.1,273.7c0-7.1,0-14,0-20.8c-8.6,0-16.9,0-25.9,0
			c0.9,5.5,1.7,10.8,2.8,15.9c1,4.8,1.2,4.8,6.1,4.8C217.7,273.7,223.4,273.7,229.1,273.7z M278.4,248c-0.5-7.3-2.3-13.9-5.8-20
			c-0.2-0.4-0.8-0.9-1.2-0.9c-3.4-0.1-6.9,0-10.1,0c1.2,7,2.3,13.9,3.5,20.9C269.1,248,273.6,248,278.4,248z M201.7,227.1
			c-2.7,0-5.7,0.1-8.7,0c-1.4-0.1-2.3,0.4-2.8,1.7c-1.6,4.5-3.2,9-4.6,13.6c-0.5,1.7-0.5,3.6-0.7,5.7c4.5,0,8.6,0,12.8-0.1
			c0.5,0,1.2-0.8,1.3-1.3C199.9,240.3,200.8,233.8,201.7,227.1z M201.9,273.7c-1.1-7-2.3-13.8-3.4-20.7c-4.3,0-8.8,0-13.4,0
			c-0.2,5.5,2.5,15.4,5.5,19.8c0.3,0.4,0.8,0.9,1.2,0.9C195.2,273.7,198.7,273.7,201.9,273.7z M229.1,222.3c0-6.1,0-12.2,0-18.2
			c-8.2,0.6-17.6,11.1-19.3,18.2C216.2,222.3,222.6,222.3,229.1,222.3z M234.1,204.2c0,6,0,12,0,18.1c6.6,0,13,0,19.5,0
			C251,214,242.1,204.5,234.1,204.2z M229.2,296.6c0-6,0-12,0-17.9c-0.6-0.1-1-0.2-1.4-0.2c-6,0-12,0-18.1,0
			C212.3,287,221.8,296.5,229.2,296.6z M269.1,222.5c-5.3-6.8-11.3-11.6-18.3-14.5c2.6,4.4,5.2,9,7.9,13.6c0.3,0.5,1,0.9,1.5,0.9
			C263,222.5,265.7,222.5,269.1,222.5z M212.3,208c-6.9,3-12.9,7.8-18.1,14.5c3.4,0,6.1,0,8.9,0c0.5,0,1.1-0.5,1.4-0.9
			C207.2,217,209.8,212.4,212.3,208z M212.4,292.9c-2.5-4.4-5.2-8.9-7.8-13.5c-0.2-0.4-0.6-0.8-0.9-0.8c-2.9-0.1-5.9,0-9.3,0
			C199.6,285.2,205.6,289.9,212.4,292.9z"/>
		<path fill="#FFFFFF" d="M276.9,288c1.9,4.2,3.7,8.1,5.4,11.9c1.4,3,1.1,3.8-2,5.2c-2.3,1-4.5,2.1-6.8,3.1c-2.2,1-3.1,0.7-4.1-1.5
			c-1.8-3.9-3.6-7.8-5.6-12c-2.2,2.2-4.2,4.3-6.4,6.2c-0.8,0.7-2.4,1.5-3,1.1c-0.9-0.4-1.6-1.9-1.6-3c-0.1-14.3-0.1-28.6,0-42.9
			c0-1,0.6-2.6,1.4-2.9c0.8-0.4,2.4,0.2,3.1,0.9c10.6,9.8,21.1,19.6,31.6,29.5c0.7,0.6,1.3,2.2,1,2.8c-0.4,0.8-1.8,1.5-2.8,1.6
			C283.8,288.2,280.6,288,276.9,288z M277.7,301.1c-2.1-4.6-4.1-8.9-6.1-13.2c-1.4-3.1-0.5-4.5,3-4.5c2.2,0,4.4,0,7.3,0
			c-8.4-7.8-16.2-15.1-24.2-22.6c0,11.3,0,22.1,0,32.9c0.2,0.1,0.3,0.2,0.5,0.3c1.2-1.3,2.3-2.6,3.5-3.8c2.7-2.8,3.9-2.5,5.6,1
			c1.9,4,3.7,8,5.7,12.1C274.6,302.5,276,301.9,277.7,301.1z"/>
	</g>
</g>
<g display="none">
	<path fill="#FEFEFE" d="M225,449.9c-73.6,0-147.2,0-220.8,0.1C1,450,0,449.6,0,446C0.1,298.6,0.1,151.2,0,3.8C0,0.7,0.8,0,3.9,0
		c147.4,0.1,294.8,0.1,442.2,0c3.7,0,3.9,1.1,3.9,4.3c-0.1,147.2-0.1,294.5,0,441.7c0,3.5-0.7,4.1-4.1,4.1
		C372.3,449.9,298.7,449.9,225,449.9z"/>
	<path display="inline" fill="#F1C572" d="M69.1,369.8c-10.7-10.4-19.1-22.6-26.7-35.3c-15-25-24.7-52-28-80.9
		c-6.7-57.5,6.1-110.2,41.3-156.6c34-44.8,79.1-72.6,134.5-81.5c61.7-9.9,118,4.4,167.2,43.4c38.6,30.6,63.4,70.3,75,118.2
		c0.7,2.9,1,5.9,1.5,8.8c-4,8.8-10.2,16.3-16,23.9c-11.4,14.9-23.9,28.9-37.6,41.8c-9.2,8.6-18.5,17.1-28.6,24.7
		c-1.5,1.1-3.4,3.6-4.9-0.2c-0.6-2.8-0.4-5.7-0.4-8.5c0-45.1-0.5-90.3,0.2-135.4c0.3-15.9-13.2-29.1-28.7-28.9
		c-62,0.6-123.9,0.6-185.9,0c-15.5-0.1-28.8,13.1-28.6,28.5c0.6,62.1,0.3,124.3,0.2,186.4c0,11.5,4.8,19.8,14.6,25.4
		c3.9,2.2,8.1,2.7,12.5,2.7c26.3,0,52.6,0,79,0c2.6,0,5.4-0.4,7.8,1c1,3.2-1.8,3.2-3.5,3.9c-8.7,3.3-17.7,5.9-26.7,8.1
		c-23.1,5.8-46.5,9.8-70.4,11.2c-14.6,0.9-29.2,1.3-43.8-0.1C71.7,370.4,70.4,370.1,69.1,369.8z"/>
	<path display="inline" fill="#DEAD66" d="M69.1,369.8c1.7-1.6,3.9-1.1,5.7-0.8c11.6,1.9,23.3,1.3,34.8,0.7c23.6-1.3,47-4.3,70-10.1
		c13-3.3,26-6.5,38.4-11.6c2.3-2.3,5.3-1.6,8-1.6c31.2-0.1,62.5-0.1,93.7,0c11.9,0,19.6-6.2,24.7-16.3c1.6-3.2,1.9-6.7,1.9-10.2
		c0-11.6,0-23.3,0-34.9c0-2.4-0.5-5.1,1.6-7c13.8-11.2,27.3-22.7,39.8-35.4c15.6-15.9,29.8-33,42.1-51.6c1.2-1.8,1.9-3.9,3.9-5
		c2.6,10,3.5,20.3,3.9,30.6c1.9,54.6-14.1,103.5-49.1,145.6c-33.5,40.3-76.5,65-128.3,73.7c-45.8,7.7-89.5,0.8-130.9-20
		C106.5,404.3,86.2,389.2,69.1,369.8z"/>
	<path display="inline" fill="#FEFEFE" d="M348,278c-0.1,14.1-0.1,28.3-0.2,42.4c-0.1,15.5-12,27.4-27.5,27.5
		c-34.1,0.1-68.2,0.1-102.3,0.2c-29.1-0.1-58.3-0.6-87.4,0.1c-14.2,0.3-28.8-13-28.7-28.8c0.5-63,0.5-125.9,0-188.9
		c-0.1-14.5,13.9-28.6,28.5-28.5c63.1,0.5,126.3,0.2,189.4,0.2c16.2,0,28.1,11.8,28.1,28c0,47.1,0,94.3,0,141.4
		C347.9,273.7,348,275.8,348,278z"/>
	<path display="inline" fill="#FCE391" d="M122,74.8c0.4,4.2-1.8,7.7-4.3,11.1c-8.3,11.5-18.8,21-27.3,32.3
		c-6.4,8.5-11.9,17.6-19.8,24.8c-1.1,1-2.1,2.1-3.4,3c-5.1,3.6-7.8,2.6-10.2-3.1c-3.7-8.6-1.5-16.7,2-24.5
		C67.7,99.3,82,85.3,99.8,74.7c4-2.4,7.9-5,12.1-6.9C119,64.4,122.1,66.6,122,74.8z"/>
	<path display="inline" fill="#FCE391" d="M149.4,51.1c3.1-0.5,5.5,1.1,6.4,4c1.1,3.4,0.4,6.8-3.1,8.6c-4.2,2.2-8.3,4.8-13.1,5.8
		c-2.6,0.5-5.1,1.3-6.7-1.3c-1.5-2.4-1.3-5,0.1-7.5C136.6,54.4,141.8,51,149.4,51.1z"/>
	<path display="inline" fill="#F1C572" d="M256,334c-45.3,0-90.6,0-135.9,0.2c-3.3,0-4.2-1.1-4.2-4.3c0.1-43.3,0.1-86.6,0-129.9
		c0-3,0.9-4.1,4-4c8.8,0.2,17.7,0.1,26.5,0c3.1,0,4.2,0.4,2.9,3.9c-17.6,48.4,9.4,97.4,59.7,108.6c35.2,7.8,75.3-13.1,89.2-46.1
		c8.9-21.1,9.4-42.2,1.2-63.6c-0.2-0.6-0.4-1.3-0.5-1.9c0-0.1,0.1-0.3,0.2-0.9c11.2,0,22.5,0,33.8,0c2.3,0,2.5,1.2,2.5,3.2
		c-0.1,13.5-0.2,27-0.1,40.5c0.1,29.6,0.4,59.3,0.5,88.9c0,1.7,0.8,3.7-0.8,5.2c-1.8-2-1.3-4.4-1.3-6.7c0-11.9,0-23.9,0-36.6
		c-7.2,4.8-13.7,9.4-20.4,13.6c-15.4,9.6-31.2,18.3-47.4,26.4C262.6,332.2,259.2,332.6,256,334z"/>
	<path display="inline" fill="#F1C572" d="M272,225.1c-0.2,26.9-21.2,47.2-48.5,46.9c-25.3-0.2-45.8-21.8-45.6-47.8
		c0.3-26.2,21.7-46.5,48.7-46.2C251.4,178.3,272.2,199.9,272,225.1z"/>
	<path display="inline" fill="#F1C572" d="M294.6,185.2c-17.4,0-31.7-14.3-31.4-31.4c0.3-17.4,14.4-31,32-30.9
		c17.3,0.1,30.9,13.8,30.9,31.2C326,171.8,312.4,185.3,294.6,185.2z"/>
	<path display="inline" fill="#DEAD66" d="M256,334c2.6-2.8,6.5-3.2,9.7-4.8c21.9-11,43.4-22.9,63.4-37.2c1.6-1.1,3.3-2.2,5.8-3.8
		c0,15.7,0,30.7,0,45.7c-7.3,0.1-14.5,0.3-21.8,0.3C294.1,334.1,275,334,256,334z"/>
</g>
<g display="none">
	<path fill="#FEFEFE" d="M224.5,449.9c-73.5,0-146.9,0-220.4,0.1c-3.4,0-4.1-0.7-4.1-4.1C0.1,298.6,0.1,151.4,0,4.1
		C0,0.7,0.7,0,4.1,0c147.3,0.1,294.5,0.1,441.8,0c3.4,0,4.1,0.7,4.1,4.1c-0.1,147.3-0.1,294.5,0,441.8c0,3.4-0.7,4.1-4.1,4.1
		C372.1,449.9,298.3,449.9,224.5,449.9z"/>
	<path display="inline" fill="#F1C572" d="M69.1,369.8c-10.7-10.4-19.1-22.6-26.7-35.3c-15-25-24.7-52-28-80.9
		c-6.7-57.5,6.1-110.2,41.3-156.6c34-44.8,79.1-72.6,134.5-81.5c61.7-9.9,118,4.4,167.2,43.4c38.6,30.6,63.4,70.3,75,118.2
		c0.7,2.9,1.7,5.7,1.5,8.8c-1.6,5-5,9-8,13.1c-13.1,18.3-27.6,35.5-43.9,51c-29.1,27.7-61.3,51.2-96.8,70.1
		c-11.8,6.3-23.7,12.2-36,17.3c-3.9,1.6-5.1,4-5,8c0.2,11.3,0.1,22.7,0.1,34c0,1.8,0.2,3.7-0.7,5.4c-0.9,1.6-1.8,1.1-2.5-0.2
		c-0.8-2.4-0.6-5-0.6-7.4c0-41.8,0-83.6,0-125.4c0-0.5,0-1,0-1.5c0.1-8.1,0.9-8.9,8.9-9c7.2-0.1,14.3-0.1,21.5,0
		c3.6,0,6-1.2,7.4-4.7c4.2-11.1,8.6-22,12.9-33c1.5-3.9-0.5-4.2-3.5-4.2c-12.5,0-25,0-37.5,0c-8.5,0-9.6-1.2-9.7-9.5
		c0-8-0.2-16,0-24c0.4-15.4,8.4-23.3,23.7-23.5c2.7,0,5.3,0,8-0.1c2.9-0.1,4.2-1.5,4.2-4.4c0-11,0.1-22,0-33c0-3.2-1.7-4.5-4.7-4.5
		c-13.1,0.1-26.3-0.9-39.4,1.3c-21.5,3.6-40.2,25.5-40.8,47.7c-0.2,8.2,0.3,16.3-0.1,24.5c-0.4,7.9,3.5,17.5-2,23.2
		c-5.6,5.8-15.3,1.4-23.1,2.2c-1.6,0.2-3.3,0-5,0.1c-4.3,0.2-5.2,1.3-3.8,5.3c3.7,10.7,7.4,21.4,11.4,32c1.2,3.2,3.4,4.7,6.8,4.6
		c3.5-0.1,7-0.1,10.5,0.1c3.2,0.2,4.8,1.8,5,5c0.1,1.8,0.1,3.7,0.1,5.5c0,41.8,0,83.6,0,125.4c0,2.8,0.6,5.7-1.2,8.2
		c-3.5,0-2.6-2.9-2.7-4.7c-0.3-5.6-0.1-11.3-0.1-16.9c0-4.8-0.2-5-4.8-3.8c-15.3,4-30.8,6.8-46.5,8.5c-21.1,2.3-42.3,3.8-63.6,1.6
		C71.4,370.3,70.3,370.1,69.1,369.8z"/>
	<path display="inline" fill="#DEAD66" d="M69.1,369.8c2.1-1.7,4.5-1,6.7-0.8c17.4,2,34.7,0.5,52-1c19.3-1.7,38.3-5,57-9.9
		c2.8-0.8,4.5-0.6,4.3,3.2c-0.3,6.6-0.1,13.3-0.1,19.9c0,1.5-0.8,3.4,1.3,4.4c1.8-1.5,4-1.3,6.2-1.3c13.1,0,26.1-0.1,39.2,0
		c2.1,0,4.3-0.2,6.1,1.4c2-1.3,1.2-3.3,1.2-5c0.1-12.5,0.1-25,0-37.4c0-2.9,0.6-4.6,3.8-5.9c26.6-11,51.8-24.7,75.7-40.8
		c17.8-12.1,34.7-25.4,50.7-40c22.7-20.7,42.3-43.8,59.3-69.3c0.3-0.5,1-0.8,1.5-1.3c2.6,9.4,3.4,19,3.8,28.6
		c2.4,65.1-19.4,121-66.4,166.1c-33,31.7-72.7,50.6-118.3,56.2c-60.8,7.6-115-8.5-162.6-46.8C82.7,384.1,75.3,377.5,69.1,369.8z"/>
	<path display="inline" fill="#FEFEFE" d="M241.8,385.8c-17.2,0-34.3-0.1-51.5-0.1c-0.9-15.5-0.4-30.9-0.4-46.4
		c-0.1-30.5-0.1-61,0.1-91.4c0-3.9-1-5.7-5-5c-0.2,0-0.3,0-0.5,0c-15.1-0.1-15.1-0.1-20.1-14.2c-2.9-8.2-5.9-16.3-8.7-24.4
		c-1.9-5.6-1.3-6.3,4.6-6.3c8.2,0,16.3-0.2,24.5,0.1c3.9,0.1,5.2-1,5.2-5.1c-0.2-14-0.2-28,0-42c0.3-23.9,18.1-45.5,41.5-50.4
		c11.2-2.3,22.6-1.2,33.9-1.3c12.5-0.1,12.5,0,12.5,12.6c0,8.5,0,17,0,25.5c0,6.9,0,6.9-7.1,6.9c-2.7,0-5.3,0-8,0
		c-12.8,0.1-20.2,7.2-20.5,20c-0.2,9.7,0.1,19.3-0.1,29c-0.1,3.8,1.4,4.8,5,4.8c13.7-0.2,27.3-0.1,41-0.1c6.9,0,6.9,0,4.5,6.3
		c-4.4,11.3-8.9,22.6-13.2,34c-1.3,3.5-3,4.9-6.9,4.8c-8.1-0.3-16.3,0.3-24.5-0.2c-5-0.3-5.9,1.5-5.9,6.2c0.2,43.5,0.1,86.9,0,130.4
		C242.1,381.5,241.9,383.6,241.8,385.8z"/>
	<path display="inline" fill="#FCE391" d="M122,74.8c0.4,4.2-1.8,7.7-4.3,11.1c-8.3,11.5-18.8,21-27.3,32.3
		c-6.4,8.5-11.9,17.6-19.9,24.8c-1.3,1.2-2.7,2.4-4.2,3.4c-4.3,2.8-6.8,1.9-9-2.7c-4.1-8.8-2-17.3,1.6-25.4
		c8.7-19.1,23-33.1,40.8-43.6c4-2.4,7.9-5,12.1-6.9C119.1,64.4,122.1,66.6,122,74.8z"/>
	<path display="inline" fill="#FCE391" d="M149.1,51.1c3.2-0.5,5.7,1,6.7,4.2c0.9,3.2,0.3,6.5-2.9,8.2c-4.4,2.3-8.6,5-13.5,6
		c-2.4,0.5-4.7,1.2-6.3-1.1c-1.7-2.3-1.5-5.1-0.2-7.5C136.3,54.6,141.5,51,149.1,51.1z"/>
</g>
<g display="none">
	<path fill="#FEFEFE" d="M449.9,225c0,73.6,0,147.2,0.1,220.8c0,3.2-0.4,4.2-4,4.2c-147.2-0.1-294.5-0.1-441.7,0
		c-3.7,0-4.3-0.9-4.3-4.4C0.1,298.5,0.1,151.5,0,4.4C0,1.1,0.4,0,4.3,0C151.5,0.1,298.7,0.1,446,0c3.5,0,4,0.8,4,4.1
		C449.9,77.8,449.9,151.4,449.9,225z"/>
	<path display="inline" fill="#F1C572" d="M69.1,369.8c-10.7-10.4-19.1-22.6-26.7-35.3c-15-25-24.7-52-28-80.9
		c-6.7-57.5,6.1-110.2,41.3-156.6c34-44.8,79.1-72.6,134.5-81.5c61.7-9.9,118,4.4,167.2,43.4c38.6,30.6,63.4,70.3,75,118.2
		c0.7,2.9,1,5.9,1.5,8.8c-1.5,4.9-4.8,8.7-7.7,12.7c-12.8,17.9-26.9,34.7-42.7,50c-29.5,28.5-62.4,52.3-98.5,71.7
		c-27.8,14.9-56.8,26.9-87.1,35.6c-22.6,6.5-45.5,11.1-69,13.3c-15.3,1.4-30.5,2.1-45.8,1.7C78.3,371.1,73.7,370.3,69.1,369.8z"/>
	<path display="inline" fill="#DEAD66" d="M69.1,369.8c1.9-1.6,4.2-1,6.2-0.8c27.4,2.5,54.5-0.2,81.5-4.8
		c36.4-6.2,70.9-17.9,104.4-33.3c34.2-15.8,65.8-35.8,94.9-59.6c11-9,21.7-18.5,31.7-28.7c15.5-16,29.7-33,42.1-51.5
		c1.2-1.8,1.9-3.9,3.9-5c2.6,9.7,3.4,19.7,3.8,29.6c2.1,55.2-13.9,104.5-49.4,146.9c-33.6,40.2-76.6,65.1-128.5,73.4
		c-63.2,10-119.7-5.8-169.5-45.7C82.7,384.1,75.3,377.5,69.1,369.8z"/>
	<path display="inline" fill="#FEFEFE" d="M284,129.1c3.5-0.9,7-2.2,10.7-2.2c2.4,0,5.1-0.1,5.7,2.7c0.5,2.4-1.5,3.8-3.5,4.9
		c-4.6,2.4-9.4,4.2-14.4,5.4c-1.3,0.3-2.6,0.3-3.9,1.7c7.9,0.9,15.4,2.5,22.4,5.8c21,9.8,32.5,27.3,38.7,48.8
		c1.1,3.9,2.9,5.3,6.7,5.8c5,0.7,9.9,1,14.9,0.9c5-0.1,9.8-1.3,14.7-3c-2.2,7.9-4.7,9.3-29.7,17.4c10.1,3.8,20.2,3.8,31.4,3.2
		c-6.2,7.1-13.5,10.3-21.4,12.2c-3.7,0.9-7.6,1.3-11.4,1c-2.3-0.2-3.4,0.5-4.2,3c-15.1,49.7-50.7,77.3-98.9,90.9
		c-18.2,5.1-36.8,7.7-55.7,7c-35-1.3-65.8-13.6-92.4-36.5c-7.2-6.2-13.5-13-19-20.8c20.5,14.3,42.6,21.8,67.6,16.4
		c15.7-3.4,29.2-11.3,41.7-22.4c-9-1-17.4-1.8-20.7-11.1c-1.7-4.5,0.6-8.1,9.1-15.2c-9.5-0.4-18.3-2.3-25.6-8.3
		c-2.5-2-4.7-4.2-6.5-6.9c-3.2-4.7-3.1-5.5,1.9-8.5c3-1.8,6.2-3.2,9.7-3.6c0.5-0.8,2.9,0.4,2-1.9c-12.7-3.7-23.1-10.2-28-23.3
		c-2.2-5.8-1.6-6.8,4.5-7.8c3.2-0.5,6.4-0.9,10.3-1.5c-5.5-4.2-10.9-7.7-14.9-12.9c-4.7-6-7.9-12.7-8.8-20.3
		c-0.4-3.3,0.2-5.2,4.3-3.5c25.8,10.4,51.6,20.7,75.9,34.3c6.9,3.9,12.7,9.1,18.4,14.5c2.9,2.8,3.8,2.3,5.1-1.2
		c6.8-18.5,15.1-36.3,27-52.1c5-6.7,10.6-12.7,17.9-17c2.3,0.8-1,3,1,3.6c1.6,0.5,2.8-0.7,4.1-1.5c3.6-2.3,7.6-3.4,11.5-4.6
		c1.3-0.4,2.9-1.3,3.8-0.2c1.1,1.4-0.5,2.7-1.3,3.8c-0.5,0.7-1.2,1.1-1.8,1.7c-0.2,0.3-0.6,0.7-0.2,1.1
		C283.2,129.5,283.6,129.4,284,129.1z"/>
	<path display="inline" fill="#FCE391" d="M122,74.8c0.4,4.3-1.8,7.7-4.3,11.1c-8.3,11.5-18.8,21-27.3,32.3
		c-6.4,8.5-11.9,17.6-19.8,24.8c-0.7,0.7-1.4,1.5-2.2,2.1c-6,4.9-9,4-11.6-3.3c-4.2-11.6,0.6-21.5,6.1-31
		c9.9-17.1,24.4-29.5,41.6-39c2.5-1.4,4.8-3,7.4-4.1C119.1,64.5,122.1,66.6,122,74.8z"/>
	<path display="inline" fill="#FCE391" d="M156,57.7c0.5,2.6-1,4.6-3.3,5.9c-4.3,2.3-8.6,5-13.6,6c-2.4,0.5-4.7,1-6.3-1.3
		c-1.5-2.2-1.3-4.8-0.3-7.1c3-6.5,10.1-10.5,17.3-10.1C153.9,51.3,156,53.5,156,57.7z"/>
	<path display="inline" fill="#F9E8C8" d="M154,216c0.9,0,2.6,0,2.4,0.7c-0.7,2.2-2.9,0.9-4.5,1.1C152.6,217.3,153.3,216.7,154,216z
		"/>
	<path display="inline" fill="#F7E1B5" d="M284,129.1c-0.9,0.9-1.9,1.6-3.3,1.5c0.1-1.6,1.3-2,2.4-2.5
		C283.4,128.5,283.7,128.8,284,129.1z"/>
</g>
<g display="none">
	<path fill="#FEFEFE" d="M0.1,224.5C0.1,151,0.1,77.6,0,4.1C0,0.7,0.7,0,4.1,0c147.3,0.1,294.5,0.1,441.8,0c3.4,0,4.1,0.7,4.1,4.1
		c-0.1,147.3-0.1,294.5,0,441.8c0,3.4-0.7,4.1-4.1,4.1c-147.3-0.1-294.5-0.1-441.8,0c-3.4,0-4.1-0.7-4.1-4.1
		C0.1,372.1,0.1,298.3,0.1,224.5z"/>
	<path display="inline" fill="#F1C572" d="M69.1,369.8c-10.7-10.4-19.1-22.6-26.7-35.3c-15-25-24.7-52-28-80.9
		c-6.7-57.5,6.1-110.2,41.3-156.6c34-44.8,79.1-72.6,134.5-81.5c61.7-9.9,118,4.4,167.2,43.4c38.6,30.6,63.4,70.3,75,118.2
		c0.7,2.9,1,5.9,1.5,8.8c-1.5,4.9-4.8,8.7-7.7,12.7c-12.8,17.9-26.9,34.7-42.7,50c-29.5,28.5-62.4,52.3-98.5,71.7
		c-27.8,14.9-56.8,26.9-87.1,35.6c-22.6,6.5-45.5,11.1-69,13.3c-15.3,1.4-30.5,2.1-45.8,1.7C78.4,371.1,73.7,370.3,69.1,369.8z"/>
	<path display="inline" fill="#DEAD66" d="M69.1,369.8c1.9-1.6,4.2-1,6.2-0.8c27.4,2.5,54.5-0.2,81.5-4.8
		c36.4-6.2,70.9-17.9,104.4-33.3c34.2-15.8,65.8-35.8,94.9-59.6c11-9,21.7-18.5,31.7-28.8c15.5-16,29.7-33,42.1-51.5
		c1.2-1.8,1.9-3.9,3.9-5c2.6,9.7,3.4,19.7,3.8,29.6c2.1,55.2-13.9,104.6-49.4,147c-33.6,40.2-76.5,65.1-128.5,73.4
		C196.3,446,139.5,430,89.6,389.5C82.2,383.6,75.1,377.3,69.1,369.8z"/>
	<path display="inline" fill="#FEFEFE" d="M178.6,222c0-27.3,0-54.5,0-81.8c0-7.1-0.2-14.3-0.3-21.4c0-1.2-0.6-2.9,1-3.5
		c1.2-0.4,2,0.8,3,1.5c27.5,20.2,55,40.3,82.4,60.5c22.2,16.3,44.4,32.7,66.8,48.9c3.5,2.5,3.5,3.5-0.1,6
		c-49.7,34.9-99.2,69.9-148.8,104.9c-1,0.7-2,2.3-3.4,1.7c-1.7-0.8-0.9-2.7-0.9-4c0-30.3,0-60.5,0-90.8c0-7.3,0-14.6,0-21.9
		C178.4,222,178.5,222,178.6,222z"/>
	<path display="inline" fill="#FCE391" d="M122,74.5c0.4,4.3-1.8,7.9-4.4,11.5c-8.3,11.4-18.8,21-27.3,32.2
		c-6.3,8.5-12,17.6-19.9,24.8c-1.1,1-2.2,2.1-3.4,2.9c-5.1,3.6-7.8,2.5-10.1-3.3c-4.6-11.7,0.1-21.9,5.7-31.6
		c9.9-17.3,24.6-29.8,41.9-39.3c2.5-1.4,4.8-3,7.4-4.1C119,64.6,122.1,66.6,122,74.5z"/>
	<path display="inline" fill="#FCE391" d="M149.2,51.1c3.1-0.5,5.7,1,6.6,4.2c1,3.4,0.2,6.7-3.3,8.5c-4.3,2.1-8.3,4.8-13.1,5.7
		c-2.4,0.5-4.7,1.2-6.3-1.1c-1.7-2.3-1.5-5.1-0.2-7.5C136.3,54.7,141.5,51.1,149.2,51.1z"/>
</g>
<g display="none">
	<path fill="#FEFEFE" d="M449.9,225.5c0,73.4,0,146.9,0.1,220.3c0,3.3-0.5,4.2-4,4.2c-147.2-0.1-294.5-0.1-441.7,0
		c-3.8,0-4.3-1-4.3-4.4C0.1,298.5,0.1,151.5,0,4.4C0,1,0.5,0,4.3,0c147.1,0.1,294.1,0.1,441.2,0c3.9,0,4.5,1,4.5,4.7
		C449.9,78.3,449.9,151.9,449.9,225.5z"/>
	<path display="inline" fill="#F1C572" d="M69.1,369.8c-10.7-10.4-19.1-22.6-26.7-35.3c-15-25-24.7-52-28-80.9
		c-6.7-57.5,6.1-110.2,41.3-156.6c34-44.8,79.1-72.6,134.5-81.5c61.7-9.9,118,4.4,167.2,43.4c38.6,30.6,63.4,70.3,75,118.2
		c0.7,2.9,1,5.9,1.5,8.8c-0.5,1.6-1.2,3.1-2.1,4.5c-10,14.8-21,28.6-32.9,41.9c-19.1,21.5-40.9,39.8-63.9,56.8
		c-10.3,7.6-21.5,13.8-31.7,21.6c-0.6,0.5-1.2,0.4-1.7-0.2c-0.6-5.1,1.1-9.8,2.1-14.7c7.2-33.4,14.1-66.8,21.4-100.1
		c2.9-13.5,5.7-27,8.7-40.5c0.8-3.7,1.9-7.4,1.9-11.3c0-8.7-5.3-12.6-13.5-9.6c-13.9,5.1-27.7,10.5-41.6,15.8
		c-50.5,19.4-101,38.8-151.6,58.1c-3.1,1.2-6.4,2.1-9.1,4c-2.4,1.6-5.5,3.3-4.9,6.8c0.5,3.2,3.4,4.4,6.2,5.2c4.6,1.4,9.2,3,13.8,4.4
		c9.9,3,19.8,6,29.5,9.3c4.9,1.6,9,1.2,13.6-1.7c36.5-22.9,73-46,109.7-68.6c1.4-0.9,2.8-1.9,4.4-2.3c1.8-0.5,3.8-0.9,5,0.9
		c1.3,1.9,0.2,3.6-1.1,4.9c-4.3,4.2-8.8,8.1-13.3,12.1c-14.7,13-29.2,26.2-43.9,39.3c-11.2,10-22.4,19.9-33.4,30.1
		c-2.7,2.5-3.9,5.3-4.1,8.7c-0.7,13.4-1.7,26.9-2.8,40.3c-0.3,3.5,0.9,4.3,4.1,2.8c2.6-1.2,4.7-3.2,6.7-5.2
		c5.6-5.5,10.9-11.2,16.7-16.5c5.7-5.2,6.6-5.2,12.8-0.8c15,10.8,29.8,21.9,44.8,32.6c1.3,0.9,2.9,1.8,2.7,3.9
		c-2.4,3.5-6.3,4.9-9.8,6.6c-45,22.6-92.2,38.2-142.3,44c-17,2-34.1,2.8-51.3,2.2C78.3,371.1,73.7,370.4,69.1,369.8z"/>
	<path display="inline" fill="#DEAD66" d="M69.1,369.8c1.9-1.6,4.2-1,6.2-0.8c27.5,2.5,54.6-0.2,81.6-4.8
		c36.4-6.2,71-17.8,104.5-33.3c8.4-3.9,16.9-7.7,24.6-13c0.4-0.3,0.8-0.8,1.3-0.7c5.7,1.2,10-0.6,12.9-5.7c0.3-0.6,1-0.8,1.7-0.6
		c5-5.7,11.9-8.8,18.1-12.9c14.7-9.9,28.9-20.4,42.3-32c8.8-7.6,17.5-15.3,25.6-23.6c15.4-16,29.6-33,42-51.5c1.2-1.8,1.9-3.9,3.9-5
		c2.6,9.7,3.4,19.7,3.8,29.6c2.1,55.2-13.9,104.5-49.4,146.9c-33.6,40.2-76.6,64.8-128.5,73.4c-45.6,7.5-89.2,0.7-130.4-20.1
		C106.5,404.3,86.2,389.2,69.1,369.8z"/>
	<path display="inline" fill="#FEFEFE" d="M301.9,310.9c-5,8.3-6.4,8.9-15.9,7c-16.7-12.1-33.4-24.2-49.9-36.5
		c-2.6-1.9-4.2-2.2-6.6,0.2c-6.7,6.7-13.7,13.2-20.5,19.8c-2.2,2.1-4.4,4.2-7.2,5.3c-2.8,1-4.9,0.9-4.6-3.1
		c0.9-10.8,1.6-21.6,2.4-32.3c0.1-0.8,0.4-1.7,0.3-2.5c-1.8-10.8,4.4-17.4,11.9-23.8c18.1-15.7,35.8-31.9,53.7-47.8
		c9.4-8.4,18.9-16.8,28.2-25.4c1.4-1.3,4.7-2.7,2.9-4.9c-1.6-2.1-4.3-0.3-6.3,0.9c-16.2,10.1-32.4,20.3-48.6,30.4
		c-22,13.8-44,27.5-66,41.3c-2.5,1.6-4.6,1.8-7.4,0.9c-15.7-5-31.4-9.7-47.1-14.6c-1.9-0.6-3.8-1.5-5.3-2.7
		c-3.2-2.5-3.6-5.4-0.8-8.6c2.3-2.6,5.2-4.2,8.3-5.4c66.3-25.4,132.6-50.7,198.9-76c8.5-3.2,14.8,1.1,14.8,10.1
		c0,8.9-2.9,17.3-4.7,25.9c-9.6,45.3-19.3,90.7-29,136C302.8,307,302.4,309,301.9,310.9z"/>
	<path display="inline" fill="#FCE391" d="M122,74.8c0.4,4.2-1.8,7.7-4.3,11.1c-8.3,11.5-18.8,21-27.3,32.3
		c-6.4,8.5-11.9,17.6-19.9,24.8c-1.3,1.2-2.7,2.4-4.2,3.4c-4.3,2.8-6.8,1.9-9-2.7c-4.1-8.8-2-17.3,1.6-25.4
		c8.7-19.1,23-33.1,40.8-43.6c4-2.4,7.9-5,12.1-6.9C119.1,64.4,122.1,66.6,122,74.8z"/>
	<path display="inline" fill="#FCE391" d="M156.1,58.5c0.4,2-1.3,4-3.6,5.1c-4.2,2.2-8.3,4.8-13.1,5.8c-2.4,0.5-4.6,1.3-6.4-0.9
		c-1.8-2.3-1.7-5.1-0.4-7.5c3.6-6.7,9.2-10.2,16.9-10C154,51.2,155.9,53.5,156.1,58.5z"/>
</g>
<g display="none">
	<path fill="#FEFEFE" d="M449.9,225.5c0,73.4,0,146.9,0.1,220.3c0,3.4-0.6,4.1-4.1,4.1c-147.2-0.1-294.5-0.1-441.7,0
		c-3.9,0-4.2-1.2-4.2-4.5C0.1,298.5,0.1,151.4,0,4.4C0,0.8,0.7,0,4.3,0c147.1,0.1,294.1,0.1,441.2,0c4,0,4.5,1.2,4.5,4.7
		C449.9,78.3,449.9,151.9,449.9,225.5z"/>
	<path display="inline" fill="#F1C572" d="M69.1,369.8c-10.7-10.4-19.1-22.6-26.7-35.3c-15-25-24.7-52-28-80.9
		c-6.7-57.5,6.1-110.2,41.3-156.6c34-44.8,79.1-72.6,134.5-81.5c61.7-9.9,118,4.4,167.2,43.4c38.6,30.6,63.4,70.3,75,118.2
		c0.7,2.9,1,5.9,1.5,8.8c-1.6,4.8-4.9,8.7-7.8,12.7c-13,18.1-27.3,35.2-43.4,50.7c-29.3,28.1-61.9,51.8-97.7,71
		c-16.3,8.8-33.1,16.4-50.3,23.1c-1.8,0.7-4.1,3-5.9-0.4c0.6-2,2.4-2.7,3.9-3.7c23.1-14.8,35.2-36.6,39.8-63
		c1-5.4,1.2-10.9,1.2-16.4c-0.1-23.8,0-47.6,0-71.4c0-8.7,1.1-9.3,8.6-5.2c13.4,7.4,27.2,13.3,42.9,13.5c6.9,0.1,7.5-0.3,7.5-7.1
		c0-8.7-0.1-17.3,0-26c0-3.4-1-5.1-4.6-5.6c-29.3-4.2-46.2-21.6-52.6-49.9c-0.4-1.6-0.8-3.2-1-4.9c-0.4-3.7-2.5-5-6.1-5
		c-9.3,0.1-18.7,0-28,0.1c-5.5,0-5.8,0.4-5.8,6.1c0,37.6,0,75.3,0,112.9c0,15,0,30,0,45c0,7.9-1.4,15.6-4.2,23
		c-5.2,14-14.6,23.6-29.9,25.4c-15.2,1.8-27.9-3.9-37.2-16c-11.1-14.3-11.1-33.1-0.5-46.3c4.6-5.7,10.8-9.4,17.6-11.9
		c5.8-2.2,11.6-4.2,17.7-5.2c3.3-0.5,4.9-2,4.8-5.6c-0.2-10.5-0.2-21,0-31.5c0.1-3.1-1-4.3-4-4c-30.4,2.9-56.1,13.8-72,41.8
		c-16.3,28.8-10.8,71,12,95c15.2,16,33.6,24,55.5,24.3c3.2,0,6.3-0.7,9.4-1.2c1.9-0.3,4-1,5.6,0.8c-0.7,2.6-3.1,2.8-5.1,3.4
		c-28.7,8.4-57.8,14.4-87.7,16c-14.3,0.8-28.6,1.3-42.8-0.1C72.1,370.3,70.6,370.2,69.1,369.8z"/>
	<path display="inline" fill="#DEAD66" d="M69.1,369.8c1.5-1.5,3.5-1,5.2-0.8c18.2,2,36.3,0.6,54.5-1c26.2-2.2,51.5-8.1,76.6-15.4
		c1.2-0.4,2.4-1.1,3.6-1.6c6-3.9,12.6-6.3,19.7-7.2c7-1,13.1-4.4,19.5-7c26-10.8,50.5-24.3,73.8-40c14.2-9.5,27.8-19.7,40.6-31
		c8.6-7.6,17.2-15.1,25.2-23.3c15.5-16,29.6-33,42.1-51.5c1.2-1.8,1.9-3.9,3.9-5c2.6,9.7,3.4,19.7,3.8,29.6
		c2.1,55.2-13.9,104.5-49.4,146.9c-33.6,40.2-76.6,64.8-128.5,73.4c-45.6,7.5-89.2,0.7-130.4-20.1
		C106.5,404.3,86.2,389.2,69.1,369.8z"/>
	<path display="inline" fill="#FEFEFE" d="M228.7,343.8c-6.4,2.9-13,5.2-19.7,7.2c-9.9,1.7-19.7,2.6-29.7,0.6
		c-26.1-5.4-44.3-20.7-55.6-44.3c-14.4-30.3-9.7-70.8,16.9-95.2c14-12.8,30.9-19.2,49.4-22c3.4-0.5,6.9-0.6,10.4-1.1
		c2.8-0.4,4,0.2,3.9,3.6c-0.3,12-0.2,24,0,36c0.1,2.8-0.9,3.3-3.2,3.7c-7,1.3-13.9,3.2-20.6,5.8c-15.8,6-25.1,18.8-24.3,33.5
		c0.9,17.5,11.9,31.9,27.7,36.4c21.4,6.1,39.7-4.1,46-25.7c2.4-8.4,3.1-16.9,3.1-25.6c-0.1-51.5-0.1-102.9-0.3-154.4
		c0-3.8,0.8-5.2,4.9-5.1c10.8,0.3,21.7,0.3,32.5,0c3.7-0.1,4.7,1.2,5.3,4.6c2,12.5,5.9,24.2,13.8,34.3c10.2,12.9,24,19.2,40,20.9
		c4.1,0.4,4.8,1.8,4.8,5.4c-0.2,10.5-0.1,21,0,31.5c0,3-0.5,4.4-4,4.6c-13.1,0.7-25.4-2.5-37.1-8c-5.8-2.7-11.5-5.8-17.7-9
		c0,2.2,0,3.8,0,5.5c0,24.1,0,48.3,0,72.4c0,25.2-7.5,47.8-24.3,66.9C244.5,333.4,236.6,338.6,228.7,343.8z"/>
	<path display="inline" fill="#FCE391" d="M122,74.5c0.5,4.3-1.8,7.9-4.4,11.5c-8.3,11.4-18.8,21-27.3,32.2
		c-6.3,8.5-12,17.6-19.9,24.8c-1,0.9-1.9,1.9-3,2.7c-5.5,4-8.2,3-10.7-3.5c-4.4-11.8,0.5-21.8,6.1-31.5
		c9.9-17.1,24.4-29.5,41.6-38.9c2.6-1.4,5.1-3.2,7.8-4.3C119.1,64.6,122.1,66.8,122,74.5z"/>
	<path display="inline" fill="#FCE391" d="M149.3,51.1c3.1-0.5,5.5,1,6.5,3.9c1.1,3.4,0.5,6.8-3,8.6c-4.4,2.3-8.6,4.9-13.6,6
		c-2.4,0.5-4.7,1-6.3-1.3c-1.5-2.2-1.4-4.8-0.2-7.1C136.2,54.8,141.4,50.9,149.3,51.1z"/>
</g>
<g display="none">
	<path fill="#FEFEFE" d="M0.1,225c0-73.6,0-147.3-0.1-220.9C0,0.7,0.7,0,4.1,0c147.3,0.1,294.5,0.1,441.8,0c3.4,0,4.1,0.7,4.1,4.1
		c-0.1,147.3-0.1,294.5,0,441.8c0,3.4-0.7,4.1-4.1,4.1c-147.3-0.1-294.5-0.1-441.8,0c-3.4,0-4.1-0.7-4.1-4.1
		C0.1,372.3,0.1,298.6,0.1,225z"/>
	<path display="inline" fill="#F1C572" d="M69.1,369.8c-10.7-10.4-19.1-22.6-26.7-35.3c-15-25-24.7-52-28-80.9
		c-6.7-57.5,6.1-110.2,41.3-156.6c34-44.8,79.1-72.6,134.5-81.5c61.7-9.9,118,4.4,167.2,43.4c38.6,30.6,63.4,70.3,75,118.2
		c0.7,2.9,1,5.9,1.5,8.8c-1.5,4.9-4.8,8.7-7.7,12.7c-12.8,17.9-26.9,34.7-42.7,50c-29.5,28.5-62.4,52.3-98.5,71.7
		c-27.8,14.9-56.8,26.9-87.1,35.6c-22.6,6.5-45.5,11.1-69,13.3c-15.3,1.4-30.5,2.1-45.8,1.7C78.4,371.1,73.7,370.3,69.1,369.8z"/>
	<path display="inline" fill="#DEAD66" d="M69.1,369.8c1.9-1.6,4.2-1,6.2-0.8c27.4,2.5,54.5-0.2,81.5-4.8
		c36.4-6.2,70.9-17.9,104.4-33.3c34.2-15.8,65.8-35.8,94.9-59.6c11-9,21.7-18.5,31.7-28.8c15.5-16,29.7-33,42.1-51.5
		c1.2-1.8,1.9-3.9,3.9-5c2.6,9.7,3.4,19.7,3.8,29.6c2.1,55.2-13.9,104.6-49.4,147c-33.6,40.2-76.6,65.1-128.5,73.4
		c-63.2,10-119.7-5.8-169.5-45.7C82.7,384.1,75.3,377.5,69.1,369.8z"/>
	<path display="inline" fill="#FEFEFE" d="M197.5,192c-20.5,0.3-40.8,2.1-60.8,7c-2.7,0.7-5.6,1-8.3,1.4
		c-8.9,1.5-14.2-2.3-16.5-11.7c-1.8-7.2,2.6-15.1,9.8-17.3c10.6-3.3,21.5-5.7,32.6-7.3c14.5-2.1,29.2-2.9,43.8-2.7
		c38.3,0.4,75.8,5.9,111.5,20.7c7.2,3,14.3,6.4,20.9,10.5c7.4,4.6,9.5,12.4,5.7,19.9c-3.7,7.3-11.7,10.7-19.4,7.5
		c-10.4-4.3-20.2-10.1-31-13.8c-18.3-6.2-37.1-10.3-56.3-12.3C218.7,192.8,208.2,191.8,197.5,192z"/>
	<path display="inline" fill="#FEFEFE" d="M194.6,215c35.5,0.2,69.7,6.7,101.7,22.8c4,2,7.9,4.4,11.7,6.7c6.7,4.1,8.8,12.2,5.1,19.1
		c-3.3,6-10.3,8.2-17.3,4.6c-8-4-15.7-8.7-24.1-12c-19-7.5-38.7-11.9-59.1-13.4c-24.6-1.9-48.8-0.6-72.6,5.9
		c-7.6,2.1-15.1-1.8-16.8-8c-2.2-8.3,1.9-15.4,10.4-17.6C153.5,217.8,173.9,214.7,194.6,215z"/>
	<path display="inline" fill="#FEFEFE" d="M195.4,267c33.1,0.1,63.1,6.8,91,22.2c2.5,1.4,4.9,2.9,7,4.8c3.5,3.3,4.1,8,1.8,11.7
		c-2.6,4.2-8.2,6.7-12.4,5.1c-2.5-0.9-4.8-2.3-7.2-3.5c-32.4-17.2-66.8-22.1-102.9-17.6c-9.6,1.2-19,3.2-28.4,5
		c-7.8,1.5-12.9-1.1-14.2-7.1c-1.3-6.5,2.3-11.6,9.6-13.4C158.5,269.5,177.6,267.3,195.4,267z"/>
	<path display="inline" fill="#FCE391" d="M122,74.7c0.4,4.2-1.8,7.7-4.2,11.1c-8.4,11.6-19.1,21.2-27.6,32.6
		c-6.3,8.5-12,17.6-19.9,24.8c-1.2,1.1-2.5,2.2-3.9,3.1c-4.5,3-7,2-9.2-3c-3.8-8.5-1.9-16.7,1.6-24.5c8.6-19.3,23-33.5,41-44.1
		c4-2.4,7.9-5,12.1-6.9C119,64.4,122.1,66.6,122,74.7z"/>
	<path display="inline" fill="#FCE391" d="M149.3,51.1c3.3-0.5,5.6,1.2,6.5,4.1c1,3.2,0.5,6.5-2.8,8.2c-4.3,2.3-8.5,5-13.5,6
		c-2.4,0.5-4.7,1.2-6.3-1c-1.7-2.3-1.6-5.1-0.3-7.5C136.3,54.5,141.7,50.9,149.3,51.1z"/>
</g>
<g>
</g>
<g>
</g>
<g>
</g>
<g>
</g>
<g>
</g>
<g>
</g>
<g>
</g>
<g>
</g>
<g>
</g>
<g>
</g>
<g>
</g>
<g>
</g>
<g>
</g>
<g>
</g>
<g>
</g>
</svg>
