<?xml version="1.0" encoding="utf-8"?>
<!-- Generator: Adobe Illustrator 24.1.1, SVG Export Plug-In . SVG Version: 6.00 Build 0)  -->
<svg version="1.1" xmlns="http://www.w3.org/2000/svg" xmlns:xlink="http://www.w3.org/1999/xlink" x="0px" y="0px"
	 viewBox="0 0 450 450" style="enable-background:new 0 0 450 450;" xml:space="preserve">
<style type="text/css">
	.Sombra_x0020_paralela{fill:none;}
	.Resplandor_x0020_externo_x0020_5_x0020_pt_x002E_{fill:none;}
	.Neón_x0020_azul{fill:none;stroke:#8AACDA;stroke-width:7;stroke-linecap:round;stroke-linejoin:round;}
	.Resalte_x0020_cromado{fill:url(#SVGID_1_);stroke:#FFFFFF;stroke-width:0.3629;stroke-miterlimit:1;}
	.A_x0020_todo_x0020_ritmo_GS{fill:#FFDD00;}
	.Alyssa_GS{fill:#A6D0E4;}
	.st0{fill:#FFFFFF;}
	.st1{fill:#6B6969;}
	.st2{fill:#A8A8A8;}
	.st3{display:none;}
	.st4{display:inline;fill:url(#SVGID_2_);}
	.st5{display:inline;fill:#FFFFFF;}
	.st6{display:inline;}
	.st7{fill:url(#XMLID_2_);}
	.st8{fill:url(#XMLID_3_);}
	.st9{fill:url(#SVGID_3_);}
	.st10{fill:url(#XMLID_4_);}
	.st11{fill:url(#XMLID_5_);}
	.st12{fill:url(#SVGID_4_);}
	.st13{fill:url(#SVGID_6_);}
	.st14{fill:url(#SVGID_8_);}
	.st15{fill:url(#SVGID_10_);}
	.st16{clip-path:url(#SVGID_13_);fill:none;stroke:#000000;stroke-width:1.7323;stroke-miterlimit:10;}
	.st17{clip-path:url(#SVGID_13_);}
	.st18{fill:url(#SVGID_16_);}
	.st19{fill:url(#SVGID_17_);}
	.st20{fill:url(#SVGID_19_);}
	.st21{fill:url(#SVGID_20_);}
	.st22{fill:url(#SVGID_21_);}
	.st23{clip-path:url(#SVGID_22_);fill:none;stroke:url(#SVGID_23_);stroke-width:1.7323;stroke-miterlimit:10;}
	.st24{clip-path:url(#SVGID_22_);fill:none;stroke:url(#SVGID_24_);stroke-width:1.7323;stroke-miterlimit:10;}
	.st25{opacity:0.48;clip-path:url(#SVGID_22_);}
	.st26{fill:url(#SVGID_25_);}
	.st27{fill:url(#SVGID_26_);}
	.st28{fill:url(#SVGID_28_);}
	.st29{fill:url(#SVGID_29_);}
	.st30{fill:url(#SVGID_30_);}
	.st31{opacity:0.44;}
	.st32{fill:#42210B;}
	.st33{fill:url(#SVGID_32_);}
	.st34{display:inline;fill:#B9C4D9;}
	.st35{display:inline;fill:#6B6969;}
	.st36{display:inline;fill:#A8A8A8;}
</style>
<linearGradient id="SVGID_1_" gradientUnits="userSpaceOnUse" x1="0" y1="0" x2="6.123234e-17" y2="-1">
	<stop  offset="0" style="stop-color:#656565"/>
	<stop  offset="0.618" style="stop-color:#1B1B1B"/>
	<stop  offset="0.6292" style="stop-color:#545454"/>
	<stop  offset="0.9831" style="stop-color:#3E3E3E"/>
</linearGradient>
<g id="Capa_2">
	<polyline class="st0" points="160.04,410.06 101.71,378.21 57.56,328.49 30.96,258.19 28.4,212.14 47.22,128.83 115.18,61.48 
		187.5,32.03 224,29 279.56,36.57 341,73 371.86,95.9 402.59,143.71 417.13,191.26 417.13,257.46 393.95,322.48 354.22,371.42 
		308.6,401.67 242.85,419.65 192.21,418.01 	"/>
</g>
<g id="Capa_1">
	<g id="Capa_1_1_">
		<g>
			<path class="st1" d="M18.6,223.6c0.93-105.06,82.49-189.9,180.65-200.02C263.71,16.93,320,35.87,366.46,81.33
				c34.47,33.73,54.62,75.06,59.37,123.18c6.32,64.02-12.68,119.89-57.89,165.72c-40.69,41.25-90.7,61.04-148.89,60.54
				C110.66,429.83,16.53,338.99,18.6,223.6z M222.38,24.51C111.19,24.53,20.59,115.06,20.76,226.88
				c0.17,111.49,90.65,201.85,202.26,201.76c111.34-0.09,201.88-90.4,201.87-202.16C424.87,114.86,334.24,24.11,222.38,24.51z"/>
			<path class="st2" d="M222.38,24.51c111.87-0.4,202.49,90.35,202.51,201.98c0.01,111.77-90.52,202.07-201.87,202.16
				c-111.61,0.09-202.09-90.28-202.26-201.77C20.59,115.06,111.19,24.53,222.38,24.51z M222.14,30.53
				C114.96,29.08,26.13,117.41,25.88,224.98c-0.26,108.44,85.1,196.96,195.81,197.1c109.47,0.14,195.51-87.31,196.03-195.43
				C418.25,117.2,328.49,29.43,222.14,30.53z"/>
			<path class="st1" d="M222.14,30.53c106.35-1.1,196.11,86.67,195.59,196.13c-0.52,108.12-86.56,195.57-196.03,195.43
				c-110.71-0.14-196.07-88.66-195.81-197.1C26.13,117.41,114.96,29.08,222.14,30.53z M40.34,226.31
				c-0.1,100.4,81.55,182.44,181.85,182.75c100.58,0.31,182.92-81.55,183.08-182.01c0.17-100.68-81.41-182.68-182.08-183.02
				C122.83,43.69,40.44,125.82,40.34,226.31z"/>
		</g>
		<g class="st3">
			<g>
				
					<linearGradient id="SVGID_2_" gradientUnits="userSpaceOnUse" x1="-381.9705" y1="331.045" x2="-586.7242" y2="126.2913" gradientTransform="matrix(1 0 0 -1 0 452)">
					<stop  offset="0.0139" style="stop-color:#48459E"/>
					<stop  offset="0.1899" style="stop-color:#83449D"/>
					<stop  offset="0.3002" style="stop-color:#A4449D"/>
					<stop  offset="0.3524" style="stop-color:#A74296"/>
					<stop  offset="0.4264" style="stop-color:#B13B84"/>
					<stop  offset="0.5136" style="stop-color:#C03165"/>
					<stop  offset="0.6036" style="stop-color:#D3243E"/>
					<stop  offset="0.8766" style="stop-color:#F59F27"/>
					<stop  offset="1" style="stop-color:#F5D926"/>
				</linearGradient>
				<path class="st4" d="M-470.3,366.47h-34.75c-67.62,0-122.44-54.82-122.44-122.44v-34.75c0-67.62,54.82-122.44,122.44-122.44
					h34.75c67.62,0,122.44,54.82,122.44,122.44v34.75C-347.86,311.65-402.68,366.47-470.3,366.47z"/>
				<path class="st5" d="M-429.09,144.46c13.02,0,23.61,10.59,23.61,23.61v117.17c0,13.02-10.59,23.61-23.61,23.61h-117.17
					c-13.02,0-23.61-10.59-23.61-23.61V168.07c0-13.02,10.59-23.61,23.61-23.61H-429.09 M-429.09,121.05h-117.17
					c-25.97,0-47.03,21.05-47.03,47.03v117.17c0,25.97,21.05,47.03,47.03,47.03h117.17c25.97,0,47.03-21.05,47.03-47.03V168.07
					C-382.07,142.1-403.12,121.05-429.09,121.05L-429.09,121.05z"/>
				<g class="st6">
					<path class="st0" d="M-487.68,191.45c19.01,0,34.47,15.46,34.47,34.47s-15.46,34.47-34.47,34.47s-34.47-15.46-34.47-34.47
						C-522.15,206.92-506.68,191.45-487.68,191.45 M-487.68,175.84c-27.66,0-50.08,22.42-50.08,50.08S-515.34,276-487.68,276
						c27.66,0,50.08-22.42,50.08-50.08C-437.59,198.27-460.02,175.84-487.68,175.84L-487.68,175.84z"/>
				</g>
				<circle class="st5" cx="-431.21" cy="169.49" r="13.55"/>
			</g>
			<g>
				<path class="st6" d="M-37.54,366.47h-184.92c-26.16,0-47.36-21.2-47.36-47.36V134.2c0-26.16,21.2-47.36,47.36-47.36h184.92
					c26.16,0,47.36,21.2,47.36,47.36v184.92C9.82,345.27-11.39,366.47-37.54,366.47z"/>
				<path class="st5" d="M-71.42,144.46c13.02,0,23.61,10.59,23.61,23.61v117.17c0,13.02-10.59,23.61-23.61,23.61h-117.17
					c-13.02,0-23.61-10.59-23.61-23.61V168.07c0-13.02,10.59-23.61,23.61-23.61H-71.42 M-71.42,121.05h-117.17
					c-25.97,0-47.03,21.05-47.03,47.03v117.17c0,25.97,21.05,47.03,47.03,47.03h117.17c25.97,0,47.03-21.05,47.03-47.03V168.07
					C-24.39,142.1-45.44,121.05-71.42,121.05L-71.42,121.05z"/>
				<g class="st6">
					<path class="st0" d="M-130,191.45c19.01,0,34.47,15.46,34.47,34.47s-15.46,34.47-34.47,34.47s-34.47-15.46-34.47-34.47
						C-164.47,206.92-149.01,191.45-130,191.45 M-130,175.84c-27.66,0-50.08,22.42-50.08,50.08S-157.66,276-130,276
						s50.08-22.42,50.08-50.08C-79.92,198.27-102.34,175.84-130,175.84L-130,175.84z"/>
				</g>
				<circle class="st5" cx="-73.53" cy="169.49" r="13.55"/>
			</g>
			<g>
				<path id="XMLID_10_" class="st6" d="M572.49,115.55c36.19,0,40.47,0.14,54.76,0.79c13.21,0.6,20.39,2.81,25.17,4.67
					c6.33,2.46,10.84,5.39,15.58,10.14c4.74,4.74,7.68,9.26,10.14,15.58c1.86,4.78,4.06,11.95,4.67,25.17
					c0.65,14.29,0.79,18.58,0.79,54.76c0,36.19-0.14,40.47-0.79,54.76c-0.61,13.22-2.81,20.39-4.67,25.17
					c-2.46,6.33-5.39,10.84-10.14,15.59c-4.74,4.74-9.26,7.68-15.58,10.14c-4.78,1.86-11.96,4.07-25.17,4.67
					c-14.29,0.65-18.57,0.79-54.76,0.79s-40.47-0.14-54.77-0.79c-13.21-0.6-20.39-2.81-25.16-4.67c-6.33-2.46-10.84-5.4-15.59-10.14
					c-4.74-4.74-7.68-9.26-10.14-15.59c-1.85-4.77-4.06-11.95-4.67-25.17c-0.65-14.29-0.79-18.57-0.79-54.76s0.14-40.47,0.79-54.76
					c0.61-13.22,2.81-20.39,4.67-25.17c2.46-6.33,5.4-10.84,10.14-15.58c4.74-4.74,9.26-7.68,15.59-10.14
					c4.77-1.86,11.95-4.07,25.16-4.67C532.01,115.68,536.3,115.55,572.49,115.55 M572.49,91.13c-36.81,0-41.42,0.16-55.88,0.82
					c-14.43,0.66-24.28,2.95-32.9,6.3c-8.91,3.46-16.47,8.1-24.01,15.63c-7.53,7.53-12.17,15.09-15.63,24.01
					c-3.35,8.62-5.64,18.47-6.3,32.9c-0.66,14.46-0.82,19.07-0.82,55.88s0.16,41.42,0.82,55.88c0.66,14.43,2.95,24.28,6.3,32.9
					c3.46,8.91,8.09,16.47,15.63,24.01c7.54,7.53,15.09,12.17,24.01,15.63c8.62,3.35,18.47,5.64,32.9,6.3
					c14.46,0.66,19.07,0.81,55.88,0.81s41.42-0.16,55.88-0.81c14.43-0.66,24.28-2.95,32.9-6.3c8.91-3.46,16.47-8.1,24.01-15.63
					c7.54-7.53,12.17-15.09,15.63-24.01c3.35-8.62,5.64-18.47,6.3-32.9c0.66-14.46,0.81-19.07,0.81-55.88s-0.16-41.42-0.81-55.88
					c-0.66-14.43-2.95-24.28-6.3-32.9c-3.46-8.91-8.1-16.47-15.63-24.01s-15.09-12.17-24.01-15.63c-8.62-3.35-18.47-5.64-32.9-6.3
					C613.91,91.28,609.3,91.13,572.49,91.13"/>
				<path id="XMLID_9_" class="st6" d="M661.1,154.31c0,9.59-8.3,17.25-18.11,16.16c-7.44-0.82-13.49-6.87-14.31-14.31
					c-1.09-9.81,6.57-18.12,16.16-18.12C653.82,138.05,661.1,145.33,661.1,154.31"/>
				<path class="st6" d="M572.48,158.95c-37.38,0-67.7,30.31-67.7,67.7c0,37.4,30.31,67.71,67.7,67.71
					c37.4,0,67.71-30.31,67.71-67.71C640.19,189.26,609.88,158.95,572.48,158.95z M572.48,271.82c-24.94,0-45.17-20.21-45.17-45.17
					c0-24.94,20.23-45.17,45.17-45.17c24.96,0,45.17,20.23,45.17,45.17C617.65,251.61,597.44,271.82,572.48,271.82z"/>
			</g>
			<g class="st6">
				<g>
					<path id="XMLID_64_" d="M226.39,119.55c36.19,0,40.47,0.14,54.76,0.79c13.21,0.6,20.39,2.81,25.17,4.67
						c6.33,2.46,10.84,5.39,15.58,10.14c4.74,4.74,7.68,9.26,10.14,15.58c1.86,4.78,4.06,11.95,4.67,25.17
						c0.65,14.29,0.79,18.58,0.79,54.76c0,36.19-0.14,40.47-0.79,54.76c-0.61,13.22-2.81,20.39-4.67,25.17
						c-2.46,6.33-5.39,10.84-10.14,15.59c-4.74,4.74-9.26,7.68-15.58,10.14c-4.78,1.86-11.96,4.07-25.17,4.67
						c-14.29,0.65-18.57,0.79-54.76,0.79s-40.47-0.14-54.77-0.79c-13.21-0.6-20.39-2.81-25.16-4.67
						c-6.33-2.46-10.84-5.4-15.59-10.14c-4.74-4.74-7.68-9.26-10.14-15.59c-1.85-4.77-4.06-11.95-4.67-25.17
						c-0.65-14.29-0.79-18.57-0.79-54.76s0.14-40.47,0.79-54.76c0.61-13.22,2.81-20.39,4.67-25.17c2.46-6.33,5.4-10.84,10.14-15.58
						s9.26-7.68,15.59-10.14c4.77-1.86,11.95-4.07,25.16-4.67C185.91,119.68,190.2,119.55,226.39,119.55 M226.39,95.13
						c-36.81,0-41.42,0.16-55.88,0.82c-14.43,0.66-24.28,2.95-32.9,6.3c-8.91,3.46-16.47,8.1-24.01,15.63
						c-7.53,7.53-12.17,15.09-15.63,24.01c-3.35,8.62-5.64,18.47-6.3,32.9c-0.66,14.46-0.82,19.07-0.82,55.88s0.16,41.42,0.82,55.88
						c0.66,14.43,2.95,24.28,6.3,32.9c3.46,8.91,8.09,16.47,15.63,24.01c7.54,7.53,15.09,12.17,24.01,15.63
						c8.62,3.35,18.47,5.64,32.9,6.3c14.46,0.66,19.07,0.81,55.88,0.81s41.42-0.16,55.88-0.81c14.43-0.66,24.28-2.95,32.9-6.3
						c8.91-3.46,16.47-8.1,24.01-15.63s12.17-15.09,15.63-24.01c3.35-8.62,5.64-18.47,6.3-32.9c0.66-14.46,0.81-19.07,0.81-55.88
						s-0.16-41.42-0.81-55.88c-0.66-14.43-2.95-24.28-6.3-32.9c-3.46-8.91-8.1-16.47-15.63-24.01s-15.09-12.17-24.01-15.63
						c-8.62-3.35-18.47-5.64-32.9-6.3C267.81,95.28,263.2,95.13,226.39,95.13"/>
					<path id="XMLID_63_" d="M315,158.31c0,9.59-8.3,17.25-18.11,16.16c-7.44-0.82-13.49-6.87-14.31-14.31
						c-1.09-9.81,6.57-18.12,16.16-18.12C307.72,142.05,315,149.33,315,158.31"/>
					<path d="M226.38,162.95c-37.38,0-67.7,30.31-67.7,67.7c0,37.4,30.31,67.71,67.7,67.71c37.4,0,67.71-30.31,67.71-67.71
						C294.09,193.26,263.78,162.95,226.38,162.95z M226.38,275.82c-24.94,0-45.17-20.21-45.17-45.17
						c0-24.94,20.23-45.17,45.17-45.17c24.96,0,45.17,20.23,45.17,45.17C271.55,255.61,251.34,275.82,226.38,275.82z"/>
					<path id="XMLID_62_" d="M225.39,117.55c36.19,0,40.47,0.14,54.76,0.79c13.21,0.6,20.39,2.81,25.17,4.67
						c6.33,2.46,10.84,5.39,15.58,10.14c4.74,4.74,7.68,9.26,10.14,15.58c1.86,4.78,4.06,11.95,4.67,25.17
						c0.65,14.29,0.79,18.58,0.79,54.76c0,36.19-0.14,40.47-0.79,54.76c-0.61,13.22-2.81,20.39-4.67,25.17
						c-2.46,6.33-5.39,10.84-10.14,15.59c-4.74,4.74-9.26,7.68-15.58,10.14c-4.78,1.86-11.96,4.07-25.17,4.67
						c-14.29,0.65-18.57,0.79-54.76,0.79s-40.47-0.14-54.77-0.79c-13.21-0.6-20.39-2.81-25.16-4.67
						c-6.33-2.46-10.84-5.4-15.59-10.14c-4.74-4.74-7.68-9.26-10.14-15.59c-1.85-4.77-4.06-11.95-4.67-25.17
						c-0.65-14.29-0.79-18.57-0.79-54.76s0.14-40.47,0.79-54.76c0.61-13.22,2.81-20.39,4.67-25.17c2.46-6.33,5.4-10.84,10.14-15.58
						s9.26-7.68,15.59-10.14c4.77-1.86,11.95-4.07,25.16-4.67C184.91,117.68,189.2,117.55,225.39,117.55 M225.39,93.13
						c-36.81,0-41.42,0.16-55.88,0.82c-14.43,0.66-24.28,2.95-32.9,6.3c-8.91,3.46-16.47,8.1-24.01,15.63
						c-7.53,7.53-12.17,15.09-15.63,24.01c-3.35,8.62-5.64,18.47-6.3,32.9c-0.66,14.46-0.82,19.07-0.82,55.88s0.16,41.42,0.82,55.88
						c0.66,14.43,2.95,24.28,6.3,32.9c3.46,8.91,8.09,16.47,15.63,24.01c7.54,7.53,15.09,12.17,24.01,15.63
						c8.62,3.35,18.47,5.64,32.9,6.3c14.46,0.66,19.07,0.81,55.88,0.81s41.42-0.16,55.88-0.81c14.43-0.66,24.28-2.95,32.9-6.3
						c8.91-3.46,16.47-8.1,24.01-15.63s12.17-15.09,15.63-24.01c3.35-8.62,5.64-18.47,6.3-32.9c0.66-14.46,0.81-19.07,0.81-55.88
						s-0.16-41.42-0.81-55.88c-0.66-14.43-2.95-24.28-6.3-32.9c-3.46-8.91-8.1-16.47-15.63-24.01s-15.09-12.17-24.01-15.63
						c-8.62-3.35-18.47-5.64-32.9-6.3C266.81,93.28,262.2,93.13,225.39,93.13"/>
					<path id="XMLID_61_" d="M314,156.31c0,9.59-8.3,17.25-18.11,16.16c-7.44-0.82-13.49-6.87-14.31-14.31
						c-1.09-9.81,6.57-18.12,16.16-18.12C306.72,140.05,314,147.33,314,156.31"/>
					<path d="M225.38,160.95c-37.38,0-67.7,30.31-67.7,67.7c0,37.4,30.31,67.71,67.7,67.71c37.4,0,67.71-30.31,67.71-67.71
						C293.09,191.26,262.78,160.95,225.38,160.95z M225.38,273.82c-24.94,0-45.17-20.21-45.17-45.17
						c0-24.94,20.23-45.17,45.17-45.17c24.96,0,45.17,20.23,45.17,45.17C270.55,253.61,250.34,273.82,225.38,273.82z"/>
				</g>
				<g>
					<g>
						<g>
							<linearGradient id="XMLID_2_" gradientUnits="userSpaceOnUse" x1="88.854" y1="228.6655" x2="359.924" y2="228.6655">
								<stop  offset="0" style="stop-color:#D8BA39"/>
								<stop  offset="0.6399" style="stop-color:#A98425"/>
								<stop  offset="1" style="stop-color:#936B1C"/>
							</linearGradient>
							<path id="XMLID_50_" class="st7" d="M224.39,117.55c36.19,0,40.47,0.14,54.76,0.79c13.21,0.6,20.39,2.81,25.17,4.67
								c6.33,2.46,10.84,5.39,15.58,10.14c4.74,4.74,7.68,9.26,10.14,15.58c1.86,4.78,4.06,11.95,4.67,25.17
								c0.65,14.29,0.79,18.58,0.79,54.76c0,36.19-0.14,40.47-0.79,54.76c-0.61,13.22-2.81,20.39-4.67,25.17
								c-2.46,6.33-5.39,10.84-10.14,15.59c-4.74,4.74-9.26,7.68-15.58,10.14c-4.78,1.86-11.96,4.07-25.17,4.67
								c-14.29,0.65-18.57,0.79-54.76,0.79s-40.47-0.14-54.77-0.79c-13.21-0.6-20.39-2.81-25.16-4.67
								c-6.33-2.46-10.84-5.4-15.59-10.14c-4.74-4.74-7.68-9.26-10.14-15.59c-1.85-4.77-4.06-11.95-4.67-25.17
								c-0.65-14.29-0.79-18.57-0.79-54.76s0.14-40.47,0.79-54.76c0.61-13.22,2.81-20.39,4.67-25.17
								c2.46-6.33,5.4-10.84,10.14-15.58s9.26-7.68,15.59-10.14c4.77-1.86,11.95-4.07,25.16-4.67
								C183.91,117.68,188.2,117.55,224.39,117.55 M224.39,93.13c-36.81,0-41.42,0.16-55.88,0.82c-14.43,0.66-24.28,2.95-32.9,6.3
								c-8.91,3.46-16.47,8.1-24.01,15.63c-7.53,7.53-12.17,15.09-15.63,24.01c-3.35,8.62-5.64,18.47-6.3,32.9
								c-0.66,14.46-0.82,19.07-0.82,55.88s0.16,41.42,0.82,55.88c0.66,14.43,2.95,24.28,6.3,32.9c3.46,8.91,8.09,16.47,15.63,24.01
								c7.54,7.53,15.09,12.17,24.01,15.63c8.62,3.35,18.47,5.64,32.9,6.3c14.46,0.66,19.07,0.81,55.88,0.81s41.42-0.16,55.88-0.81
								c14.43-0.66,24.28-2.95,32.9-6.3c8.91-3.46,16.47-8.1,24.01-15.63s12.17-15.09,15.63-24.01c3.35-8.62,5.64-18.47,6.3-32.9
								c0.66-14.46,0.81-19.07,0.81-55.88s-0.16-41.42-0.81-55.88c-0.66-14.43-2.95-24.28-6.3-32.9
								c-3.46-8.91-8.1-16.47-15.63-24.01s-15.09-12.17-24.01-15.63c-8.62-3.35-18.47-5.64-32.9-6.3
								C265.81,93.28,261.2,93.13,224.39,93.13"/>
							<linearGradient id="XMLID_3_" gradientUnits="userSpaceOnUse" x1="280.4805" y1="156.3073" x2="313.004" y2="156.3073">
								<stop  offset="0" style="stop-color:#D8BA39"/>
								<stop  offset="0.6399" style="stop-color:#A98425"/>
								<stop  offset="1" style="stop-color:#936B1C"/>
							</linearGradient>
							<path id="XMLID_49_" class="st8" d="M313,156.31c0,9.59-8.3,17.25-18.11,16.16c-7.44-0.82-13.49-6.87-14.31-14.31
								c-1.09-9.81,6.57-18.12,16.16-18.12C305.72,140.05,313,147.33,313,156.31"/>
							<linearGradient id="SVGID_3_" gradientUnits="userSpaceOnUse" x1="156.684" y1="228.6555" x2="292.094" y2="228.6555">
								<stop  offset="0" style="stop-color:#D8BA39"/>
								<stop  offset="0.6399" style="stop-color:#A98425"/>
								<stop  offset="1" style="stop-color:#936B1C"/>
							</linearGradient>
							<path class="st9" d="M224.38,160.95c-37.38,0-67.7,30.31-67.7,67.7c0,37.4,30.31,67.71,67.7,67.71
								c37.4,0,67.71-30.31,67.71-67.71C292.09,191.26,261.78,160.95,224.38,160.95z M224.38,273.82
								c-24.94,0-45.17-20.21-45.17-45.17c0-24.94,20.23-45.17,45.17-45.17c24.96,0,45.17,20.23,45.17,45.17
								C269.55,253.61,249.34,273.82,224.38,273.82z"/>
						</g>
						<g>
							<g>
								<linearGradient id="XMLID_4_" gradientUnits="userSpaceOnUse" x1="87.854" y1="226.6655" x2="358.924" y2="226.6655">
									<stop  offset="0" style="stop-color:#D8BA39"/>
									<stop  offset="0.6399" style="stop-color:#A98425"/>
									<stop  offset="1" style="stop-color:#936B1C"/>
								</linearGradient>
								<path id="XMLID_48_" class="st10" d="M223.39,115.55c36.19,0,40.47,0.14,54.76,0.79c13.21,0.6,20.39,2.81,25.17,4.67
									c6.33,2.46,10.84,5.39,15.58,10.14c4.74,4.74,7.68,9.26,10.14,15.58c1.86,4.78,4.06,11.95,4.67,25.17
									c0.65,14.29,0.79,18.58,0.79,54.76c0,36.19-0.14,40.47-0.79,54.76c-0.61,13.22-2.81,20.39-4.67,25.17
									c-2.46,6.33-5.39,10.84-10.14,15.59c-4.74,4.74-9.26,7.68-15.58,10.14c-4.78,1.86-11.96,4.07-25.17,4.67
									c-14.29,0.65-18.57,0.79-54.76,0.79s-40.47-0.14-54.77-0.79c-13.21-0.6-20.39-2.81-25.16-4.67
									c-6.33-2.46-10.84-5.4-15.59-10.14c-4.74-4.74-7.68-9.26-10.14-15.59c-1.85-4.77-4.06-11.95-4.67-25.17
									c-0.65-14.29-0.79-18.57-0.79-54.76s0.14-40.47,0.79-54.76c0.61-13.22,2.81-20.39,4.67-25.17
									c2.46-6.33,5.4-10.84,10.14-15.58c4.74-4.74,9.26-7.68,15.59-10.14c4.77-1.86,11.95-4.07,25.16-4.67
									C182.91,115.68,187.2,115.55,223.39,115.55 M223.39,91.13c-36.81,0-41.42,0.16-55.88,0.82c-14.43,0.66-24.28,2.95-32.9,6.3
									c-8.91,3.46-16.47,8.1-24.01,15.63c-7.53,7.53-12.17,15.09-15.63,24.01c-3.35,8.62-5.64,18.47-6.3,32.9
									c-0.66,14.46-0.82,19.07-0.82,55.88s0.16,41.42,0.82,55.88c0.66,14.43,2.95,24.28,6.3,32.9
									c3.46,8.91,8.09,16.47,15.63,24.01c7.54,7.53,15.09,12.17,24.01,15.63c8.62,3.35,18.47,5.64,32.9,6.3
									c14.46,0.66,19.07,0.81,55.88,0.81s41.42-0.16,55.88-0.81c14.43-0.66,24.28-2.95,32.9-6.3c8.91-3.46,16.47-8.1,24.01-15.63
									s12.17-15.09,15.63-24.01c3.35-8.62,5.64-18.47,6.3-32.9c0.66-14.46,0.81-19.07,0.81-55.88s-0.16-41.42-0.81-55.88
									c-0.66-14.43-2.95-24.28-6.3-32.9c-3.46-8.91-8.1-16.47-15.63-24.01s-15.09-12.17-24.01-15.63
									c-8.62-3.35-18.47-5.64-32.9-6.3C264.81,91.28,260.2,91.13,223.39,91.13"/>
								<linearGradient id="XMLID_5_" gradientUnits="userSpaceOnUse" x1="279.4805" y1="154.3073" x2="312.004" y2="154.3073">
									<stop  offset="0" style="stop-color:#D8BA39"/>
									<stop  offset="0.6399" style="stop-color:#A98425"/>
									<stop  offset="1" style="stop-color:#936B1C"/>
								</linearGradient>
								<path id="XMLID_47_" class="st11" d="M312,154.31c0,9.59-8.3,17.25-18.11,16.16c-7.44-0.82-13.49-6.87-14.31-14.31
									c-1.09-9.81,6.57-18.12,16.16-18.12C304.72,138.05,312,145.33,312,154.31"/>
								<linearGradient id="SVGID_4_" gradientUnits="userSpaceOnUse" x1="155.684" y1="226.6555" x2="291.094" y2="226.6555">
									<stop  offset="0" style="stop-color:#D8BA39"/>
									<stop  offset="0.6399" style="stop-color:#A98425"/>
									<stop  offset="1" style="stop-color:#936B1C"/>
								</linearGradient>
								<path class="st12" d="M223.38,158.95c-37.38,0-67.7,30.31-67.7,67.7c0,37.4,30.31,67.71,67.7,67.71
									c37.4,0,67.71-30.31,67.71-67.71C291.09,189.26,260.78,158.95,223.38,158.95z M223.38,271.82
									c-24.94,0-45.17-20.21-45.17-45.17c0-24.94,20.23-45.17,45.17-45.17c24.96,0,45.17,20.23,45.17,45.17
									C268.55,251.61,248.34,271.82,223.38,271.82z"/>
							</g>
						</g>
					</g>
				</g>
			</g>
		</g>
		<g class="st3">
			<g class="st6">
				<linearGradient id="SVGID_6_" gradientUnits="userSpaceOnUse" x1="85.5346" y1="230.0483" x2="367.6205" y2="230.0483">
					<stop  offset="0" style="stop-color:#D8BA39"/>
					<stop  offset="0.2024" style="stop-color:#D0B136"/>
					<stop  offset="0.5389" style="stop-color:#BA972C"/>
					<stop  offset="0.9657" style="stop-color:#966E1D"/>
					<stop  offset="0.9944" style="stop-color:#936B1C"/>
				</linearGradient>
				<path class="st13" d="M319.93,89H133.2c-26.33,0-47.67,21.34-47.67,47.67v186.75c0,26.33,21.34,47.68,47.67,47.68h91.44V256.19
					h-30.16v-38.78h30.16c0,0,0-25.34,0-31.02s-1.14-43.63,47.44-43.63c6.51,0,22.99,0,35.99,0c0,16.48,0,34.33,0,39.48
					c-9.73,0-21.94,0-26.92,0s-10.03,5.22-10.03,9.09s0,25.93,0,25.93s31.15,0,35.2,0c-1.41,19.89-4.31,38.93-4.31,38.93h-31.06
					v114.9h49c26.33,0,47.68-21.34,47.68-47.68V136.67C367.61,110.34,346.27,89,319.93,89z"/>
			</g>
		</g>
		<g>
			<g>
				<path d="M227.04,80.09c-74.47,0-134.94,60.47-134.94,134.94c0,74.58,60.47,135.05,134.94,135.05
					c74.58,0,135.05-60.47,135.05-135.05C362.09,140.56,301.62,80.09,227.04,80.09L227.04,80.09z M289.4,294.21
					c-1.64,3.06-4.85,4.79-8.06,4.79c-1.58,0-3.06-0.33-4.53-1.16c-21.6-11.86-46.15-18.2-70.93-18.2c-14.85,0-29.59,2.21-43.6,6.58
					c-4.93,1.49-10.12-1.22-11.62-6.09c-1.47-4.85,1.24-15.23,6.09-16.81c15.9-4.85,32.4-7.41,49.13-7.41
					c27.93,0,55.59,7.08,79.92,20.52C290.31,278.9,291.9,289.67,289.4,294.21L289.4,294.21z M306.56,243.38
					c-1.9,3.71-5.69,9.73-9.56,9.73c-1.73,0-3.37-0.4-5.01-1.22c-26.79-13.94-55.71-20.95-86.1-20.95c-16.73,0-33.31,2.15-49.36,6.6
					c-5.78,1.56-11.7-1.82-13.27-7.6c-1.56-5.84,1.82-15.65,7.57-17.21c17.89-4.85,36.42-7.34,55.05-7.34
					c33.37,0,66.65,8.08,96.05,23.41C307.29,231.53,309.36,238.02,306.56,243.38L306.56,243.38z M313.73,202.61
					c-1.82,0-3.71-0.42-5.44-1.24c-31.97-15.99-66.4-24.06-102.4-24.06c-18.71,0-37.33,2.32-55.45,6.77
					c-6.69,1.64-13.35-2.4-14.99-8.99c-1.64-6.69,2.38-14.66,8.96-16.32c20.12-4.93,40.7-7.49,61.49-7.49
					c39.77,0,78.01,8.99,113.37,26.62c6.15,3.04,8.65,10.46,5.59,16.64C322.71,198.81,318.34,202.61,313.73,202.61L313.73,202.61z"
					/>
				<path d="M224.95,78c-74.47,0-134.94,60.47-134.94,134.94c0,74.58,60.47,135.05,134.94,135.05
					c74.58,0,135.05-60.47,135.05-135.05C360,138.47,299.53,78,224.95,78L224.95,78z M287.31,292.12c-1.64,3.06-4.85,4.79-8.06,4.79
					c-1.58,0-3.06-0.33-4.53-1.16c-21.6-11.86-46.15-18.2-70.93-18.2c-14.85,0-29.59,2.21-43.6,6.58
					c-4.93,1.49-10.12-1.22-11.62-6.09c-1.47-4.85,1.24-15.23,6.09-16.81c15.9-4.85,32.4-7.41,49.13-7.41
					c27.93,0,55.59,7.08,79.92,20.52C288.22,276.81,289.81,287.58,287.31,292.12L287.31,292.12z M304.47,241.29
					c-1.9,3.71-5.69,9.73-9.56,9.73c-1.73,0-3.37-0.4-5.01-1.22c-26.79-13.94-55.71-20.95-86.1-20.95c-16.73,0-33.31,2.15-49.36,6.6
					c-5.78,1.56-11.7-1.82-13.27-7.6c-1.56-5.84,1.82-15.65,7.57-17.21c17.89-4.85,36.42-7.34,55.05-7.34
					c33.37,0,66.65,8.08,96.05,23.41C305.2,229.44,307.27,235.93,304.47,241.29L304.47,241.29z M311.64,200.52
					c-1.82,0-3.71-0.42-5.44-1.24c-31.97-15.99-66.4-24.06-102.4-24.06c-18.71,0-37.33,2.32-55.45,6.77
					c-6.69,1.64-13.35-2.4-14.99-8.99c-1.64-6.69,2.38-14.66,8.96-16.32c20.12-4.93,40.7-7.49,61.49-7.49
					c39.77,0,78.01,8.99,113.37,26.62c6.15,3.04,8.65,10.46,5.59,16.64C320.62,196.72,316.25,200.52,311.64,200.52L311.64,200.52z"
					/>
			</g>
			<g>
				<g>
					<g>
						<linearGradient id="SVGID_8_" gradientUnits="userSpaceOnUse" x1="91.0965" y1="214.0853" x2="361.088" y2="214.0853">
							<stop  offset="0" style="stop-color:#D7B939"/>
							<stop  offset="0.2064" style="stop-color:#CFB035"/>
							<stop  offset="0.5494" style="stop-color:#B9962C"/>
							<stop  offset="0.9845" style="stop-color:#956D1C"/>
							<stop  offset="0.9944" style="stop-color:#946C1C"/>
						</linearGradient>
						<path class="st14" d="M226.04,79.09c-74.47,0-134.94,60.47-134.94,134.94c0,74.58,60.47,135.05,134.94,135.05
							c74.58,0,135.05-60.47,135.05-135.05C361.09,139.56,300.62,79.09,226.04,79.09L226.04,79.09z M288.4,293.21
							c-1.64,3.06-4.85,4.79-8.06,4.79c-1.58,0-3.06-0.33-4.53-1.16c-21.6-11.86-46.15-18.2-70.93-18.2
							c-14.85,0-29.59,2.21-43.6,6.58c-4.93,1.49-10.12-1.22-11.62-6.09c-1.47-4.85,1.24-15.23,6.09-16.81
							c15.9-4.85,32.4-7.41,49.13-7.41c27.93,0,55.59,7.08,79.92,20.52C289.31,277.9,290.9,288.67,288.4,293.21L288.4,293.21z
							 M305.56,242.38c-1.9,3.71-5.69,9.73-9.56,9.73c-1.73,0-3.37-0.4-5.01-1.22c-26.79-13.94-55.71-20.95-86.1-20.95
							c-16.73,0-33.31,2.15-49.36,6.6c-5.78,1.56-11.7-1.82-13.27-7.6c-1.56-5.84,1.82-15.65,7.57-17.21
							c17.89-4.85,36.42-7.34,55.05-7.34c33.37,0,66.65,8.08,96.05,23.41C306.29,230.53,308.36,237.02,305.56,242.38L305.56,242.38z
							 M312.73,201.61c-1.82,0-3.71-0.42-5.44-1.24c-31.97-15.99-66.4-24.06-102.4-24.06c-18.71,0-37.33,2.32-55.45,6.77
							c-6.69,1.64-13.35-2.4-14.99-8.99c-1.64-6.69,2.38-14.66,8.96-16.32c20.12-4.93,40.7-7.49,61.49-7.49
							c39.77,0,78.01,8.99,113.37,26.62c6.15,3.04,8.65,10.46,5.59,16.64C321.71,197.81,317.34,201.61,312.73,201.61L312.73,201.61z
							"/>
					</g>
					<g>
						<g>
							
								<linearGradient id="SVGID_10_" gradientUnits="userSpaceOnUse" x1="89.0069" y1="240.0043" x2="358.9984" y2="240.0043" gradientTransform="matrix(1 0 0 -1 0 452)">
								<stop  offset="0" style="stop-color:#D7B939"/>
								<stop  offset="0.2064" style="stop-color:#CFB035"/>
								<stop  offset="0.5494" style="stop-color:#B9962C"/>
								<stop  offset="0.9845" style="stop-color:#956D1C"/>
								<stop  offset="0.9944" style="stop-color:#946C1C"/>
							</linearGradient>
							<path class="st15" d="M223.95,77c-74.47,0-134.94,60.47-134.94,134.94c0,74.58,60.47,135.05,134.94,135.05
								c74.58,0,135.05-60.47,135.05-135.05C359,137.47,298.53,77,223.95,77L223.95,77z M286.31,291.12
								c-1.64,3.06-4.85,4.79-8.06,4.79c-1.58,0-3.06-0.33-4.53-1.16c-21.6-11.86-46.15-18.2-70.93-18.2
								c-14.85,0-29.59,2.21-43.6,6.58c-4.93,1.49-10.12-1.22-11.62-6.09c-1.47-4.85,1.24-15.23,6.09-16.81
								c15.9-4.85,32.4-7.41,49.13-7.41c27.93,0,55.59,7.08,79.92,20.52C287.22,275.81,288.81,286.58,286.31,291.12L286.31,291.12z
								 M303.47,240.29c-1.9,3.71-5.69,9.73-9.56,9.73c-1.73,0-3.37-0.4-5.01-1.22c-26.79-13.94-55.71-20.95-86.1-20.95
								c-16.73,0-33.31,2.15-49.36,6.6c-5.78,1.56-11.7-1.82-13.27-7.6c-1.56-5.84,1.82-15.65,7.57-17.21
								c17.89-4.85,36.42-7.34,55.05-7.34c33.37,0,66.65,8.08,96.05,23.41C304.2,228.44,306.27,234.93,303.47,240.29L303.47,240.29z
								 M310.64,199.52c-1.82,0-3.71-0.42-5.44-1.24c-31.97-15.99-66.4-24.06-102.4-24.06c-18.71,0-37.33,2.32-55.45,6.77
								c-6.69,1.64-13.35-2.4-14.99-8.99c-1.64-6.69,2.38-14.66,8.96-16.32c20.12-4.93,40.7-7.49,61.49-7.49
								c39.77,0,78.01,8.99,113.37,26.62c6.15,3.04,8.65,10.46,5.59,16.64C319.62,195.72,315.25,199.52,310.64,199.52L310.64,199.52
								z"/>
						</g>
					</g>
				</g>
			</g>
		</g>
	</g>
	<g>
		<g>
			<g>
				<defs>
					<rect id="SVGID_5_" x="51.58" y="338" width="345.67" height="76.11"/>
				</defs>
				<clipPath id="SVGID_12_">
					<use xlink:href="#SVGID_5_"  style="overflow:visible;"/>
				</clipPath>
			</g>
			<polygon points="73.79,435.7 73.79,377.98 22.32,377.98 41.53,407.94 22.32,435.7 			"/>
			<polygon points="374.53,435.54 374.53,377.81 426,377.81 406.79,407.77 426,435.54 			"/>
			<rect x="51.58" y="338" width="345.67" height="76.11"/>
			<polygon points="375.01,435.54 397.06,413.95 374.64,413.73 			"/>
			<polygon points="73.94,435.7 51.9,414.11 74.32,413.89 			"/>
			<g>
				<defs>
					<rect id="SVGID_7_" x="51.58" y="338" width="345.67" height="76.11"/>
				</defs>
				<clipPath id="SVGID_13_">
					<use xlink:href="#SVGID_7_"  style="overflow:visible;"/>
				</clipPath>
				<path class="st16" d="M7.39,345.64c1.63,0,423.42,0,423.42,0"/>
				<path class="st16" d="M7.39,406.51c1.63,0,423.42,0,423.42,0"/>
				<rect x="133.31" y="318.71" class="st17" width="28.08" height="137.8"/>
				<rect x="166.94" y="318.71" class="st17" width="8.06" height="137.8"/>
				<rect x="178.06" y="295.97" class="st17" width="2.64" height="137.8"/>
				<rect x="269.71" y="295.28" class="st17" width="32.92" height="137.8"/>
				<rect x="306.15" y="295.28" class="st17" width="9.82" height="137.8"/>
			</g>
			<g>
				<defs>
					<rect id="SVGID_9_" x="51.58" y="338" width="345.67" height="76.11"/>
				</defs>
				<clipPath id="SVGID_14_">
					<use xlink:href="#SVGID_9_"  style="overflow:visible;"/>
				</clipPath>
			</g>
		</g>
		<g>
			<g>
				<g>
					<g>
						<defs>
							<rect id="SVGID_11_" x="50.58" y="337" width="345.67" height="76.11"/>
						</defs>
						<clipPath id="SVGID_15_">
							<use xlink:href="#SVGID_11_"  style="overflow:visible;"/>
						</clipPath>
					</g>
				</g>
			</g>
			<g>
				<g>
					<linearGradient id="SVGID_16_" gradientUnits="userSpaceOnUse" x1="21.3223" y1="405.8402" x2="72.7876" y2="405.8402">
						<stop  offset="0" style="stop-color:#EAAC53"/>
						<stop  offset="0.0175" style="stop-color:#E8AA50"/>
						<stop  offset="0.2659" style="stop-color:#CD9031"/>
						<stop  offset="0.5058" style="stop-color:#BA7D1A"/>
						<stop  offset="0.7315" style="stop-color:#AE720C"/>
						<stop  offset="0.9285" style="stop-color:#AA6E07"/>
					</linearGradient>
					<polygon class="st18" points="72.79,434.7 72.79,376.98 21.32,376.98 40.53,406.94 21.32,434.7 					"/>
					
						<linearGradient id="SVGID_17_" gradientUnits="userSpaceOnUse" x1="388" y1="405.6789" x2="439.4653" y2="405.6789" gradientTransform="matrix(-1 0 0 1 813 0)">
						<stop  offset="0" style="stop-color:#EAAC53"/>
						<stop  offset="0.0175" style="stop-color:#E8AA50"/>
						<stop  offset="0.2659" style="stop-color:#CD9031"/>
						<stop  offset="0.5058" style="stop-color:#BA7D1A"/>
						<stop  offset="0.7315" style="stop-color:#AE720C"/>
						<stop  offset="0.9285" style="stop-color:#AA6E07"/>
					</linearGradient>
					<polygon class="st19" points="373.53,434.54 373.53,376.81 425,376.81 405.79,406.77 425,434.54 					"/>
					<linearGradient id="SVGID_19_" gradientUnits="userSpaceOnUse" x1="50.5789" y1="375.0564" x2="396.2528" y2="375.0564">
						<stop  offset="0" style="stop-color:#8D6627"/>
						<stop  offset="0.0453" style="stop-color:#B8873B"/>
						<stop  offset="0.0896" style="stop-color:#DCA24D"/>
						<stop  offset="0.1131" style="stop-color:#EAAC53"/>
						<stop  offset="0.1185" style="stop-color:#E8AA50"/>
						<stop  offset="0.194" style="stop-color:#CD9031"/>
						<stop  offset="0.2671" style="stop-color:#BA7D1A"/>
						<stop  offset="0.3357" style="stop-color:#AE720C"/>
						<stop  offset="0.3957" style="stop-color:#AA6E07"/>
						<stop  offset="0.5898" style="stop-color:#CA8D2D"/>
						<stop  offset="0.7668" style="stop-color:#EAAC53"/>
						<stop  offset="0.8523" style="stop-color:#CB9544"/>
						<stop  offset="1" style="stop-color:#8D6627"/>
					</linearGradient>
					<rect x="50.58" y="337" class="st20" width="345.67" height="76.11"/>
					<linearGradient id="SVGID_20_" gradientUnits="userSpaceOnUse" x1="373.6404" y1="423.6361" x2="396.0607" y2="423.6361">
						<stop  offset="0.0685" style="stop-color:#804601"/>
						<stop  offset="0.8294" style="stop-color:#804601"/>
					</linearGradient>
					<polygon class="st21" points="374.01,434.54 396.06,412.95 373.64,412.73 					"/>
					
						<linearGradient id="SVGID_21_" gradientUnits="userSpaceOnUse" x1="799.6836" y1="423.7975" x2="822.1038" y2="423.7975" gradientTransform="matrix(-1 0 0 1 873 0)">
						<stop  offset="0.0685" style="stop-color:#804601"/>
						<stop  offset="0.8294" style="stop-color:#804601"/>
					</linearGradient>
					<polygon class="st22" points="72.94,434.7 50.9,413.11 73.32,412.89 					"/>
					<g>
						<defs>
							<rect id="SVGID_18_" x="50.58" y="337" width="345.67" height="76.11"/>
						</defs>
						<clipPath id="SVGID_22_">
							<use xlink:href="#SVGID_18_"  style="overflow:visible;"/>
						</clipPath>
						<linearGradient id="SVGID_23_" gradientUnits="userSpaceOnUse" x1="6.3884" y1="344.6438" x2="429.8069" y2="344.6438">
							<stop  offset="0" style="stop-color:#8D6627"/>
							<stop  offset="0.2558" style="stop-color:#CBA86D"/>
							<stop  offset="0.4747" style="stop-color:#FCDCA5"/>
							<stop  offset="0.5523" style="stop-color:#F3D29A"/>
							<stop  offset="0.6871" style="stop-color:#DAB77E"/>
							<stop  offset="0.8618" style="stop-color:#B18D50"/>
							<stop  offset="1" style="stop-color:#8D6627"/>
						</linearGradient>
						<path class="st23" d="M6.39,344.64c1.63,0,423.42,0,423.42,0"/>
						<linearGradient id="SVGID_24_" gradientUnits="userSpaceOnUse" x1="6.3884" y1="405.5129" x2="429.8069" y2="405.5129">
							<stop  offset="0" style="stop-color:#8D6627"/>
							<stop  offset="0.2558" style="stop-color:#CBA86D"/>
							<stop  offset="0.4747" style="stop-color:#FCDCA5"/>
							<stop  offset="0.5523" style="stop-color:#F3D29A"/>
							<stop  offset="0.6871" style="stop-color:#DAB77E"/>
							<stop  offset="0.8618" style="stop-color:#B18D50"/>
							<stop  offset="1" style="stop-color:#8D6627"/>
						</linearGradient>
						<path class="st24" d="M6.39,405.51c1.63,0,423.42,0,423.42,0"/>
						<g class="st25">
							<linearGradient id="SVGID_25_" gradientUnits="userSpaceOnUse" x1="146.3528" y1="455.5051" x2="146.3528" y2="317.7077">
								<stop  offset="0.3188" style="stop-color:#FFFFFF;stop-opacity:0"/>
								<stop  offset="1" style="stop-color:#FFFFFF"/>
							</linearGradient>
							<rect x="132.31" y="317.71" class="st26" width="28.08" height="137.8"/>
							<linearGradient id="SVGID_26_" gradientUnits="userSpaceOnUse" x1="169.9726" y1="455.5051" x2="169.9726" y2="317.7077">
								<stop  offset="0.4764" style="stop-color:#FFFFFF;stop-opacity:0"/>
								<stop  offset="1" style="stop-color:#FFFFFF"/>
							</linearGradient>
							<rect x="165.94" y="317.71" class="st27" width="8.06" height="137.8"/>
							<linearGradient id="SVGID_28_" gradientUnits="userSpaceOnUse" x1="178.3818" y1="432.7686" x2="178.3818" y2="294.9711">
								<stop  offset="0.4764" style="stop-color:#FFFFFF;stop-opacity:0"/>
								<stop  offset="1" style="stop-color:#FFFFFF"/>
							</linearGradient>
							<rect x="177.06" y="294.97" class="st28" width="2.64" height="137.8"/>
						</g>
						<g class="st25">
							<linearGradient id="SVGID_29_" gradientUnits="userSpaceOnUse" x1="285.1701" y1="432.0796" x2="285.1701" y2="294.2821">
								<stop  offset="0.3188" style="stop-color:#FFFFFF;stop-opacity:0"/>
								<stop  offset="1" style="stop-color:#FFFFFF"/>
							</linearGradient>
							<rect x="268.71" y="294.28" class="st29" width="32.92" height="137.8"/>
							<linearGradient id="SVGID_30_" gradientUnits="userSpaceOnUse" x1="310.0621" y1="432.0796" x2="310.0621" y2="294.2821">
								<stop  offset="0.4764" style="stop-color:#FFFFFF;stop-opacity:0"/>
								<stop  offset="1" style="stop-color:#FFFFFF"/>
							</linearGradient>
							<rect x="305.15" y="294.28" class="st30" width="9.82" height="137.8"/>
						</g>
					</g>
				</g>
			</g>
			<g>
				<g>
					<g>
						<defs>
							<rect id="SVGID_27_" x="50.58" y="337" width="345.67" height="76.11"/>
						</defs>
						<clipPath id="SVGID_31_">
							<use xlink:href="#SVGID_27_"  style="overflow:visible;"/>
						</clipPath>
					</g>
				</g>
			</g>
		</g>
	</g>
	<g class="st31">
		<path class="st32" d="M102.62,355.08c1.56,1.61,2.78,3.45,3.66,5.52c0.87,2.07,1.31,4.3,1.31,6.69c0,2.35-0.45,4.55-1.35,6.62
			c-0.9,2.07-2.12,3.89-3.66,5.45c-1.54,1.56-3.36,2.79-5.45,3.69c-2.09,0.9-4.34,1.35-6.73,1.35H68.33v14.7H58.6v-48.99h31.81
			c2.39,0,4.62,0.44,6.69,1.31S101.01,353.51,102.62,355.08z M95.65,372.47c1.38-1.38,2.07-3.11,2.07-5.17c0-1.1-0.2-2.1-0.59-3
			c-0.39-0.9-0.93-1.68-1.62-2.35s-1.47-1.18-2.35-1.55c-0.87-0.37-1.79-0.55-2.76-0.55H68.33v14.7h22.08
			C92.52,374.54,94.27,373.85,95.65,372.47z"/>
		<path class="st32" d="M109.94,349.97h34.36c2.07,0.28,4.01,0.9,5.83,1.86c1.82,0.97,3.38,2.2,4.69,3.69c1.31,1.5,2.35,3.16,3.1,5
			c0.76,1.84,1.14,3.75,1.14,5.73v0.69v0.69c0,1.33-0.18,2.68-0.55,4.04c-0.37,1.36-0.9,2.65-1.59,3.86
			c-0.69,1.22-1.51,2.33-2.45,3.35c-0.94,1.01-1.97,1.86-3.07,2.55l7.87,17.66h-10.83l-6.56-14.9h-22.01v14.9h-9.94V349.97z
			 M119.88,374.26h22.01c1.01,0,1.97-0.18,2.86-0.55s1.69-0.89,2.38-1.55c0.69-0.67,1.23-1.44,1.62-2.31
			c0.39-0.87,0.59-1.84,0.59-2.9c0-0.97-0.21-1.9-0.62-2.79c-0.41-0.9-0.97-1.69-1.66-2.38c-0.69-0.69-1.48-1.24-2.38-1.66
			s-1.83-0.62-2.79-0.62h-22.01V374.26z"/>
		<path class="st32" d="M211.83,359.7h-39.4v9.73h20.49v9.87h-20.49v9.94h39.4v9.87h-49.06v-39.4v-9.66h49.06V359.7z"/>
		<path class="st32" d="M254.9,350.04h9.87v49.06h-9.87v-35.12l-7.87,7.73h0.21l-7.04,6.9l-14.83-14.63v35.12h-9.66v-49.06h9.87
			l14.63,14.7L254.9,350.04z"/>
		<path class="st32" d="M269.71,399.1v-49.13h9.73v49.13H269.71z"/>
		<path class="st32" d="M301.37,399.1c-2.39,0-4.63-0.45-6.73-1.35c-2.09-0.9-3.92-2.13-5.49-3.69c-1.56-1.56-2.79-3.39-3.69-5.49
			c-0.9-2.09-1.34-4.33-1.34-6.73v-31.88h9.66v31.88c0,1.06,0.2,2.04,0.59,2.93c0.39,0.9,0.93,1.68,1.62,2.35
			c0.69,0.67,1.5,1.18,2.42,1.55c0.92,0.37,1.91,0.55,2.97,0.55H316c1.06,0,2.05-0.18,2.97-0.55c0.92-0.37,1.72-0.88,2.42-1.55
			c0.69-0.67,1.23-1.45,1.62-2.35c0.39-0.9,0.59-1.87,0.59-2.93v-31.88h9.66v31.88c0,2.39-0.45,4.63-1.35,6.73
			c-0.9,2.09-2.13,3.92-3.69,5.49c-1.56,1.56-3.39,2.79-5.49,3.69c-2.09,0.9-4.34,1.35-6.73,1.35H301.37z"/>
		<path class="st32" d="M377.09,350.04h9.87v49.06h-9.87v-35.12l-7.87,7.73h0.21l-7.04,6.9l-14.83-14.63v35.12h-9.66v-49.06h9.87
			l14.63,14.7L377.09,350.04z"/>
	</g>
	<g id="Capa_2_1_" class="st3">
		<polyline class="st5" points="157.46,411.56 99.13,379.71 54.98,329.99 28.38,259.69 25.82,213.64 44.64,130.33 112.6,62.98 
			184.92,33.53 221.42,30.5 276.98,38.07 338.42,74.5 369.28,97.4 400.01,145.21 414.55,192.76 414.55,258.96 391.37,323.98 
			351.64,372.92 306.02,403.17 240.27,421.15 189.63,419.51 		"/>
	</g>
	<g id="Capa_1_2_" class="st3">
		<g class="st6">
			<path class="st1" d="M18.19,223.53c0.93-105.06,82.49-189.9,180.65-200.02c64.46-6.65,120.75,12.29,167.21,57.75
				c34.47,33.73,54.62,75.06,59.37,123.18c6.32,64.02-12.68,119.89-57.89,165.72c-40.69,41.25-90.7,61.04-148.89,60.54
				C110.25,429.76,16.12,338.92,18.19,223.53z M221.97,24.44C110.78,24.46,20.18,114.99,20.35,226.81
				C20.52,338.3,111,428.66,222.61,428.57c111.34-0.09,201.88-90.4,201.87-202.16C424.46,114.79,333.83,24.04,221.97,24.44z"/>
			<path class="st2" d="M221.97,24.44c111.87-0.4,202.49,90.35,202.51,201.98c0.01,111.77-90.52,202.07-201.87,202.16
				C111,428.67,20.52,338.3,20.35,226.81C20.18,114.99,110.78,24.46,221.97,24.44z M221.73,30.46
				C114.55,29.01,25.72,117.34,25.47,224.91c-0.26,108.44,85.1,196.96,195.81,197.1c109.47,0.14,195.51-87.31,196.03-195.43
				C417.84,117.13,328.08,29.36,221.73,30.46z"/>
			<path class="st1" d="M221.73,30.46c106.35-1.1,196.11,86.67,195.59,196.13c-0.52,108.12-86.56,195.57-196.03,195.43
				c-110.71-0.14-196.07-88.66-195.81-197.1C25.72,117.34,114.55,29.01,221.73,30.46z M39.93,226.24
				c-0.1,100.4,81.55,182.44,181.85,182.75c100.58,0.31,182.92-81.55,183.08-182.01C405.03,126.3,323.45,44.3,222.78,43.96
				C122.42,43.62,40.03,125.75,39.93,226.24z"/>
		</g>
		
			<linearGradient id="SVGID_32_" gradientUnits="userSpaceOnUse" x1="223.5726" y1="346.0095" x2="223.5726" y2="221.3312" gradientTransform="matrix(1 0 0 -1 0 452)">
			<stop  offset="0" style="stop-color:#8799BF"/>
			<stop  offset="0.0811" style="stop-color:#8295BC"/>
			<stop  offset="0.2865" style="stop-color:#778BB5"/>
			<stop  offset="1" style="stop-color:#415C94"/>
		</linearGradient>
		<path class="st33" d="M310.85,94.19H136.29c-24.61,0-44.56,19.95-44.56,44.56v69.76c29.11,11.86,63.92,19.91,101.85,22.75v-17.04
			h28.19c0,0,0-23.69,0-29s-1.07-40.79,44.35-40.79c6.09,0,21.49,0,33.64,0c0,15.41,0,32.09,0,36.91c-9.1,0-20.51,0-25.17,0
			s-9.38,4.88-9.38,8.5s0,24.24,0,24.24s29.12,0,32.91,0c-0.28,3.97-0.63,7.9-0.99,11.63c21.1-4,40.72-9.67,58.29-16.74v-70.23
			C355.42,114.14,335.47,94.19,310.85,94.19z"/>
		<path class="st34" d="M324.48,96.31c-4.3-1.38-8.87-2.13-13.63-2.13H136.29c-4.75,0-9.33,0.75-13.63,2.13H324.48z"/>
	</g>
	<g id="Capa_2_2_" class="st3">
		<polyline class="st5" points="157.49,411.61 99.16,379.76 55.01,330.04 28.41,259.74 25.85,213.69 44.67,130.38 112.63,63.03 
			184.95,33.58 221.45,30.55 277.01,38.12 338.45,74.55 369.31,97.45 400.04,145.26 414.58,192.81 414.58,259.01 391.4,324.03 
			351.67,372.97 306.05,403.22 240.3,421.2 189.66,419.56 		"/>
	</g>
	<g id="Capa_1_3_" class="st3">
		<g>
			<path class="st35" d="M18.22,223.58c0.93-105.06,82.49-189.9,180.65-200.02c64.46-6.65,120.75,12.29,167.21,57.75
				c34.47,33.73,54.62,75.06,59.37,123.18c6.32,64.02-12.68,119.89-57.89,165.72c-40.69,41.25-90.7,61.04-148.89,60.54
				C110.28,429.81,16.15,338.97,18.22,223.58z M222,24.49C110.81,24.51,20.21,115.04,20.38,226.86
				c0.17,111.49,90.65,201.85,202.26,201.76c111.34-0.09,201.88-90.4,201.87-202.16C424.49,114.84,333.86,24.09,222,24.49z"/>
			<path class="st36" d="M222,24.49c111.87-0.4,202.49,90.35,202.51,201.98c0.01,111.77-90.52,202.07-201.87,202.16
				c-111.61,0.09-202.09-90.28-202.26-201.77C20.21,115.04,110.81,24.51,222,24.49z M221.76,30.51
				C114.58,29.06,25.75,117.39,25.5,224.96c-0.26,108.44,85.1,196.96,195.81,197.1c109.47,0.14,195.51-87.31,196.03-195.43
				C417.87,117.18,328.11,29.41,221.76,30.51z"/>
			<path class="st35" d="M221.76,30.51c106.35-1.1,196.11,86.67,195.59,196.13c-0.52,108.12-86.56,195.57-196.03,195.43
				c-110.71-0.14-196.07-88.66-195.81-197.1C25.75,117.39,114.58,29.06,221.76,30.51z M39.96,226.29
				c-0.1,100.4,81.55,182.44,181.85,182.75c100.58,0.31,182.92-81.55,183.08-182.01c0.17-100.68-81.41-182.68-182.08-183.02
				C122.45,43.67,40.06,125.8,39.96,226.29z"/>
		</g>
	</g>
	<g>
	</g>
	<g>
	</g>
	<g>
	</g>
	<g>
	</g>
	<g>
	</g>
	<g>
	</g>
	<g>
	</g>
	<g>
	</g>
	<g>
	</g>
	<g>
	</g>
	<g>
	</g>
	<g>
	</g>
	<g>
	</g>
	<g>
	</g>
	<g>
	</g>
</g>
</svg>
