<?xml version="1.0" encoding="utf-8"?>
<!-- Generator: Adobe Illustrator 24.1.1, SVG Export Plug-In . SVG Version: 6.00 Build 0)  -->
<svg version="1.1" xmlns="http://www.w3.org/2000/svg" xmlns:xlink="http://www.w3.org/1999/xlink" x="0px" y="0px"
	 viewBox="0 0 450 450" style="enable-background:new 0 0 450 450;" xml:space="preserve">
<style type="text/css">
	.st0{fill:#FFFFFF;}
	.st1{fill:#6B6969;}
	.st2{fill:#A8A8A8;}
	.st3{fill:#62509C;}
</style>
<g id="Capa_2">
	<polyline class="st0" points="160.04,410.06 101.71,378.21 57.56,328.49 30.96,258.19 28.4,212.14 47.22,128.83 115.18,61.48 
		187.5,32.03 224,29 279.56,36.57 341,73 371.86,95.9 402.59,143.71 417.13,191.26 417.13,257.46 393.95,322.48 354.22,371.42 
		308.6,401.67 242.85,419.65 192.21,418.01 	"/>
</g>
<g id="Capa_1">
	<g>
		<path class="st1" d="M20.77,222.03C21.7,116.97,103.26,32.13,201.42,22.01c64.46-6.65,120.75,12.29,167.21,57.75
			c34.47,33.73,54.62,75.06,59.37,123.18c6.32,64.02-12.68,119.89-57.89,165.72c-40.69,41.25-90.7,61.04-148.89,60.54
			C112.83,428.26,18.7,337.42,20.77,222.03z M224.55,22.94C113.36,22.96,22.76,113.49,22.93,225.31
			c0.17,111.49,90.65,201.85,202.26,201.76c111.34-0.09,201.88-90.4,201.87-202.16C427.04,113.29,336.41,22.54,224.55,22.94z"/>
		<path class="st2" d="M224.55,22.94c111.87-0.4,202.49,90.35,202.51,201.98c0.01,111.77-90.52,202.07-201.87,202.16
			C113.58,427.17,23.1,336.8,22.93,225.31C22.76,113.49,113.36,22.96,224.55,22.94z M224.31,28.96
			C117.13,27.51,28.3,115.84,28.05,223.41c-0.26,108.44,85.1,196.96,195.81,197.1c109.47,0.14,195.51-87.31,196.03-195.43
			C420.42,115.63,330.66,27.86,224.31,28.96z"/>
		<path class="st1" d="M224.31,28.96c106.35-1.1,196.11,86.67,195.59,196.13c-0.52,108.12-86.56,195.57-196.03,195.43
			c-110.71-0.14-196.07-88.66-195.81-197.1C28.3,115.84,117.13,27.51,224.31,28.96z M42.51,224.74
			c-0.1,100.4,81.55,182.44,181.85,182.75c100.58,0.31,182.92-81.55,183.08-182.01C407.61,124.8,326.03,42.8,225.36,42.46
			C125,42.12,42.61,124.25,42.51,224.74z"/>
	</g>
	<g>
		<g>
			<g>
				<polygon points="159.85,113.59 112,161.44 112,333.72 169.48,333.72 169.48,381.57 217.33,333.72 255.62,333.72 341.69,247.58 
					341.69,113.59 				"/>
			</g>
			<g>
				<polygon class="st3" points="157.85,111.59 110,159.44 110,331.72 167.48,331.72 167.48,379.57 215.33,331.72 253.62,331.72 
					339.69,245.58 339.69,111.59 				"/>
			</g>
			
				<animate  accumulate="none" additive="replace" attributeName="points" begin="indefinite" calcMode="spline" dur="150ms" fill="#9147FF" from="13 8 8 13 8 31 14 31 14 36 19 31 23 31 32 22 32 8" keySplines="0.25 0.1 0.25 1" keyTimes="0; 1" restart="always" to="16 5 8 13 8 31 14 31 14 36 19 31 23 31 35 19 35 5">
				</animate>
			
				<animate  accumulate="none" additive="replace" attributeName="points" begin="indefinite" calcMode="spline" dur="250ms" fill="#9147FF" from="16 5 8 13 8 31 14 31 14 36 19 31 23 31 35 19 35 5" keySplines="0.25 0.1 0.25 1" keyTimes="0; 1" restart="always" to="13 8 8 13 8 31 14 31 14 36 19 31 23 31 32 22 32 8">
				</animate>
			
				<animate  accumulate="none" additive="replace" attributeName="points" begin="indefinite" calcMode="spline" dur="50ms" fill="#9147FF" from="16 5 8 13 8 31 14 31 14 36 19 31 23 31 35 19 35 5" keySplines="0.25 0.1 0.25 1" keyTimes="0; 1" restart="always" to="13 8 8 13 8 31 14 31 14 36 19 31 23 31 32 22 32 8">
				</animate>
			
				<animate  accumulate="none" additive="replace" attributeName="points" begin="indefinite" calcMode="spline" dur="75ms" fill="#9147FF" from="13 8 8 13 8 31 14 31 14 36 19 31 23 31 32 22 32 8" keySplines="0.25 0.1 0.25 1" keyTimes="0; 1" restart="always" to="16 5 8 13 8 31 14 31 14 36 19 31 23 31 35 19 35 5">
				</animate>
		</g>
		<g>
			<g>
				<polygon points="284.28,276.24 322.58,238.02 322.58,132.7 169.48,132.7 169.48,276.24 207.7,276.24 207.7,314.54 
					245.99,276.24 				"/>
			</g>
			<g>
				<polygon class="st0" points="282.28,274.24 320.58,236.02 320.58,130.7 167.48,130.7 167.48,274.24 205.7,274.24 205.7,312.54 
					243.99,274.24 				"/>
			</g>
			
				<animateTransform  accumulate="none" additive="replace" attributeName="transform" begin="indefinite" calcMode="spline" dur="150ms" fill="#FFFFFF" from="0 0" keySplines="0.25 0.1 0.25 1" keyTimes="0; 1" restart="always" to="3 -3" type="translate">
				</animateTransform>
			
				<animateTransform  accumulate="none" additive="replace" attributeName="transform" begin="indefinite" calcMode="spline" dur="250ms" fill="#FFFFFF" from="3 -3" keySplines="0.25 0.1 0.25 1" keyTimes="0; 1" restart="always" to="0 0" type="translate">
				</animateTransform>
			
				<animateTransform  accumulate="none" additive="replace" attributeName="transform" begin="indefinite" calcMode="spline" dur="50ms" fill="#FFFFFF" from="3 -3" keySplines="0.25 0.1 0.25 1" keyTimes="0; 1" restart="always" to="0 0" type="translate">
				</animateTransform>
			
				<animateTransform  accumulate="none" additive="replace" attributeName="transform" begin="indefinite" calcMode="spline" dur="75ms" fill="#FFFFFF" from="0 0" keySplines="0.25 0.1 0.25 1" keyTimes="0; 1" restart="always" to="3 -3" type="translate">
				</animateTransform>
		</g>
		<g>
			<path class="st3" d="M224.88,168.99h19.11v57.4h-19.11V168.99z M291.84,168.99v57.4h-19.11v-57.4
				C272.73,168.99,291.84,168.99,291.84,168.99z			">
<animateTransform  accumulate="none" additive="replace" attributeName="transform" begin="indefinite" calcMode="spline" dur="150ms" fill="#9147FF" from="0 0" keySplines="0.25 0.1 0.25 1" keyTimes="0; 1" restart="always" to="3 -3" type="translate">
					</animateTransform>
				
					<animateTransform  accumulate="none" additive="replace" attributeName="transform" begin="indefinite" calcMode="spline" dur="250ms" fill="#9147FF" from="3 -3" keySplines="0.25 0.1 0.25 1" keyTimes="0; 1" restart="always" to="0 0" type="translate">
					</animateTransform>
				
					<animateTransform  accumulate="none" additive="replace" attributeName="transform" begin="indefinite" calcMode="spline" dur="50ms" fill="#9147FF" from="3 -3" keySplines="0.25 0.1 0.25 1" keyTimes="0; 1" restart="always" to="0 0" type="translate">
					</animateTransform>
				
					<animateTransform  accumulate="none" additive="replace" attributeName="transform" begin="indefinite" calcMode="spline" dur="75ms" fill="#9147FF" from="0 0" keySplines="0.25 0.1 0.25 1" keyTimes="0; 1" restart="always" to="3 -3" type="translate">
					</animateTransform>
			</path>
		</g>
	</g>
</g>
</svg>
