<?xml version="1.0" encoding="utf-8"?>
<!-- Generator: Adobe Illustrator 24.1.1, SVG Export Plug-In . SVG Version: 6.00 Build 0)  -->
<svg version="1.1" xmlns="http://www.w3.org/2000/svg" xmlns:xlink="http://www.w3.org/1999/xlink" x="0px" y="0px"
	 viewBox="0 0 450 450" style="enable-background:new 0 0 450 450;" xml:space="preserve">
<style type="text/css">
	.st0{fill:#FFFFFF;}
	.st1{fill:#6B6969;}
	.st2{fill:#A8A8A8;}
	.st3{fill:#37538D;}
	.st4{display:none;fill:url(#SVGID_1_);}
	.st5{fill:#B9C4D9;}
</style>
<g id="Capa_2">
	<polyline class="st0" points="160.04,410.06 101.71,378.21 57.56,328.49 30.96,258.19 28.4,212.14 47.22,128.83 115.18,61.48 
		187.5,32.03 224,29 279.56,36.57 341,73 371.86,95.9 402.59,143.71 417.13,191.26 417.13,257.46 393.95,322.48 354.22,371.42 
		308.6,401.67 242.85,419.65 192.21,418.01 	"/>
</g>
<g id="Capa_1">
	<g>
		<path class="st1" d="M20.77,222.03C21.7,116.97,103.26,32.13,201.42,22.01c64.46-6.65,120.75,12.29,167.21,57.75
			c34.47,33.73,54.62,75.06,59.37,123.18c6.32,64.02-12.68,119.89-57.89,165.72c-40.69,41.25-90.7,61.04-148.89,60.54
			C112.83,428.26,18.7,337.42,20.77,222.03z M224.55,22.94C113.36,22.96,22.76,113.49,22.93,225.31
			c0.17,111.49,90.65,201.85,202.26,201.76c111.34-0.09,201.88-90.4,201.87-202.16C427.04,113.29,336.41,22.54,224.55,22.94z"/>
		<path class="st2" d="M224.55,22.94c111.87-0.4,202.49,90.35,202.51,201.98c0.01,111.77-90.52,202.07-201.87,202.16
			C113.58,427.17,23.1,336.8,22.93,225.31C22.76,113.49,113.36,22.96,224.55,22.94z M224.31,28.96
			C117.13,27.51,28.3,115.84,28.05,223.41c-0.26,108.44,85.1,196.96,195.81,197.1c109.47,0.14,195.51-87.31,196.03-195.43
			C420.42,115.63,330.66,27.86,224.31,28.96z"/>
		<path class="st1" d="M224.31,28.96c106.35-1.1,196.11,86.67,195.59,196.13c-0.52,108.12-86.56,195.57-196.03,195.43
			c-110.71-0.14-196.07-88.66-195.81-197.1C28.3,115.84,117.13,27.51,224.31,28.96z M42.51,224.74
			c-0.1,100.4,81.55,182.44,181.85,182.75c100.58,0.31,182.92-81.55,183.08-182.01C407.61,124.8,326.03,42.8,225.36,42.46
			C125,42.12,42.61,124.25,42.51,224.74z"/>
	</g>
	<g>
		<g>
			<path d="M316.43,96.69H141.87c-24.61,0-44.56,19.95-44.56,44.56v174.58c0,24.61,19.95,44.57,44.56,44.57h85.48V252.98h-28.19
				v-36.25h28.19c0,0,0-23.69,0-29c0-5.31-1.07-40.79,44.35-40.79c6.09,0,21.49,0,33.64,0c0,15.41,0,32.09,0,36.91
				c-9.1,0-20.51,0-25.17,0c-4.66,0-9.38,4.88-9.38,8.5c0,3.62,0,24.24,0,24.24s29.12,0,32.91,0c-1.32,18.59-4.03,36.39-4.03,36.39
				h-29.04v107.41h45.81c24.61,0,44.57-19.95,44.57-44.57V141.25C361,116.64,341.05,96.69,316.43,96.69z"/>
		</g>
		<g>
			<path class="st3" d="M313.43,92.69H138.87c-24.61,0-44.56,19.95-44.56,44.56v174.58c0,24.61,19.95,44.57,44.56,44.57h85.48
				V248.98h-28.19v-36.25h28.19c0,0,0-23.69,0-29c0-5.31-1.07-40.79,44.35-40.79c6.09,0,21.49,0,33.64,0c0,15.41,0,32.09,0,36.91
				c-9.1,0-20.51,0-25.17,0c-4.66,0-9.38,4.88-9.38,8.5c0,3.62,0,24.24,0,24.24s29.12,0,32.91,0c-1.32,18.59-4.03,36.39-4.03,36.39
				h-29.04v107.41h45.81c24.61,0,44.57-19.95,44.57-44.57V137.25C358,112.64,338.05,92.69,313.43,92.69z"/>
		</g>
	</g>
	<linearGradient id="SVGID_1_" gradientUnits="userSpaceOnUse" x1="226.1545" y1="104.4872" x2="226.1545" y2="229.1655">
		<stop  offset="0" style="stop-color:#8799BF"/>
		<stop  offset="0.0811" style="stop-color:#8295BC"/>
		<stop  offset="0.2865" style="stop-color:#778BB5"/>
		<stop  offset="1" style="stop-color:#415C94"/>
	</linearGradient>
	<path class="st4" d="M313.43,92.69H138.87c-24.61,0-44.56,19.95-44.56,44.56v69.76c29.11,11.86,63.92,19.91,101.85,22.75v-17.04
		h28.19c0,0,0-23.69,0-29c0-5.31-1.07-40.79,44.35-40.79c6.09,0,21.49,0,33.64,0c0,15.41,0,32.09,0,36.91c-9.1,0-20.51,0-25.17,0
		c-4.66,0-9.38,4.88-9.38,8.5c0,3.62,0,24.24,0,24.24s29.12,0,32.91,0c-0.28,3.97-0.63,7.9-0.99,11.63
		c21.1-4,40.72-9.67,58.29-16.74v-70.23C358,112.64,338.05,92.69,313.43,92.69z"/>
	<path class="st5" d="M327.06,94.81c-4.3-1.38-8.87-2.13-13.63-2.13H138.87c-4.75,0-9.33,0.75-13.63,2.13H327.06z"/>
</g>
</svg>
