<?xml version="1.0" encoding="utf-8"?>
<!-- Generator: Adobe Illustrator 24.1.1, SVG Export Plug-In . SVG Version: 6.00 Build 0)  -->
<svg version="1.1" xmlns="http://www.w3.org/2000/svg" xmlns:xlink="http://www.w3.org/1999/xlink" x="0px" y="0px"
	 viewBox="0 0 450 450" style="enable-background:new 0 0 450 450;" xml:space="preserve">
<style type="text/css">
	.st0{fill:#FFFFFF;}
	.st1{fill:#6B6969;}
	.st2{fill:#A8A8A8;}
	.st3{fill:url(#SVGID_1_);}
</style>
<g id="Capa_2">
	<polyline class="st0" points="160.04,410.06 101.71,378.21 57.56,328.49 30.96,258.19 28.4,212.14 47.22,128.83 115.18,61.48 
		187.5,32.03 224,29 279.56,36.57 341,73 371.86,95.9 402.59,143.71 417.13,191.26 417.13,257.46 393.95,322.48 354.22,371.42 
		308.6,401.67 242.85,419.65 192.21,418.01 	"/>
</g>
<g id="Capa_1">
	<g>
		<path class="st1" d="M20.77,222.03C21.7,116.97,103.26,32.13,201.42,22.01c64.46-6.65,120.75,12.29,167.21,57.75
			c34.47,33.73,54.62,75.06,59.37,123.18c6.32,64.02-12.68,119.89-57.89,165.72c-40.69,41.25-90.7,61.04-148.89,60.54
			C112.83,428.26,18.7,337.42,20.77,222.03z M224.55,22.94C113.36,22.96,22.76,113.49,22.93,225.31
			c0.17,111.49,90.65,201.85,202.26,201.76c111.34-0.09,201.88-90.4,201.87-202.16C427.04,113.29,336.41,22.54,224.55,22.94z"/>
		<path class="st2" d="M224.55,22.94c111.87-0.4,202.49,90.35,202.51,201.98c0.01,111.77-90.52,202.07-201.87,202.16
			C113.58,427.17,23.1,336.8,22.93,225.31C22.76,113.49,113.36,22.96,224.55,22.94z M224.31,28.96
			C117.13,27.51,28.3,115.84,28.05,223.41c-0.26,108.44,85.1,196.96,195.81,197.1c109.47,0.14,195.51-87.31,196.03-195.43
			C420.42,115.63,330.66,27.86,224.31,28.96z"/>
		<path class="st1" d="M224.31,28.96c106.35-1.1,196.11,86.67,195.59,196.13c-0.52,108.12-86.56,195.57-196.03,195.43
			c-110.71-0.14-196.07-88.66-195.81-197.1C28.3,115.84,117.13,27.51,224.31,28.96z M42.51,224.74
			c-0.1,100.4,81.55,182.44,181.85,182.75c100.58,0.31,182.92-81.55,183.08-182.01C407.61,124.8,326.03,42.8,225.36,42.46
			C125,42.12,42.61,124.25,42.51,224.74z"/>
	</g>
	<g>
		<g>
			<path d="M72.2,269.18c0,3.96,1.43,6.95,4.3,8.98c2.87,2.03,5.93,2.74,9.2,2.15c3.07-0.59,5.22-1.68,6.45-3.26
				c1.24-1.58,1.85-4.2,1.85-7.86v-43.02c0-3.07-1.06-5.66-3.19-7.79c-2.13-2.13-4.72-3.19-7.79-3.19c-2.97,0-5.51,1.06-7.64,3.19
				c-2.13,2.13-3.19,4.72-3.19,7.79V269.18z M106.32,287.57c0,2.87,1.01,5.02,3.04,6.45c2.03,1.43,4.62,2.15,7.79,2.15
				c3.26,0,5.91-0.72,7.94-2.15c2.03-1.43,3.04-3.59,3.04-6.45V187.29c0-2.97-1.06-5.51-3.19-7.64c-2.13-2.13-4.72-3.19-7.79-3.19
				c-2.97,0-5.51,1.06-7.64,3.19c-2.13,2.13-3.19,4.67-3.19,7.64V287.57z M140.29,292.32c0,2.87,1.04,5.02,3.12,6.45
				c2.08,1.43,4.75,2.15,8.01,2.15c3.16,0,5.76-0.72,7.79-2.15c2.03-1.43,3.04-3.59,3.04-6.45v-91.53c0-3.07-1.06-5.69-3.19-7.86
				c-2.13-2.18-4.67-3.26-7.64-3.26c-3.07,0-5.69,1.09-7.86,3.26c-2.18,2.18-3.26,4.8-3.26,7.86L140.29,292.32L140.29,292.32z
				 M174.41,292.77c0,5.44,3.66,8.16,10.98,8.16c7.32,0,10.98-2.72,10.98-8.16V144.42c0-8.31-2.52-13.01-7.57-14.09
				c-3.26-0.79-6.48,0.15-9.64,2.82c-3.16,2.67-4.75,6.43-4.75,11.27L174.41,292.77L174.41,292.77z M209.12,297.07v-161.4
				c0-5.14,1.53-8.21,4.6-9.2c6.63-1.58,13.2-2.37,19.73-2.37c15.13,0,29.22,3.56,42.28,10.68c13.05,7.12,23.61,16.84,31.67,29.15
				c8.06,12.31,12.73,25.89,14.02,40.72c6.03-2.57,12.46-3.86,19.29-3.86c13.85,0,25.69,4.9,35.53,14.69
				c9.84,9.79,14.76,21.56,14.76,35.31c0,13.85-4.92,25.66-14.76,35.46c-9.84,9.79-21.63,14.69-35.38,14.69l-129.06-0.15
				c-0.89-0.3-1.56-0.84-2-1.63C209.35,298.35,209.12,297.66,209.12,297.07L209.12,297.07z"/>
		</g>
		<g>
			
				<linearGradient id="SVGID_1_" gradientUnits="userSpaceOnUse" x1="-340.7718" y1="334.993" x2="-340.7718" y2="334.8715" gradientTransform="matrix(2499.9978 0 0 -1386.6951 852158.25 464660)">
				<stop  offset="0" style="stop-color:#FF8800"/>
				<stop  offset="1" style="stop-color:#FF3300"/>
			</linearGradient>
			<path class="st3" d="M70.2,267.18c0,3.96,1.43,6.95,4.3,8.98c2.87,2.03,5.93,2.74,9.2,2.15c3.07-0.59,5.22-1.68,6.45-3.26
				c1.24-1.58,1.85-4.2,1.85-7.86v-43.02c0-3.07-1.06-5.66-3.19-7.79c-2.13-2.13-4.72-3.19-7.79-3.19c-2.97,0-5.51,1.06-7.64,3.19
				c-2.13,2.13-3.19,4.72-3.19,7.79V267.18z M104.32,285.57c0,2.87,1.01,5.02,3.04,6.45c2.03,1.43,4.62,2.15,7.79,2.15
				c3.26,0,5.91-0.72,7.94-2.15c2.03-1.43,3.04-3.59,3.04-6.45V185.29c0-2.97-1.06-5.51-3.19-7.64c-2.13-2.13-4.72-3.19-7.79-3.19
				c-2.97,0-5.51,1.06-7.64,3.19c-2.13,2.13-3.19,4.67-3.19,7.64V285.57z M138.29,290.32c0,2.87,1.04,5.02,3.12,6.45
				c2.08,1.43,4.75,2.15,8.01,2.15c3.16,0,5.76-0.72,7.79-2.15c2.03-1.43,3.04-3.59,3.04-6.45v-91.53c0-3.07-1.06-5.69-3.19-7.86
				c-2.13-2.18-4.67-3.26-7.64-3.26c-3.07,0-5.69,1.09-7.86,3.26c-2.18,2.18-3.26,4.8-3.26,7.86L138.29,290.32L138.29,290.32z
				 M172.41,290.77c0,5.44,3.66,8.16,10.98,8.16c7.32,0,10.98-2.72,10.98-8.16V142.42c0-8.31-2.52-13.01-7.57-14.09
				c-3.26-0.79-6.48,0.15-9.64,2.82c-3.16,2.67-4.75,6.43-4.75,11.27L172.41,290.77L172.41,290.77z M207.12,295.07v-161.4
				c0-5.14,1.53-8.21,4.6-9.2c6.63-1.58,13.2-2.37,19.73-2.37c15.13,0,29.22,3.56,42.28,10.68c13.05,7.12,23.61,16.84,31.67,29.15
				c8.06,12.31,12.73,25.89,14.02,40.72c6.03-2.57,12.46-3.86,19.29-3.86c13.85,0,25.69,4.9,35.53,14.69
				c9.84,9.79,14.76,21.56,14.76,35.31c0,13.85-4.92,25.66-14.76,35.46c-9.84,9.79-21.63,14.69-35.38,14.69l-129.06-0.15
				c-0.89-0.3-1.56-0.84-2-1.63C207.35,296.35,207.12,295.66,207.12,295.07L207.12,295.07z"/>
		</g>
	</g>
</g>
</svg>
