<?xml version="1.0" encoding="utf-8"?>
<!-- Generator: Adobe Illustrator 24.1.1, SVG Export Plug-In . SVG Version: 6.00 Build 0)  -->
<svg version="1.1" xmlns="http://www.w3.org/2000/svg" xmlns:xlink="http://www.w3.org/1999/xlink" x="0px" y="0px"
	 viewBox="0 0 450 450" style="enable-background:new 0 0 450 450;" xml:space="preserve">
<style type="text/css">
	.st0{fill:#FFFFFF;}
	.st1{fill:#6B6969;}
	.st2{fill:#A8A8A8;}
	.st3{fill:#25F4EE;}
	.st4{fill:#FE2C55;}
</style>
<g id="Capa_2">
	<polyline class="st0" points="160.04,410.06 101.71,378.21 57.56,328.49 30.96,258.19 28.4,212.14 47.22,128.83 115.18,61.48 
		187.5,32.03 224,29 279.56,36.57 341,73 371.86,95.9 402.59,143.71 417.13,191.26 417.13,257.46 393.95,322.48 354.22,371.42 
		308.6,401.67 242.85,419.65 192.21,418.01 	"/>
</g>
<g id="Capa_1">
	<g>
		<path class="st1" d="M20.77,222.03C21.7,116.97,103.26,32.13,201.42,22.01c64.46-6.65,120.75,12.29,167.21,57.75
			c34.47,33.73,54.62,75.06,59.37,123.18c6.32,64.02-12.68,119.89-57.89,165.72c-40.69,41.25-90.7,61.04-148.89,60.54
			C112.83,428.26,18.7,337.42,20.77,222.03z M224.55,22.94C113.36,22.96,22.76,113.49,22.93,225.31
			c0.17,111.49,90.65,201.85,202.26,201.76c111.34-0.09,201.88-90.4,201.87-202.16C427.04,113.29,336.41,22.54,224.55,22.94z"/>
		<path class="st2" d="M224.55,22.94c111.87-0.4,202.49,90.35,202.51,201.98c0.01,111.77-90.52,202.07-201.87,202.16
			C113.58,427.17,23.1,336.8,22.93,225.31C22.76,113.49,113.36,22.96,224.55,22.94z M224.31,28.96
			C117.13,27.51,28.3,115.84,28.05,223.41c-0.26,108.44,85.1,196.96,195.81,197.1c109.47,0.14,195.51-87.31,196.03-195.43
			C420.42,115.63,330.66,27.86,224.31,28.96z"/>
		<path class="st1" d="M224.31,28.96c106.35-1.1,196.11,86.67,195.59,196.13c-0.52,108.12-86.56,195.57-196.03,195.43
			c-110.71-0.14-196.07-88.66-195.81-197.1C28.3,115.84,117.13,27.51,224.31,28.96z M42.51,224.74
			c-0.1,100.4,81.55,182.44,181.85,182.75c100.58,0.31,182.92-81.55,183.08-182.01C407.61,124.8,326.03,42.8,225.36,42.46
			C125,42.12,42.61,124.25,42.51,224.74z"/>
	</g>
	<path d="M291.77,359.25h-134.8c-36.02,0-65.23-29.21-65.23-65.24v-134.8c0-36.02,29.21-65.23,65.23-65.23h134.8
		c36.02,0,65.23,29.21,65.23,65.23v134.8C357.01,330.05,327.8,359.25,291.77,359.25L291.77,359.25z"/>
	<g>
		<path class="st3" d="M201.97,206.88v-8.02c-2.78-0.44-5.59-0.68-8.41-0.72c-27.27-0.05-51.41,17.61-59.6,43.62
			c-8.19,26.01,1.48,54.33,23.86,69.9c-23.48-25.13-22.14-64.54,2.99-88.03C172,213.19,186.66,207.22,201.97,206.88L201.97,206.88z"
			/>
		<path class="st3" d="M203.48,297.68c15.24-0.02,27.77-12.03,28.45-27.26V134.49h24.83c-0.51-2.84-0.75-5.72-0.72-8.6h-33.96
			v135.79c-0.56,15.31-13.13,27.44-28.45,27.46c-4.57-0.04-9.09-1.17-13.14-3.28C185.83,293.25,194.37,297.64,203.48,297.68
			L203.48,297.68z M303.14,180.6v-7.55c-9.14,0-18.08-2.7-25.69-7.75C284.12,173.06,293.14,178.43,303.14,180.6z"/>
	</g>
	<path class="st4" d="M277.46,165.3c-7.5-8.54-11.63-19.52-11.63-30.88h-9.07C259.12,147.12,266.61,158.29,277.46,165.3
		L277.46,165.3z M193.56,232.12c-15.75,0.08-28.45,12.91-28.37,28.66c0.05,10.53,5.91,20.18,15.23,25.09
		c-9.21-12.72-6.37-30.51,6.35-39.73c4.86-3.52,10.71-5.41,16.71-5.4c2.85,0.04,5.69,0.48,8.41,1.32v-34.56
		c-2.78-0.42-5.59-0.64-8.41-0.66h-1.51v26.28C199.23,232.36,196.39,232.03,193.56,232.12L193.56,232.12z"/>
	<path class="st4" d="M303.14,180.6v26.28c-16.92-0.03-33.4-5.39-47.1-15.31v69.04c-0.07,34.45-28.02,62.35-62.47,62.35
		c-12.8,0.02-25.28-3.92-35.74-11.3c23.45,25.21,62.89,26.65,88.12,3.21c12.68-11.79,19.89-28.33,19.89-45.64v-68.85
		c13.75,9.85,30.25,15.14,47.17,15.11v-33.83C309.68,181.64,306.38,181.3,303.14,180.6L303.14,180.6z"/>
	<path class="st0" d="M256.04,260.63v-69.04c13.75,9.86,30.25,15.14,47.17,15.11v-26.28c-9.99-2.11-19.03-7.42-25.75-15.11
		c-10.84-7.02-18.33-18.18-20.69-30.88h-24.83v135.99c-0.65,15.74-13.91,27.97-29.65,27.33c-8.72-0.35-16.8-4.69-21.92-11.75
		c-13.93-7.34-19.28-24.58-11.95-38.51c4.91-9.32,14.55-15.18,25.09-15.23c2.85,0.03,5.69,0.46,8.41,1.31v-26.67
		c-34.39,0.58-61.8,29.33-61.22,63.72c0.26,15.57,6.35,30.48,17.07,41.79c10.56,7.13,23.06,10.83,35.8,10.58
		C228.01,322.98,255.96,295.08,256.04,260.63z"/>
</g>
</svg>
