<?xml version="1.0" encoding="utf-8"?>
<!-- Generator: Adobe Illustrator 24.1.1, SVG Export Plug-In . SVG Version: 6.00 Build 0)  -->
<svg version="1.1" xmlns="http://www.w3.org/2000/svg" xmlns:xlink="http://www.w3.org/1999/xlink" x="0px" y="0px"
	 viewBox="0 0 450 450" style="enable-background:new 0 0 450 450;" xml:space="preserve">
<style type="text/css">
	.st0{fill:#FFFFFF;}
	.st1{fill:#6B6969;}
	.st2{fill:#A8A8A8;}
	.st3{fill:#E03E31;}
</style>
<g id="Capa_2">
	<polyline class="st0" points="160.04,410.06 101.71,378.21 57.56,328.49 30.96,258.19 28.4,212.14 47.22,128.83 115.18,61.48 
		187.5,32.03 224,29 279.56,36.57 341,73 371.86,95.9 402.59,143.71 417.13,191.26 417.13,257.46 393.95,322.48 354.22,371.42 
		308.6,401.67 242.85,419.65 192.21,418.01 	"/>
</g>
<g id="Capa_1">
	<g>
		<path class="st1" d="M20.77,222.03C21.7,116.97,103.26,32.13,201.42,22.01c64.46-6.65,120.75,12.29,167.21,57.75
			c34.47,33.73,54.62,75.06,59.37,123.18c6.32,64.02-12.68,119.89-57.89,165.72c-40.69,41.25-90.7,61.04-148.89,60.54
			C112.83,428.26,18.7,337.42,20.77,222.03z M224.55,22.94C113.36,22.96,22.76,113.49,22.93,225.31
			c0.17,111.49,90.65,201.85,202.26,201.76c111.34-0.09,201.88-90.4,201.87-202.16C427.04,113.29,336.41,22.54,224.55,22.94z"/>
		<path class="st2" d="M224.55,22.94c111.87-0.4,202.49,90.35,202.51,201.98c0.01,111.77-90.52,202.07-201.87,202.16
			C113.58,427.17,23.1,336.8,22.93,225.31C22.76,113.49,113.36,22.96,224.55,22.94z M224.31,28.96
			C117.13,27.51,28.3,115.84,28.05,223.41c-0.26,108.44,85.1,196.96,195.81,197.1c109.47,0.14,195.51-87.31,196.03-195.43
			C420.42,115.63,330.66,27.86,224.31,28.96z"/>
		<path class="st1" d="M224.31,28.96c106.35-1.1,196.11,86.67,195.59,196.13c-0.52,108.12-86.56,195.57-196.03,195.43
			c-110.71-0.14-196.07-88.66-195.81-197.1C28.3,115.84,117.13,27.51,224.31,28.96z M42.51,224.74
			c-0.1,100.4,81.55,182.44,181.85,182.75c100.58,0.31,182.92-81.55,183.08-182.01C407.61,124.8,326.03,42.8,225.36,42.46
			C125,42.12,42.61,124.25,42.51,224.74z"/>
	</g>
	<g>
		<path d="M221.26,359.51c-0.29-0.09-0.57-0.24-0.86-0.26c-8.86-0.49-17.53-2.04-26.07-4.39c-8.99-2.47-17.6-5.89-25.84-10.24
			c-9.35-4.94-18-10.91-25.94-17.91c-8.72-7.69-16.27-16.38-22.72-26.04c-3.76-5.63-7.08-11.51-9.9-17.66
			c-0.14-0.31-0.22-0.64-0.32-0.95c3.68,0,7.26,0,10.86,0c0.9,1.67,1.73,3.24,2.59,4.79c4.4,7.92,9.62,15.25,15.65,22.01
			c7.24,8.1,15.39,15.13,24.5,21.05c8.12,5.28,16.75,9.53,25.89,12.74c6.89,2.42,13.93,4.23,21.15,5.31
			c3.94,0.59,7.93,0.9,11.9,1.21c2.7,0.21,5.41,0.3,8.12,0.27c11.79-0.14,23.33-1.88,34.6-5.36c6.3-1.95,12.41-4.36,18.29-7.3
			c9.74-4.88,18.71-10.93,26.84-18.21c8.26-7.4,15.41-15.74,21.41-25.06c0.91-1.42,1.77-2.88,2.64-4.32
			c0.28-0.47,0.54-0.84,1.2-0.89c3.83-0.26,7.54-1.12,11.21-2.2c0.12-0.04,0.25-0.02,0.51-0.04c-0.11,0.33-0.17,0.61-0.29,0.86
			c-5.05,10.17-11.27,19.55-18.83,28.03c-2.6,2.92-5.27,5.79-8.1,8.49c-6.63,6.35-13.87,11.94-21.7,16.74
			c-8.67,5.32-17.82,9.62-27.49,12.8c-7.27,2.39-14.68,4.21-22.27,5.2c-3.43,0.45-6.88,0.72-10.31,1.09
			c-0.24,0.03-0.47,0.17-0.7,0.26C231.94,359.51,226.6,359.51,221.26,359.51z"/>
		<path d="M292.97,268.83c-0.73-1.13-1.56-1.41-2.83-1.41c-58.86,0.03-117.72,0.03-176.58,0.02c-4.8,0-8.68-1.96-11.72-5.63
			c-2.3-2.79-3.28-6.07-3.3-9.64c-0.02-3.25-0.01-6.5-0.01-9.75c0-11.44-0.01-22.88,0-34.31c0-5.35,2.2-9.54,6.75-12.4
			c2.51-1.57,5.27-2.24,8.25-2.23c61.4,0.01,122.81,0.01,184.21,0.01c-0.21-2.13-0.11-4.3,0.22-6.47c-0.14-1.04-0.18-2.14-0.15-3.28
			c-61.69,0-123.38,0-185.08,0.03c-7.57,0-13.87,3.11-18.73,8.97c-3.67,4.43-5.23,9.63-5.23,15.33
			c-0.01,14.69-0.01,29.37,0.01,44.06c0,1.15,0.06,2.31,0.21,3.46c0.81,6.25,3.56,11.51,8.33,15.64c4.43,3.83,9.6,5.97,15.46,5.97
			c62.06,0.04,124.12,0.02,186.19,0.02h1.13c0.06-0.12,0.13-0.24,0.19-0.36c-0.42-0.32-0.86-0.62-1.26-0.98
			C296.72,273.78,294.66,271.44,292.97,268.83z"/>
		<path d="M320.61,148.02c3.03-1.72,6.25-3.1,9.55-4.04c-6.48-7.79-14.27-15.38-23.45-22.02c-27.12-19.6-57.44-27.85-90.7-24.63
			c-29.71,2.88-55.46,14.85-77.18,35.31c-13.96,13.15-24.43,28.74-31.56,46.66c1.96-0.21,3.71-0.48,5.46-0.57
			c1.77-0.09,3.55-0.02,5.27-0.02c13.87-29.57,35.45-51.12,65.73-63.31c30.18-12.15,60.7-12.14,90.88,0.01
			C293.14,122.89,308.39,133.88,320.61,148.02z"/>
		<path d="M304.06,163.66c0.32-0.54,0.64-1.04,0.94-1.48c1.61-2.32,3.5-4.54,5.6-6.6c-7.52,3.26-15.15,6.11-23,8.51
			c-0.78-2.26-1.51-4.4-2.25-6.53c-4.69-13.39-10.85-26.08-18.17-38.22c-0.85-1.42-1.83-2.4-3.51-2.71c-1.13-0.2-2.2-0.69-3.3-1.03
			c-0.45-0.14-0.92-0.23-1.65-0.42c10.22,15.85,18.49,32.33,24.08,50.21c-16.75,4.52-33.58,6.87-50.88,7.13v-60.98h-5v61.08
			c-0.99-0.08-1.81-0.2-2.64-0.2c-4.66,0-9.31-0.33-13.95-0.82c-4.06-0.43-8.13-0.8-12.15-1.48c-5.99-1.02-11.94-2.28-17.9-3.47
			c-1.33-0.27-2.62-0.68-4.02-1.04c5.69-18.04,13.91-34.67,23.94-50.45c-0.06-0.07-0.11-0.14-0.17-0.22
			c-1.82,0.53-3.62,1.08-5.45,1.58c-1,0.28-1.65,0.86-2.2,1.76c-4.03,6.61-7.69,13.42-10.98,20.43c-2.85,6.08-5.42,12.27-7.63,18.62
			c-0.77,2.22-1.53,4.44-2.33,6.78c-5.27-1.59-10.45-3.29-15.51-5.33c-5.1-2.05-10.16-4.19-15.33-6.34
			c-0.97,1.2-1.99,2.46-3.11,3.84c5.31,2.73,10.59,5.04,16,7.04c5.4,2,10.88,3.8,16.41,5.72c-0.86,3.15-1.73,6.34-2.62,9.6h5.22
			c0.93-2.74,1.34-5.56,2.29-8.1c5.01,1.08,9.84,2.25,14.72,3.14c5.06,0.93,10.15,1.65,15.25,2.36c5.23,0.73,10.49,1.08,15.77,1.27
			c1.99,0.07,3.98,0.15,5.97,0.23c0.13,0.45,0.22,0.78,0.32,1.12h4.68c0.11-0.38,0.21-0.7,0.35-1.17c17.65-0.24,35-2.61,52.18-7.1
			c0.76,2.85,1.49,5.57,2.22,8.32c1.79,0.01,3.44,0.04,5.27-0.02c-0.92-3.4-1.79-6.59-2.67-9.82
			C294.06,167.34,299.1,165.58,304.06,163.66z"/>
		<path d="M258.36,340.56c9.59-14.35,17.02-29.75,22.71-46.22c-0.95-0.27-1.86-0.56-2.79-0.78c-6.21-1.51-12.48-2.78-18.8-3.68
			c-4.34-0.62-8.71-1.06-13.08-1.46c-3.09-0.29-6.2-0.39-9.29-0.55c-1.81-0.1-3.63-0.16-5.63-0.25c-0.14,2.84-0.05,5.54-0.06,8.23
			c-0.02,2.71,0,5.43,0,8.14s0,5.43,0,8.14s0,5.43,0,8.14s0,5.43,0,8.14s0,5.43,0,8.14c0,2.7,0,5.41,0,8.19c-1.67,0-3.2,0-4.75,0
			c-0.03-0.03-0.06-0.06-0.08-0.09c-0.03-0.03-0.07-0.07-0.08-0.11c-0.02-0.08-0.04-0.17-0.05-0.26c-0.01-0.04-0.01-0.09-0.01-0.13
			c0-0.13-0.01-0.27-0.01-0.4c0-18.42-0.01-36.85-0.01-55.27c0-0.09-0.02-0.18-0.03-0.26c-0.01-0.04-0.02-0.08-0.09-0.32
			c-16.62,0.22-33.02,2.34-49.28,6.64c5.68,16.57,13.19,32.01,22.83,46.7c-0.52-0.1-0.8-0.13-1.06-0.2
			c-1.74-0.53-3.47-1.1-5.22-1.61c-0.65-0.19-1.05-0.55-1.4-1.12c-7.39-12.15-13.58-24.88-18.4-38.26c-0.49-1.37-1-2.74-1.54-4.23
			c-10.12,2.9-19.83,6.64-29.38,11c-1.41-1.03-2.39-2.45-3.58-3.93c10.11-4.75,20.44-8.6,31.16-11.82
			c-0.78-2.84-1.55-5.63-2.35-8.55c1.84,0,3.46,0,5.25,0c0.72,2.26,1.45,4.57,2.22,6.99c1.47-0.36,2.88-0.7,4.29-1.05
			c7.07-1.76,14.21-3.14,21.45-3.96c4.71-0.53,9.44-0.97,14.16-1.33c3.31-0.25,6.64-0.31,9.97-0.47c0.37-0.02,0.73-0.21,1.1-0.3
			c0.33-0.08,0.67-0.2,1.01-0.21c0.93-0.03,1.87-0.02,2.8-0.01c0.43,0,0.83-0.01,1.23,0.34c0.24,0.22,0.75,0.17,1.14,0.18
			c4.21,0.19,8.43,0.24,12.63,0.57c12.23,0.94,24.31,2.82,36.19,5.93c0.39,0.1,0.78,0.17,1.33,0.29c0.74-2.41,1.48-4.8,2.23-7.24
			c1.69,0,3.32,0,5.09,0c-0.44,2.94-1.4,5.62-2.64,8.19c5.27,1.83,10.49,3.58,15.65,5.47c5.12,1.87,10.12,4.04,15.23,6.5
			c-1.19,1.39-2.27,2.65-3.42,4c-9.46-4.18-19.03-7.94-29.03-10.82c-0.16,0.36-0.32,0.67-0.43,0.99
			c-2.68,7.59-5.72,15.02-9.23,22.27c-3.12,6.45-6.58,12.7-10.27,18.84c-0.39,0.65-0.86,1.06-1.6,1.28
			c-1.95,0.57-3.89,1.21-5.83,1.82C258.51,340.7,258.44,340.63,258.36,340.56z"/>
		<path d="M206.33,216.22c1.96,0,3.69,0,5.55,0c1.05,3.19,2.1,6.39,3.15,9.59c1.05,3.18,1.99,6.4,3.32,9.54
			c2.79-6.33,5.26-12.73,7.87-19.11c0.49,0,0.92,0,1.45,0c2.65,6.41,5.31,12.84,7.97,19.27c0.11,0,0.22,0,0.32,0
			c2.26-6.42,4.51-12.84,6.77-19.28c1.64,0,3.19,0,4.94,0c-0.14,0.57-0.22,1.07-0.38,1.54c-1.62,4.7-3.25,9.4-4.88,14.1
			c-1.38,3.98-2.77,7.97-4.15,11.95c-0.22,0.63-0.47,1.25-0.68,1.88c-0.16,0.49-0.34,0.89-0.97,0.91c-0.65,0.02-0.94-0.29-1.18-0.85
			c-1.66-3.88-3.35-7.74-5.03-11.61c-0.95-2.2-1.91-4.4-2.87-6.6c-0.14-0.32-0.32-0.62-0.59-1.14c-0.29,0.6-0.52,1.01-0.7,1.45
			c-2.42,5.73-4.83,11.46-7.25,17.19c-0.12,0.29-0.28,0.56-0.37,0.86c-0.18,0.58-0.58,0.71-1.13,0.71c-0.56,0-0.76-0.34-0.92-0.79
			c-0.61-1.76-1.23-3.52-1.84-5.28c-2.5-7.22-4.99-14.44-7.49-21.66C206.96,218.05,206.68,217.22,206.33,216.22z"/>
		<path d="M183.62,216.22c0.48,0,0.87,0,1.44,0c2.63,6.37,5.29,12.79,7.94,19.21c0.09,0.01,0.19,0.01,0.28,0.02
			c1.34-3.11,2.29-6.36,3.45-9.54c1.17-3.21,2.26-6.44,3.39-9.69c1.69,0,3.27,0,4.97,0c-0.07,0.33-0.1,0.62-0.19,0.88
			c-2.99,8.64-5.99,17.28-8.99,25.92c-0.29,0.84-0.57,1.68-0.85,2.53c-0.17,0.51-0.3,1.01-1.01,1.05c-0.72,0.04-1.02-0.36-1.27-0.93
			c-1.15-2.7-2.32-5.38-3.49-8.07c-1.47-3.38-2.93-6.76-4.41-10.14c-0.12-0.27-0.29-0.53-0.57-1.02c-0.29,0.59-0.5,1-0.68,1.42
			c-2.51,5.93-5.02,11.86-7.52,17.79c-0.17,0.4-0.24,0.85-0.81,0.94c-0.78,0.13-1.1-0.06-1.42-1c-1.22-3.52-2.43-7.05-3.65-10.58
			c-2.04-5.92-4.09-11.83-6.14-17.75c-0.1-0.29-0.18-0.58-0.34-1.08c1.86-0.03,3.61-0.01,5.51-0.01c2.1,6.43,4.2,12.86,6.3,19.29
			c0.11,0,0.22,0.01,0.33,0.01C178.47,229.07,181.04,222.65,183.62,216.22z"/>
		<path d="M121.11,216.23c1.95,0,3.67,0,5.56,0c2.08,6.37,4.17,12.79,6.26,19.21c0.1,0,0.21,0.01,0.31,0.01
			c1.41-3.14,2.59-6.38,3.89-9.57c1.31-3.21,2.58-6.43,3.87-9.65c0.52,0,0.95,0,1.43,0c2.7,6.39,5.24,12.81,8.12,19.16
			c1.43-3.14,2.44-6.37,3.58-9.55c1.13-3.18,2.24-6.36,3.37-9.59c1.64,0,3.23,0,4.92,0c-0.05,0.34-0.06,0.63-0.15,0.9
			c-3.25,9.4-6.51,18.8-9.78,28.2c-0.18,0.51-0.17,1.19-0.97,1.26c-0.74,0.06-0.99-0.09-1.42-1.08c-1.61-3.71-3.21-7.42-4.82-11.13
			c-0.97-2.24-1.94-4.48-2.92-6.72c-0.15-0.35-0.34-0.68-0.66-1.31c-0.35,0.76-0.6,1.26-0.81,1.77c-2.43,5.77-4.86,11.55-7.29,17.32
			c-0.07,0.16-0.16,0.32-0.21,0.49c-0.15,0.51-0.51,0.66-1.01,0.67c-0.53,0.01-0.82-0.24-0.99-0.71c-0.43-1.22-0.88-2.42-1.3-3.64
			c-2.53-7.35-5.06-14.7-7.59-22.05C122.07,218.96,121.63,217.71,121.11,216.23z"/>
		<path d="M256.17,242.58c0.23,1.88-1.81,4.14-4.05,4.06c-2.42-0.08-4.15-1.71-4.15-4.1c0-2.31,1.86-4.19,4.14-4.19
			C254.41,238.35,256.18,240.18,256.17,242.58z"/>
		<path d="M277.11,242.55c0,2.36-1.77,4.09-4.17,4.07c-2.33-0.02-4.14-1.85-4.11-4.18c0.03-2.11,2.03-4.07,4.17-4.08
			C275.3,238.35,277.11,240.2,277.11,242.55z"/>
	</g>
	<g>
		<g>
			<path d="M334.25,267.07c-1.25-2.45-2.48-4.86-3.7-7.28c-2.46-4.84-4.94-9.65-7.36-14.52c-3.12-6.29-6.28-12.55-9.24-18.94
				c-2.15-4.66-4.1-9.45-5.92-14.3c-1.18-3.12-2.02-6.42-2.91-9.67c-1.39-5.08-1.91-10.31-1.57-15.63c0.16-2.54,0.6-5.04,1.24-7.51
				c1.13-4.4,2.93-8.36,5.35-11.94c1.78-2.64,3.89-4.9,6.23-6.88c3.26-2.75,6.88-4.63,10.77-5.72c3.16-0.88,6.39-1.1,9.64-0.81
				c4.09,0.37,7.96,1.62,11.58,3.83c6.35,3.87,11.04,9.59,14.01,17.21c1.32,3.37,2.14,6.89,2.5,10.58c0.47,4.74,0.1,9.38-0.79,14
				c-1.23,6.35-3.24,12.39-5.74,18.18c-2.36,5.46-4.77,10.89-7.35,16.2c-3.78,7.76-7.73,15.41-11.61,23.1
				c-1.65,3.28-3.3,6.56-4.95,9.83C334.38,266.89,334.33,266.95,334.25,267.07z M334.32,176.01c-6.15-0.08-10.92,5.73-11.04,12.45
				c-0.13,7.44,4.9,12.93,10.5,13.13c6.79,0.24,11.26-5.82,11.47-12.29C345.49,181.73,340.24,175.96,334.32,176.01z"/>
			<path d="M348.57,257.65c0.19-0.44,0.36-0.86,0.56-1.26c1.12-2.19,2.26-4.37,3.36-6.57c0.25-0.51,0.48-0.71,1-0.51
				c4.22,1.61,8.24,3.63,11.41,7.41c2.13,2.54,3.29,5.56,3.07,9.14c-0.21,3.32-1.58,6.02-3.63,8.26c-2.92,3.2-6.48,5.08-10.23,6.53
				c-3.19,1.24-6.46,2.11-9.8,2.52c-2.91,0.36-5.83,0.63-8.76,0.77c-4.6,0.22-9.17-0.22-13.7-1.15c-4.8-0.98-9.47-2.47-13.73-5.33
				c-2.71-1.82-5.07-4.05-6.56-7.4c-1.98-4.44-0.97-9.47,1.67-12.89c2.73-3.53,6.28-5.49,9.98-7.18c0.76-0.35,1.56-0.59,2.43-0.91
				c1.45,2.84,2.89,5.66,4.39,8.6c-0.91,0.29-1.7,0.52-2.48,0.79c-2.21,0.78-4.4,1.62-6.34,3.12c-0.57,0.44-1.11,0.99-1.56,1.6
				c-0.85,1.17-0.79,2.67,0.1,3.81c1.13,1.46,2.57,2.38,4.09,3.13c2.39,1.18,4.88,1.97,7.42,2.59c2.91,0.72,5.84,1.24,8.81,1.35
				c2.45,0.09,4.91,0.22,7.36,0.11c2.12-0.09,4.24-0.41,6.34-0.8c2.38-0.44,4.76-0.94,7.08-1.67c2.35-0.74,4.65-1.73,6.66-3.43
				c1.16-0.98,2.2-2.1,1.83-4.04c-0.22-1.18-1-1.92-1.79-2.47c-1.29-0.89-2.67-1.66-4.07-2.29
				C351.93,258.8,350.3,258.29,348.57,257.65z"/>
		</g>
		<g>
			<g>
				<path class="st3" d="M332.25,265.07c-1.25-2.45-2.48-4.86-3.7-7.28c-2.46-4.84-4.94-9.65-7.36-14.52
					c-3.12-6.29-6.28-12.55-9.24-18.94c-2.15-4.66-4.1-9.45-5.92-14.3c-1.18-3.12-2.02-6.42-2.91-9.67
					c-1.39-5.08-1.91-10.31-1.57-15.63c0.16-2.54,0.6-5.04,1.24-7.51c1.13-4.4,2.93-8.36,5.35-11.94c1.78-2.64,3.89-4.9,6.23-6.88
					c3.26-2.75,6.88-4.63,10.77-5.72c3.16-0.88,6.39-1.1,9.64-0.81c4.09,0.37,7.96,1.62,11.58,3.83
					c6.35,3.87,11.04,9.59,14.01,17.21c1.32,3.37,2.14,6.89,2.5,10.58c0.47,4.74,0.1,9.38-0.79,14c-1.23,6.35-3.24,12.39-5.74,18.18
					c-2.36,5.46-4.77,10.89-7.35,16.2c-3.78,7.76-7.73,15.41-11.61,23.1c-1.65,3.28-3.3,6.56-4.95,9.83
					C332.38,264.89,332.33,264.95,332.25,265.07z M332.32,174.01c-6.15-0.08-10.92,5.73-11.04,12.45
					c-0.13,7.44,4.9,12.93,10.5,13.13c6.79,0.24,11.26-5.82,11.47-12.29C343.49,179.73,338.24,173.96,332.32,174.01z"/>
				<path class="st3" d="M346.57,255.65c0.19-0.44,0.36-0.86,0.56-1.26c1.12-2.19,2.26-4.37,3.36-6.57c0.25-0.51,0.48-0.71,1-0.51
					c4.22,1.61,8.24,3.63,11.41,7.41c2.13,2.54,3.29,5.56,3.07,9.14c-0.21,3.32-1.58,6.02-3.63,8.26c-2.92,3.2-6.48,5.08-10.23,6.53
					c-3.19,1.24-6.46,2.11-9.8,2.52c-2.91,0.36-5.83,0.63-8.76,0.77c-4.6,0.22-9.17-0.22-13.7-1.15c-4.8-0.98-9.47-2.47-13.73-5.33
					c-2.71-1.82-5.07-4.05-6.56-7.4c-1.98-4.44-0.97-9.47,1.67-12.89c2.73-3.53,6.28-5.49,9.98-7.18c0.76-0.35,1.56-0.59,2.43-0.91
					c1.45,2.84,2.89,5.66,4.39,8.6c-0.91,0.29-1.7,0.52-2.48,0.79c-2.21,0.78-4.4,1.62-6.34,3.12c-0.57,0.44-1.11,0.99-1.56,1.6
					c-0.85,1.17-0.79,2.67,0.1,3.81c1.13,1.46,2.57,2.38,4.09,3.13c2.39,1.18,4.88,1.97,7.42,2.59c2.91,0.72,5.84,1.24,8.81,1.35
					c2.45,0.09,4.91,0.22,7.36,0.11c2.12-0.09,4.24-0.41,6.34-0.8c2.38-0.44,4.76-0.94,7.08-1.67c2.35-0.74,4.65-1.73,6.66-3.43
					c1.16-0.98,2.2-2.1,1.83-4.04c-0.22-1.18-1-1.92-1.79-2.47c-1.29-0.89-2.67-1.66-4.07-2.29
					C349.93,256.8,348.3,256.29,346.57,255.65z"/>
			</g>
		</g>
	</g>
</g>
</svg>
