<?xml version="1.0" encoding="utf-8"?>
<!-- Generator: Adobe Illustrator 24.1.1, SVG Export Plug-In . SVG Version: 6.00 Build 0)  -->
<svg version="1.1" xmlns="http://www.w3.org/2000/svg" xmlns:xlink="http://www.w3.org/1999/xlink" x="0px" y="0px"
	 viewBox="0 0 450 450" style="enable-background:new 0 0 450 450;" xml:space="preserve">
<style type="text/css">
	.st0{fill:#FFFFFF;}
	.st1{fill:#6B6969;}
	.st2{fill:#A8A8A8;}
	.st3{fill:#4EA4F6;}
</style>
<g id="Capa_2">
	<polyline class="st0" points="160.04,410.06 101.71,378.21 57.56,328.49 30.96,258.19 28.4,212.14 47.22,128.83 115.18,61.48 
		187.5,32.03 224,29 279.56,36.57 341,73 371.86,95.9 402.59,143.71 417.13,191.26 417.13,257.46 393.95,322.48 354.22,371.42 
		308.6,401.67 242.85,419.65 192.21,418.01 	"/>
</g>
<g id="Capa_1">
	<g>
		<path class="st1" d="M20.77,222.03C21.7,116.97,103.26,32.13,201.42,22.01c64.46-6.65,120.75,12.29,167.21,57.75
			c34.47,33.73,54.62,75.06,59.37,123.18c6.32,64.02-12.68,119.89-57.89,165.72c-40.69,41.25-90.7,61.04-148.89,60.54
			C112.83,428.26,18.7,337.42,20.77,222.03z M224.55,22.94C113.36,22.96,22.76,113.49,22.93,225.31
			c0.17,111.49,90.65,201.85,202.26,201.76c111.34-0.09,201.88-90.4,201.87-202.16C427.04,113.29,336.41,22.54,224.55,22.94z"/>
		<path class="st2" d="M224.55,22.94c111.87-0.4,202.49,90.35,202.51,201.98c0.01,111.77-90.52,202.07-201.87,202.16
			C113.58,427.17,23.1,336.8,22.93,225.31C22.76,113.49,113.36,22.96,224.55,22.94z M224.31,28.96
			C117.13,27.51,28.3,115.84,28.05,223.41c-0.26,108.44,85.1,196.96,195.81,197.1c109.47,0.14,195.51-87.31,196.03-195.43
			C420.42,115.63,330.66,27.86,224.31,28.96z"/>
		<path class="st1" d="M224.31,28.96c106.35-1.1,196.11,86.67,195.59,196.13c-0.52,108.12-86.56,195.57-196.03,195.43
			c-110.71-0.14-196.07-88.66-195.81-197.1C28.3,115.84,117.13,27.51,224.31,28.96z M42.51,224.74
			c-0.1,100.4,81.55,182.44,181.85,182.75c100.58,0.31,182.92-81.55,183.08-182.01C407.61,124.8,326.03,42.8,225.36,42.46
			C125,42.12,42.61,124.25,42.51,224.74z"/>
	</g>
	<g id="Layer_2">
		<g>
			<circle id="circle2_15_" cx="225.61" cy="227.1" r="121.39"/>
		</g>
		<g>
			<g>
				<circle id="circle2_12_" class="st3" cx="223.61" cy="225.1" r="121.39"/>
			</g>
		</g>
	</g>
	<g id="Layer_3">
		<g>
			<path id="path5_15_" d="M154.73,226.05c0,0,60.7-24.91,81.75-33.68c8.07-3.51,35.44-14.74,35.44-14.74s12.63-4.91,11.58,7.02
				c-0.35,4.91-3.16,22.1-5.96,40.7c-4.21,26.31-8.77,55.08-8.77,55.08s-0.7,8.07-6.67,9.47c-5.96,1.4-15.79-4.91-17.54-6.32
				c-1.4-1.05-26.31-16.84-35.44-24.56c-2.46-2.11-5.26-6.32,0.35-11.23c12.63-11.58,27.72-25.96,36.84-35.09
				c4.21-4.21,8.42-14.03-9.12-2.11c-24.91,17.19-49.47,33.33-49.47,33.33s-5.61,3.51-16.14,0.35c-10.53-3.16-22.81-7.37-22.81-7.37
				S140.35,231.66,154.73,226.05z"/>
		</g>
		<g>
			<g>
				<path id="path5_12_" class="st0" d="M152.73,224.05c0,0,60.7-24.91,81.75-33.68c8.07-3.51,35.44-14.74,35.44-14.74
					s12.63-4.91,11.58,7.02c-0.35,4.91-3.16,22.1-5.96,40.7c-4.21,26.31-8.77,55.08-8.77,55.08s-0.7,8.07-6.67,9.47
					c-5.96,1.4-15.79-4.91-17.54-6.32c-1.4-1.05-26.31-16.84-35.44-24.56c-2.46-2.11-5.26-6.32,0.35-11.23
					c12.63-11.58,27.72-25.96,36.84-35.09c4.21-4.21,8.42-14.03-9.12-2.11c-24.91,17.19-49.47,33.33-49.47,33.33
					s-5.61,3.51-16.14,0.35c-10.53-3.16-22.81-7.37-22.81-7.37S138.35,229.66,152.73,224.05z"/>
			</g>
		</g>
	</g>
</g>
</svg>
