<?xml version="1.0" encoding="utf-8"?>
<!-- Generator: Adobe Illustrator 24.1.1, SVG Export Plug-In . SVG Version: 6.00 Build 0)  -->
<svg version="1.1" xmlns="http://www.w3.org/2000/svg" xmlns:xlink="http://www.w3.org/1999/xlink" x="0px" y="0px"
	 viewBox="0 0 450 450" style="enable-background:new 0 0 450 450;" xml:space="preserve">
<style type="text/css">
	.st0{fill:#FFFFFF;}
	.st1{fill:#6B6969;}
	.st2{fill:#A8A8A8;}
	.st3{clip-path:url(#SVGID_4_);}
	.st4{clip-path:url(#SVGID_10_);fill:#E68131;}
</style>
<g id="Capa_2">
	<polyline class="st0" points="160.04,410.06 101.71,378.21 57.56,328.49 30.96,258.19 28.4,212.14 47.22,128.83 115.18,61.48 
		187.5,32.03 224,29 279.56,36.57 341,73 371.86,95.9 402.59,143.71 417.13,191.26 417.13,257.46 393.95,322.48 354.22,371.42 
		308.6,401.67 242.85,419.65 192.21,418.01 	"/>
</g>
<g id="Capa_1">
	<g>
		<path class="st1" d="M20.77,222.03C21.7,116.97,103.26,32.13,201.42,22.01c64.46-6.65,120.75,12.29,167.21,57.75
			c34.47,33.73,54.62,75.06,59.37,123.18c6.32,64.02-12.68,119.89-57.89,165.72c-40.69,41.25-90.7,61.04-148.89,60.54
			C112.83,428.26,18.7,337.42,20.77,222.03z M224.55,22.94C113.36,22.96,22.76,113.49,22.93,225.31
			c0.17,111.49,90.65,201.85,202.26,201.76c111.34-0.09,201.88-90.4,201.87-202.16C427.04,113.29,336.41,22.54,224.55,22.94z"/>
		<path class="st2" d="M224.55,22.94c111.87-0.4,202.49,90.35,202.51,201.98c0.01,111.77-90.52,202.07-201.87,202.16
			C113.58,427.17,23.1,336.8,22.93,225.31C22.76,113.49,113.36,22.96,224.55,22.94z M224.31,28.96
			C117.13,27.51,28.3,115.84,28.05,223.41c-0.26,108.44,85.1,196.96,195.81,197.1c109.47,0.14,195.51-87.31,196.03-195.43
			C420.42,115.63,330.66,27.86,224.31,28.96z"/>
		<path class="st1" d="M224.31,28.96c106.35-1.1,196.11,86.67,195.59,196.13c-0.52,108.12-86.56,195.57-196.03,195.43
			c-110.71-0.14-196.07-88.66-195.81-197.1C28.3,115.84,117.13,27.51,224.31,28.96z M42.51,224.74
			c-0.1,100.4,81.55,182.44,181.85,182.75c100.58,0.31,182.92-81.55,183.08-182.01C407.61,124.8,326.03,42.8,225.36,42.46
			C125,42.12,42.61,124.25,42.51,224.74z"/>
	</g>
	<g>
		<g>
			<g>
				<defs>
					<rect id="SVGID_1_" x="87" y="88" width="283" height="283"/>
				</defs>
				<clipPath id="SVGID_2_">
					<use xlink:href="#SVGID_1_"  style="overflow:visible;"/>
				</clipPath>
			</g>
			<g>
				<defs>
					<rect id="SVGID_3_" x="87" y="88" width="283" height="283"/>
				</defs>
				<clipPath id="SVGID_4_">
					<use xlink:href="#SVGID_3_"  style="overflow:visible;"/>
				</clipPath>
				<path class="st3" d="M196.03,94.62h7.81c27.81,1.88,51.08,24.45,56.98,51.17c6.27-7.86,14.58-14.32,24.3-17.26
					c14.95-4.92,32.35-0.64,43.46,10.45c18.62,17.2,21.52,49.17,5.29,68.89c-8.98,11.06-23.17,16.71-37.13,17.52
					c-32.13,2.13-64.25,4.38-96.4,6.34c-20.66,0.79-40.45-10.67-52.06-27.43c-18.19-25.57-17.15-63.37,3.6-87.18
					C162.81,104.05,179.04,95.72,196.03,94.62 M202.82,127.66c-26.21,8.54-32.5,47.23-12.94,65.52c8.78,8.56,23.11,10.59,33.7,4.18
					c18.58-10.57,24.35-37.2,13.39-55.19C230.48,130.53,215.82,123.48,202.82,127.66 M299.18,151.38
					c-11.14,4.58-16.5,18.04-14.64,29.44c1.5,10.65,10.77,21.05,22.27,19.6c15.44-2.1,23.49-20.63,18.55-34.44
					C322.43,155.18,310.25,146.36,299.18,151.38"/>
				<path class="st3" d="M212.08,242.45c22.08-2.37,44.22-4.09,66.32-6.32c16.82-2.23,33.85,0.32,50.46,2.87
					c9.4,3.74,7.07,15.42,7.24,23.44c-13.49,3.6-27.39,5.51-41.07,8.32c-6.12,1.32-14.41,1.27-16.82,8.37
					c-1.78,9.96-0.39,20.21-0.85,30.28c-0.61,4.65,1.96,10.57,7.47,10.04c7.15-0.93,14.29-2.33,21.1-4.73
					c-0.02-3.15-0.03-6.31-0.07-9.45c-5.92,1-11.65,3.25-17.72,3.16c0.34-8.07-0.63-16.2,0.52-24.2
					c15.49-4.26,31.59-6.34,47.33-9.74c0.25,14.41,0.2,28.83,0.07,43.24c0.17,7.83-6.71,13.8-13.92,15.25
					c-18.9,4.35-37.84,8.62-56.75,12.97c-8.51,2.05-17.45,4.38-26.16,2.01c-6.24-1.81-12.23-4.38-18.18-6.93
					c5.12-6.95,10.42-13.8,15.44-20.83c3.2-4.09,2-9.54,2.23-14.32c-0.37-6.92,1.72-15.24-4.02-20.56
					c-11.02-11.13-21.88-22.42-32.9-33.53C203.85,247.54,206.92,242.89,212.08,242.45"/>
				<path class="st3" d="M115.48,256.33c1.96-6.66,8.88-10.69,15.64-10.16c14.76,0.95,29.3,4.01,43.79,6.9
					c6.58,1.34,13.61,2.72,18.65,7.54c9.69,8.83,18.53,18.53,28.17,27.39c3.04,3.09,7.46,6.05,7,10.99
					c-0.2,6.27,1.69,13.66-2.89,18.84c-10.7,13.56-21.14,27.34-31.82,40.92c-4.68,6.51-13.63,6.27-20.65,4.72
					c-11.16-2.5-22.18-5.7-32.96-9.55c-9.52-3.43-20.85-7.15-24.72-17.57c-3.31-10.58-2.43-21.91-3.18-32.85v-17.31
					C113.22,276.22,112.61,265.97,115.48,256.33 M132.53,266.97c-1.18,2.65-2.28,5.43-2.28,8.39c-0.96,15.15-0.83,30.37,0.41,45.5
					c0.27,3.62,1.29,7.61,4.8,9.42c11.63,6.24,24.87,9.03,37.86,10.75c3.89,1.1,6.85-2.6,6.66-6.17c1.47-17.96,1.98-36.1-0.2-54.02
					c-0.32-4.46-4.87-6.49-8.61-7.61C158.58,269.69,145.63,267.07,132.53,266.97"/>
			</g>
			<g>
				<defs>
					<rect id="SVGID_5_" x="87" y="88" width="283" height="283"/>
				</defs>
				<clipPath id="SVGID_6_">
					<use xlink:href="#SVGID_5_"  style="overflow:visible;"/>
				</clipPath>
			</g>
		</g>
		<g>
			<g>
				<defs>
					<rect id="SVGID_7_" x="85" y="86" width="283" height="283"/>
				</defs>
				<clipPath id="SVGID_8_">
					<use xlink:href="#SVGID_7_"  style="overflow:visible;"/>
				</clipPath>
			</g>
			<g>
				<defs>
					<rect id="SVGID_9_" x="85" y="86" width="283" height="283"/>
				</defs>
				<clipPath id="SVGID_10_">
					<use xlink:href="#SVGID_9_"  style="overflow:visible;"/>
				</clipPath>
				<path class="st4" d="M194.03,92.62h7.81c27.81,1.88,51.08,24.45,56.98,51.17c6.27-7.86,14.58-14.32,24.3-17.26
					c14.95-4.92,32.35-0.64,43.46,10.45c18.62,17.2,21.52,49.17,5.29,68.89c-8.98,11.06-23.17,16.71-37.13,17.52
					c-32.13,2.13-64.25,4.38-96.4,6.34c-20.66,0.79-40.45-10.67-52.06-27.43c-18.19-25.57-17.15-63.37,3.6-87.18
					C160.81,102.05,177.04,93.72,194.03,92.62 M200.82,125.66c-26.21,8.54-32.5,47.23-12.94,65.52c8.78,8.56,23.11,10.59,33.7,4.18
					c18.58-10.57,24.35-37.2,13.39-55.19C228.48,128.53,213.82,121.48,200.82,125.66 M297.18,149.38
					c-11.14,4.58-16.5,18.04-14.64,29.44c1.5,10.65,10.77,21.05,22.27,19.6c15.44-2.1,23.49-20.63,18.55-34.44
					C320.43,153.18,308.25,144.36,297.18,149.38"/>
				<path class="st4" d="M210.08,240.45c22.08-2.37,44.22-4.09,66.32-6.32c16.82-2.23,33.85,0.32,50.46,2.87
					c9.4,3.74,7.07,15.42,7.24,23.44c-13.49,3.6-27.39,5.51-41.07,8.32c-6.12,1.32-14.41,1.27-16.82,8.37
					c-1.78,9.96-0.39,20.21-0.85,30.28c-0.61,4.65,1.96,10.57,7.47,10.04c7.15-0.93,14.29-2.33,21.1-4.73
					c-0.02-3.15-0.03-6.31-0.07-9.45c-5.92,1-11.65,3.25-17.72,3.16c0.34-8.07-0.63-16.2,0.52-24.2
					c15.49-4.26,31.59-6.34,47.33-9.74c0.25,14.41,0.2,28.83,0.07,43.24c0.17,7.83-6.71,13.8-13.92,15.25
					c-18.9,4.35-37.84,8.62-56.75,12.97c-8.51,2.05-17.45,4.38-26.16,2.01c-6.24-1.81-12.23-4.38-18.18-6.93
					c5.12-6.95,10.42-13.8,15.44-20.83c3.2-4.09,2-9.54,2.23-14.32c-0.37-6.92,1.72-15.24-4.02-20.56
					c-11.02-11.13-21.88-22.42-32.9-33.53C201.85,245.54,204.92,240.89,210.08,240.45"/>
				<path class="st4" d="M113.48,254.33c1.96-6.66,8.88-10.69,15.64-10.16c14.76,0.95,29.3,4.01,43.79,6.9
					c6.58,1.34,13.61,2.72,18.65,7.54c9.69,8.83,18.53,18.53,28.17,27.39c3.04,3.09,7.46,6.05,7,10.99
					c-0.2,6.27,1.69,13.66-2.89,18.84c-10.7,13.56-21.14,27.34-31.82,40.92c-4.68,6.51-13.63,6.27-20.65,4.72
					c-11.16-2.5-22.18-5.7-32.96-9.55c-9.52-3.43-20.85-7.15-24.72-17.57c-3.31-10.58-2.43-21.91-3.18-32.85v-17.31
					C111.22,274.22,110.61,263.97,113.48,254.33 M130.53,264.97c-1.18,2.65-2.28,5.43-2.28,8.39c-0.96,15.15-0.83,30.37,0.41,45.5
					c0.27,3.62,1.29,7.61,4.8,9.42c11.63,6.24,24.87,9.03,37.86,10.75c3.89,1.1,6.85-2.6,6.66-6.17c1.47-17.96,1.98-36.1-0.2-54.02
					c-0.32-4.46-4.87-6.49-8.61-7.61C156.58,267.69,143.63,265.07,130.53,264.97"/>
			</g>
			<g>
				<defs>
					<rect id="SVGID_11_" x="85" y="86" width="283" height="283"/>
				</defs>
				<clipPath id="SVGID_12_">
					<use xlink:href="#SVGID_11_"  style="overflow:visible;"/>
				</clipPath>
			</g>
		</g>
	</g>
</g>
</svg>
