<?xml version="1.0" encoding="utf-8"?>
<!-- Generator: Adobe Illustrator 24.1.1, SVG Export Plug-In . SVG Version: 6.00 Build 0)  -->
<svg version="1.1" xmlns="http://www.w3.org/2000/svg" xmlns:xlink="http://www.w3.org/1999/xlink" x="0px" y="0px"
	 viewBox="0 0 450 450" style="enable-background:new 0 0 450 450;" xml:space="preserve">
<style type="text/css">
	.st0{fill:#FFFFFF;}
	.st1{fill:#6B6969;}
	.st2{fill:#A8A8A8;}
	.st3{fill:url(#SVGID_1_);}
</style>
<g id="Capa_2">
	<polyline class="st0" points="160.04,410.06 101.71,378.21 57.56,328.49 30.96,258.19 28.4,212.14 47.22,128.83 115.18,61.48 
		187.5,32.03 224,29 279.56,36.57 341,73 371.86,95.9 402.59,143.71 417.13,191.26 417.13,257.46 393.95,322.48 354.22,371.42 
		308.6,401.67 242.85,419.65 192.21,418.01 	"/>
</g>
<g id="Capa_1">
	<g>
		<path class="st1" d="M20.77,222.03C21.7,116.97,103.26,32.13,201.42,22.01c64.46-6.65,120.75,12.29,167.21,57.75
			c34.47,33.73,54.62,75.06,59.37,123.18c6.32,64.02-12.68,119.89-57.89,165.72c-40.69,41.25-90.7,61.04-148.89,60.54
			C112.83,428.26,18.7,337.42,20.77,222.03z M224.55,22.94C113.36,22.96,22.76,113.49,22.93,225.31
			c0.17,111.49,90.65,201.85,202.26,201.76c111.34-0.09,201.88-90.4,201.87-202.16C427.04,113.29,336.41,22.54,224.55,22.94z"/>
		<path class="st2" d="M224.55,22.94c111.87-0.4,202.49,90.35,202.51,201.98c0.01,111.77-90.52,202.07-201.87,202.16
			C113.58,427.17,23.1,336.8,22.93,225.31C22.76,113.49,113.36,22.96,224.55,22.94z M224.31,28.96
			C117.13,27.51,28.3,115.84,28.05,223.41c-0.26,108.44,85.1,196.96,195.81,197.1c109.47,0.14,195.51-87.31,196.03-195.43
			C420.42,115.63,330.66,27.86,224.31,28.96z"/>
		<path class="st1" d="M224.31,28.96c106.35-1.1,196.11,86.67,195.59,196.13c-0.52,108.12-86.56,195.57-196.03,195.43
			c-110.71-0.14-196.07-88.66-195.81-197.1C28.3,115.84,117.13,27.51,224.31,28.96z M42.51,224.74
			c-0.1,100.4,81.55,182.44,181.85,182.75c100.58,0.31,182.92-81.55,183.08-182.01C407.61,124.8,326.03,42.8,225.36,42.46
			C125,42.12,42.61,124.25,42.51,224.74z"/>
	</g>
	<g>
		<g>
			<path d="M226.74,97.94c-71.28,0-129.16,57.88-129.16,129.16c0,71.38,57.88,129.26,129.16,129.26
				c71.38,0,129.26-57.88,129.26-129.26C356,155.82,298.12,97.94,226.74,97.94L226.74,97.94z M286.43,302.88
				c-1.57,2.93-4.64,4.58-7.71,4.58c-1.51,0-2.93-0.32-4.34-1.11c-20.67-11.35-44.17-17.42-67.89-17.42
				c-14.21,0-28.32,2.12-41.73,6.3c-4.72,1.43-9.69-1.17-11.12-5.83c-1.41-4.64,1.19-14.58,5.83-16.09
				c15.22-4.64,31.01-7.09,47.02-7.09c26.73,0,53.21,6.78,76.49,19.64C287.3,288.23,288.82,298.54,286.43,302.88L286.43,302.88z
				 M302.85,254.23c-1.82,3.55-5.45,9.31-9.15,9.31c-1.66,0-3.23-0.38-4.8-1.17c-25.64-13.34-53.32-20.05-82.41-20.05
				c-16.01,0-31.88,2.06-47.24,6.32c-5.53,1.49-11.2-1.74-12.7-7.27c-1.49-5.59,1.74-14.98,7.25-16.47
				c17.12-4.64,34.86-7.03,52.69-7.03c31.94,0,63.79,7.73,91.93,22.41C303.55,242.89,305.53,249.1,302.85,254.23L302.85,254.23z
				 M309.71,215.21c-1.74,0-3.55-0.4-5.21-1.19c-30.6-15.3-63.55-23.03-98.01-23.03c-17.91,0-35.73,2.22-53.07,6.48
				c-6.4,1.57-12.78-2.3-14.35-8.6c-1.57-6.4,2.28-14.03,8.58-15.62c19.26-4.72,38.96-7.17,58.85-7.17
				c38.07,0,74.67,8.6,108.51,25.48c5.89,2.91,8.28,10.01,5.35,15.93C318.31,211.57,314.13,215.21,309.71,215.21L309.71,215.21z
				 M309.71,215.21"/>
		</g>
		<g>
			<g>
				<linearGradient id="SVGID_1_" gradientUnits="userSpaceOnUse" x1="95.5801" y1="225.1493" x2="354" y2="225.1493">
					<stop  offset="0" style="stop-color:#39B54A"/>
					<stop  offset="0.142" style="stop-color:#2EA646"/>
					<stop  offset="0.5001" style="stop-color:#15843E"/>
					<stop  offset="0.797" style="stop-color:#066F39"/>
					<stop  offset="0.9944" style="stop-color:#006837"/>
				</linearGradient>
				<path class="st3" d="M224.74,95.94c-71.28,0-129.16,57.88-129.16,129.16c0,71.38,57.88,129.26,129.16,129.26
					c71.38,0,129.26-57.88,129.26-129.26C354,153.82,296.12,95.94,224.74,95.94L224.74,95.94z M284.43,300.88
					c-1.57,2.93-4.64,4.58-7.71,4.58c-1.51,0-2.93-0.32-4.34-1.11c-20.67-11.35-44.17-17.42-67.89-17.42
					c-14.21,0-28.32,2.12-41.73,6.3c-4.72,1.43-9.69-1.17-11.12-5.83c-1.41-4.64,1.19-14.58,5.83-16.09
					c15.22-4.64,31.01-7.09,47.02-7.09c26.73,0,53.21,6.78,76.49,19.64C285.3,286.23,286.82,296.54,284.43,300.88L284.43,300.88z
					 M300.85,252.23c-1.82,3.55-5.45,9.31-9.15,9.31c-1.66,0-3.23-0.38-4.8-1.17c-25.64-13.34-53.32-20.05-82.41-20.05
					c-16.01,0-31.88,2.06-47.24,6.32c-5.53,1.49-11.2-1.74-12.7-7.27c-1.49-5.59,1.74-14.98,7.25-16.47
					c17.12-4.64,34.86-7.03,52.69-7.03c31.94,0,63.79,7.73,91.93,22.41C301.55,240.89,303.53,247.1,300.85,252.23L300.85,252.23z
					 M307.71,213.21c-1.74,0-3.55-0.4-5.21-1.19c-30.6-15.3-63.55-23.03-98.01-23.03c-17.91,0-35.73,2.22-53.07,6.48
					c-6.4,1.57-12.78-2.3-14.35-8.6c-1.57-6.4,2.28-14.03,8.58-15.62c19.26-4.72,38.96-7.17,58.85-7.17
					c38.07,0,74.67,8.6,108.51,25.48c5.89,2.91,8.28,10.01,5.35,15.93C316.31,209.57,312.13,213.21,307.71,213.21L307.71,213.21z
					 M307.71,213.21"/>
			</g>
		</g>
	</g>
</g>
</svg>
