<?xml version="1.0" encoding="utf-8"?>
<!-- Generator: Adobe Illustrator 24.1.1, SVG Export Plug-In . SVG Version: 6.00 Build 0)  -->
<svg version="1.1" xmlns="http://www.w3.org/2000/svg" xmlns:xlink="http://www.w3.org/1999/xlink" x="0px" y="0px"
	 viewBox="0 0 450 450" style="enable-background:new 0 0 450 450;" xml:space="preserve">
<style type="text/css">
	.st0{fill:#FFFFFF;}
	.st1{fill:#6B6969;}
	.st2{fill:#A8A8A8;}
	.st3{fill:#9E005D;}
</style>
<g id="Capa_2">
	<polyline class="st0" points="160.04,410.06 101.71,378.21 57.56,328.49 30.96,258.19 28.4,212.14 47.22,128.83 115.18,61.48 
		187.5,32.03 224,29 279.56,36.57 341,73 371.86,95.9 402.59,143.71 417.13,191.26 417.13,257.46 393.95,322.48 354.22,371.42 
		308.6,401.67 242.85,419.65 192.21,418.01 	"/>
</g>
<g id="Capa_1">
	<g>
		<path class="st1" d="M20.77,222.03C21.7,116.97,103.26,32.13,201.42,22.01c64.46-6.65,120.75,12.29,167.21,57.75
			c34.47,33.73,54.62,75.06,59.37,123.18c6.32,64.02-12.68,119.89-57.89,165.72c-40.69,41.25-90.7,61.04-148.89,60.54
			C112.83,428.26,18.7,337.42,20.77,222.03z M224.55,22.94C113.36,22.96,22.76,113.49,22.93,225.31
			c0.17,111.49,90.65,201.85,202.26,201.76c111.34-0.09,201.88-90.4,201.87-202.16C427.04,113.29,336.41,22.54,224.55,22.94z"/>
		<path class="st2" d="M224.55,22.94c111.87-0.4,202.49,90.35,202.51,201.98c0.01,111.77-90.52,202.07-201.87,202.16
			C113.58,427.17,23.1,336.8,22.93,225.31C22.76,113.49,113.36,22.96,224.55,22.94z M224.31,28.96
			C117.13,27.51,28.3,115.84,28.05,223.41c-0.26,108.44,85.1,196.96,195.81,197.1c109.47,0.14,195.51-87.31,196.03-195.43
			C420.42,115.63,330.66,27.86,224.31,28.96z"/>
		<path class="st1" d="M224.31,28.96c106.35-1.1,196.11,86.67,195.59,196.13c-0.52,108.12-86.56,195.57-196.03,195.43
			c-110.71-0.14-196.07-88.66-195.81-197.1C28.3,115.84,117.13,27.51,224.31,28.96z M42.51,224.74
			c-0.1,100.4,81.55,182.44,181.85,182.75c100.58,0.31,182.92-81.55,183.08-182.01C407.61,124.8,326.03,42.8,225.36,42.46
			C125,42.12,42.61,124.25,42.51,224.74z"/>
	</g>
	<g>
		<path class="st3" d="M249.18,356.52c-0.9-1.01-2.13-1.88-2.64-3.07c-1.27-2.98,0.95-5.8,4.57-5.85
			c5.67-0.08,11.34-0.02,17.22-0.02c0-5.93,0-11.72,0-17.88c-1,0-2.01,0-3.03,0c-14.67,0-29.35,0-44.02,0
			c-7.57,0-10.93-3.32-10.93-10.8c0-30.13,0-60.27,0-90.4c0-7.37,3.32-10.71,10.72-10.71c40.44-0.01,80.88,0.03,121.32-0.05
			c5.45-0.01,9.28,1.87,11.12,7.16c0,32.69,0,65.37,0,98.06c-2.25,5.31-6.4,6.89-11.94,6.81c-14.41-0.21-28.83-0.07-43.25-0.07
			c-0.93,0-1.86,0-2.81,0c0,6.12,0,11.92,0,17.88c5.77,0,11.35-0.03,16.93,0.01c3.18,0.02,5.51,1.77,5.09,4.31
			c-0.28,1.65-1.84,3.09-2.82,4.62C292.87,356.52,271.02,356.52,249.18,356.52z M344.51,226.99c-41.84,0-83.44,0-125.08,0
			c0,22.35,0,44.5,0,66.71c41.77,0,83.38,0,125.08,0C344.51,271.42,344.51,249.33,344.51,226.99z M344.45,320.64
			c0-6.03,0-11.76,0-17.62c-41.74,0-83.33,0-124.98,0c0,5.95,0,11.75,0,17.62C261.19,320.64,302.72,320.64,344.45,320.64z
			 M286.26,347.48c0-5.94,0-11.73,0-17.59c-2.96,0-5.78,0-8.6,0c0,5.96,0,11.75,0,17.7c2.53,0,4.88,0,7.22,0
			C285.31,347.57,285.72,347.52,286.26,347.48z"/>
		<path class="st3" d="M187.54,98.03c-19.54,2.81-36.54,9.73-51.61,21.3c-1.39,1.06-2.7,2.23-4.13,3.22
			c-2.34,1.61-4.79,1.33-6.32-0.61c-1.62-2.03-1.32-4.58,0.97-6.47c2.62-2.17,5.29-4.31,8.08-6.25c14.1-9.8,29.55-16.72,46.53-19.27
			c45.77-6.86,83.58,7.42,112.71,43.75c1.33,1.66,2.09,3.43,1.03,5.55c-1.01,2.01-2.78,2.47-4.82,2.46c-9-0.01-18,0.02-27-0.01
			c-3.46-0.01-5.37-1.6-5.43-4.33c-0.06-2.81,1.95-4.56,5.5-4.59c5.85-0.06,11.69-0.02,18.27-0.02
			c-18.02-19.74-39.67-31.07-65.4-34.73c-0.22,0.25-0.45,0.49-0.67,0.74c0.8,0.52,1.71,0.92,2.37,1.58
			c4.46,4.43,8.91,8.87,13.27,13.4c2.29,2.38,2.3,5.12,0.3,6.95c-1.96,1.79-4.55,1.35-6.92-0.95c-6.77-6.56-13.59-13.05-20.41-19.56
			c-0.69-0.66-1.49-1.19-2.56-2.04c-3.37,2.87-6.81,5.65-10.09,8.61c-18.07,16.32-31.47,35.7-38.17,59.31
			c-1.73,6.11-2.7,12.43-4,18.66c-0.13,0.6-0.14,1.22-0.26,1.81c-0.66,3.18-2.5,4.73-5.16,4.35c-2.62-0.37-4.15-2.5-3.6-5.67
			c1.08-6.27,2.04-12.59,3.66-18.73c6.84-25.8,20.98-47.17,40.36-65.25C185.02,100.32,186.03,99.41,187.54,98.03z"/>
		<path class="st3" d="M254.97,199.87c-0.28-10.92-1.37-21.37-4.52-31.38c-2.61-8.28-6.33-16.2-9.45-24.33
			c-0.81-2.1-2.14-2.5-4.2-2.5c-17.38,0.07-34.77,0.04-52.15,0.04c-4.5,0-6.68-1.48-6.64-4.49c0.04-2.99,2.24-4.46,6.74-4.47
			c18.52,0,37.04,0.04,55.56-0.04c3.26-0.02,5.27,1.12,6.89,4.04c11.54,20.7,16.69,42.96,16.76,66.52c0.01,3.87-1.47,5.54-5.28,5.54
			c-32.24,0.03-64.47,0.03-96.71,0c-3.3,0-5.12-1.6-5.21-4.26c-0.09-2.78,1.78-4.49,5.14-4.67c0.78-0.04,1.57-0.01,2.36-0.01
			c29.09,0,58.18,0,87.27,0C252.57,199.87,253.6,199.87,254.97,199.87z"/>
		<path class="st3" d="M136.05,266.99c7.51,0,15.03,0.07,22.54-0.04c3.03-0.04,5.06,1.11,6.66,3.69
			c8.82,14.23,19.78,26.65,32.83,37.11c3.32,2.66,3.51,5.72,3.12,9.2c-0.28,2.48-2.32,3.74-5.23,3.61
			c-15-0.66-29.36-4.06-43.01-10.29c-17.58-8.02-32.18-19.82-43.93-35.16c-1.26-1.64-2.03-3.33-1.2-5.31
			c0.99-2.38,3.1-2.83,5.42-2.82C120.85,267.01,128.45,266.99,136.05,266.99z M121.32,275.95c18.18,19.81,39.88,31.15,66.05,34.86
			c-0.46-0.6-0.63-0.91-0.88-1.13c-10.53-9.67-19.78-20.41-27.66-32.35c-0.52-0.78-2-1.31-3.03-1.32
			c-8.73-0.1-17.46-0.06-26.19-0.06C127.1,275.95,124.59,275.95,121.32,275.95z"/>
		<path class="st3" d="M94.19,208.83c0.25,9.05,1.53,17.6,4.27,25.81c2.23,6.68,5.2,13.1,7.86,19.64c0.26,0.65,0.62,1.25,0.87,1.9
			c0.97,2.54,0.1,4.89-2.17,5.96c-2.15,1.01-4.54,0.28-5.75-2.11c-2.16-4.28-4.36-8.57-6.11-13.02
			c-5.16-13.12-7.85-26.76-8.08-40.88c-0.08-4.58,1.47-6.24,6-6.25c16.78-0.02,33.55-0.02,50.33,0c4.69,0.01,6.25,1.4,6.31,6.02
			c0.19,15.68,2.75,30.91,8.17,45.65c1.08,2.92-0.04,5.46-2.45,6.29c-2.59,0.9-4.86-0.45-6-3.55c-5.01-13.71-7.85-27.86-8.35-42.45
			c-0.08-2.33-0.72-3.1-3.16-3.08c-13.02,0.13-26.04,0.06-39.06,0.06C96.02,208.83,95.18,208.83,94.19,208.83z"/>
		<path class="st3" d="M308.61,199.87c-0.66-15.41-4.37-29.56-10.92-42.99c-0.61-1.25-1.31-2.47-1.88-3.74
			c-1.23-2.73-0.56-5.16,1.7-6.34c2.39-1.24,4.78-0.36,6.28,2.42c6.26,11.63,10.52,23.96,12.42,37.03
			c0.79,5.43,1.1,10.94,1.46,16.43c0.29,4.41-1.38,6.12-5.76,6.13c-11.19,0.03-22.37,0.04-33.56-0.01
			c-3.89-0.02-6.08-2.57-5.06-5.75c0.84-2.63,3.01-3.17,5.42-3.18c8.65-0.01,17.3-0.01,25.95-0.01
			C305.87,199.87,307.07,199.87,308.61,199.87z"/>
		<path class="st3" d="M129.35,141.69c-4.28,0-8.56,0.08-12.84-0.04c-1.69-0.05-2.68,0.55-3.63,1.92
			c-7.82,11.35-13.23,23.74-16.27,37.18c-0.1,0.43-0.17,0.86-0.28,1.28c-0.88,3.23-2.99,4.74-5.64,4.05
			c-2.54-0.66-3.72-2.86-3.05-6.05c3.46-16.38,10.13-31.34,20.24-44.69c0.97-1.28,3-2.45,4.56-2.48
			c10.04-0.22,20.09-0.18,30.14-0.08c3.49,0.03,5.46,2.32,4.88,5.32c-0.49,2.58-2.31,3.56-4.75,3.57
			C138.27,141.7,133.81,141.68,129.35,141.69C129.35,141.69,129.35,141.69,129.35,141.69z"/>
		<path class="st3" d="M187.56,275.94c-2.96,0-5.93,0.07-8.89-0.02c-2.85-0.09-4.63-1.75-4.75-4.19c-0.13-2.49,1.69-4.57,4.6-4.64
			c6.1-0.15,12.21-0.14,18.31,0.02c2.76,0.07,4.57,2.12,4.53,4.47c-0.04,2.51-1.92,4.27-4.9,4.35
			C193.49,276.01,190.53,275.94,187.56,275.94z"/>
		<path class="st3" d="M281.9,316.17c-2.45-0.02-4.48-2.13-4.38-4.56c0.09-2.33,2.13-4.28,4.46-4.25c2.32,0.02,4.35,2.02,4.4,4.33
			C286.43,314.1,284.34,316.19,281.9,316.17z"/>
	</g>
	<g>
		<g>
			<path d="M288.19,251.04c1.49,0,2.81,0,4.23,0c0.8,2.43,1.6,4.86,2.4,7.3c0.8,2.42,1.51,4.87,2.53,7.26
				c2.12-4.81,4-9.68,5.99-14.54c0.37,0,0.7,0,1.1,0c2.02,4.88,4.04,9.77,6.06,14.66c0.08,0,0.16,0,0.25,0
				c1.72-4.88,3.43-9.77,5.16-14.67c1.25,0,2.43,0,3.76,0c-0.11,0.44-0.17,0.82-0.29,1.17c-1.23,3.58-2.48,7.15-3.72,10.73
				c-1.05,3.03-2.11,6.06-3.16,9.09c-0.17,0.48-0.36,0.95-0.51,1.43c-0.12,0.38-0.26,0.68-0.74,0.69c-0.49,0.02-0.71-0.22-0.9-0.64
				c-1.27-2.95-2.55-5.89-3.83-8.84c-0.73-1.67-1.45-3.35-2.18-5.02c-0.11-0.24-0.24-0.47-0.45-0.87c-0.22,0.46-0.4,0.77-0.53,1.1
				c-1.84,4.36-3.68,8.72-5.52,13.08c-0.09,0.22-0.21,0.43-0.28,0.65c-0.13,0.44-0.44,0.54-0.86,0.54c-0.43,0-0.58-0.26-0.7-0.6
				c-0.46-1.34-0.94-2.68-1.4-4.02c-1.9-5.49-3.8-10.98-5.7-16.48C288.67,252.44,288.46,251.8,288.19,251.04z"/>
			<path d="M270.91,251.04c0.36,0,0.66,0,1.09,0c2,4.84,4.02,9.73,6.05,14.62c0.07,0.01,0.14,0.01,0.21,0.02
				c1.02-2.36,1.74-4.84,2.62-7.26c0.89-2.44,1.72-4.9,2.58-7.37c1.28,0,2.49,0,3.78,0c-0.05,0.25-0.07,0.47-0.14,0.67
				c-2.28,6.57-4.56,13.15-6.84,19.72c-0.22,0.64-0.43,1.28-0.65,1.92c-0.13,0.39-0.23,0.77-0.77,0.8
				c-0.55,0.03-0.78-0.27-0.97-0.71c-0.88-2.05-1.77-4.1-2.65-6.14c-1.12-2.57-2.23-5.14-3.36-7.71c-0.09-0.21-0.22-0.4-0.43-0.78
				c-0.22,0.45-0.38,0.76-0.52,1.08c-1.91,4.51-3.82,9.02-5.73,13.53c-0.13,0.3-0.18,0.65-0.61,0.72c-0.6,0.1-0.83-0.05-1.08-0.76
				c-0.93-2.68-1.85-5.36-2.78-8.05c-1.56-4.5-3.12-9-4.67-13.5c-0.08-0.22-0.14-0.44-0.26-0.82c1.42-0.02,2.75-0.01,4.19,0
				c1.6,4.89,3.2,9.78,4.79,14.68c0.08,0,0.17,0.01,0.25,0.01C266.99,260.81,268.95,255.93,270.91,251.04z"/>
			<path d="M223.34,251.05c1.48,0,2.79,0,4.23,0c1.58,4.85,3.17,9.73,4.77,14.61c0.08,0,0.16,0,0.23,0.01
				c1.07-2.39,1.97-4.85,2.96-7.28c0.99-2.44,1.96-4.89,2.94-7.34c0.4,0,0.72,0,1.09,0c2.06,4.86,3.99,9.75,6.18,14.57
				c1.09-2.39,1.86-4.85,2.72-7.27c0.86-2.42,1.7-4.84,2.57-7.3c1.25,0,2.46,0,3.75,0c-0.04,0.25-0.05,0.48-0.12,0.69
				c-2.48,7.15-4.95,14.3-7.44,21.45c-0.13,0.39-0.13,0.91-0.74,0.96c-0.56,0.05-0.75-0.07-1.08-0.82
				c-1.23-2.82-2.44-5.64-3.67-8.46c-0.74-1.7-1.48-3.41-2.22-5.11c-0.12-0.26-0.26-0.52-0.5-1c-0.27,0.58-0.46,0.96-0.62,1.35
				c-1.85,4.39-3.7,8.78-5.55,13.18c-0.05,0.12-0.12,0.24-0.16,0.37c-0.12,0.39-0.39,0.5-0.77,0.51c-0.4,0.01-0.62-0.18-0.75-0.54
				c-0.33-0.93-0.67-1.84-0.99-2.77c-1.93-5.59-3.85-11.18-5.78-16.77C224.07,253.12,223.73,252.17,223.34,251.05z"/>
			<path d="M326.12,271.09c0.18,1.43-1.38,3.15-3.08,3.09c-1.84-0.06-3.16-1.3-3.16-3.12c0-1.76,1.41-3.19,3.15-3.19
				C324.78,267.87,326.13,269.27,326.12,271.09z"/>
			<path d="M342.06,271.07c0,1.8-1.34,3.11-3.17,3.1c-1.78-0.01-3.15-1.41-3.13-3.18c0.02-1.61,1.54-3.09,3.17-3.1
				C340.68,267.87,342.06,269.28,342.06,271.07z"/>
		</g>
		<g>
			<g>
				<path d="M287.19,250.04c1.49,0,2.81,0,4.23,0c0.8,2.43,1.6,4.86,2.4,7.3c0.8,2.42,1.51,4.87,2.53,7.26
					c2.12-4.81,4-9.68,5.99-14.54c0.37,0,0.7,0,1.1,0c2.02,4.88,4.04,9.77,6.06,14.66c0.08,0,0.16,0,0.25,0
					c1.72-4.88,3.43-9.77,5.16-14.67c1.25,0,2.43,0,3.76,0c-0.11,0.44-0.17,0.82-0.29,1.17c-1.23,3.58-2.48,7.15-3.72,10.73
					c-1.05,3.03-2.11,6.06-3.16,9.09c-0.17,0.48-0.36,0.95-0.51,1.43c-0.12,0.38-0.26,0.68-0.74,0.69c-0.49,0.02-0.71-0.22-0.9-0.64
					c-1.27-2.95-2.55-5.89-3.83-8.84c-0.73-1.67-1.45-3.35-2.18-5.02c-0.11-0.24-0.24-0.47-0.45-0.87c-0.22,0.46-0.4,0.77-0.53,1.1
					c-1.84,4.36-3.68,8.72-5.52,13.08c-0.09,0.22-0.21,0.43-0.28,0.65c-0.13,0.44-0.44,0.54-0.86,0.54c-0.43,0-0.58-0.26-0.7-0.6
					c-0.46-1.34-0.94-2.68-1.4-4.02c-1.9-5.49-3.8-10.98-5.7-16.48C287.67,251.44,287.46,250.8,287.19,250.04z"/>
				<path d="M269.91,250.04c0.36,0,0.66,0,1.09,0c2,4.84,4.02,9.73,6.05,14.62c0.07,0.01,0.14,0.01,0.21,0.02
					c1.02-2.36,1.74-4.84,2.62-7.26c0.89-2.44,1.72-4.9,2.58-7.37c1.28,0,2.49,0,3.78,0c-0.05,0.25-0.07,0.47-0.14,0.67
					c-2.28,6.57-4.56,13.15-6.84,19.72c-0.22,0.64-0.43,1.28-0.65,1.92c-0.13,0.39-0.23,0.77-0.77,0.8
					c-0.55,0.03-0.78-0.27-0.97-0.71c-0.88-2.05-1.77-4.1-2.65-6.14c-1.12-2.57-2.23-5.14-3.36-7.71c-0.09-0.21-0.22-0.4-0.43-0.78
					c-0.22,0.45-0.38,0.76-0.52,1.08c-1.91,4.51-3.82,9.02-5.73,13.53c-0.13,0.3-0.18,0.65-0.61,0.72c-0.6,0.1-0.83-0.05-1.08-0.76
					c-0.93-2.68-1.85-5.36-2.78-8.05c-1.56-4.5-3.12-9-4.67-13.5c-0.08-0.22-0.14-0.44-0.26-0.82c1.42-0.02,2.75-0.01,4.19,0
					c1.6,4.89,3.2,9.78,4.79,14.68c0.08,0,0.17,0.01,0.25,0.01C265.99,259.81,267.95,254.93,269.91,250.04z"/>
				<path d="M222.34,250.05c1.48,0,2.79,0,4.23,0c1.58,4.85,3.17,9.73,4.77,14.61c0.08,0,0.16,0,0.23,0.01
					c1.07-2.39,1.97-4.85,2.96-7.28c0.99-2.44,1.96-4.89,2.94-7.34c0.4,0,0.72,0,1.09,0c2.06,4.86,3.99,9.75,6.18,14.57
					c1.09-2.39,1.86-4.85,2.72-7.27c0.86-2.42,1.7-4.84,2.57-7.3c1.25,0,2.46,0,3.75,0c-0.04,0.25-0.05,0.48-0.12,0.69
					c-2.48,7.15-4.95,14.3-7.44,21.45c-0.13,0.39-0.13,0.91-0.74,0.96c-0.56,0.05-0.75-0.07-1.08-0.82
					c-1.23-2.82-2.44-5.64-3.67-8.46c-0.74-1.7-1.48-3.41-2.22-5.11c-0.12-0.26-0.26-0.52-0.5-1c-0.27,0.58-0.46,0.96-0.62,1.35
					c-1.85,4.39-3.7,8.78-5.55,13.18c-0.05,0.12-0.12,0.24-0.16,0.37c-0.12,0.39-0.39,0.5-0.77,0.51c-0.4,0.01-0.62-0.18-0.75-0.54
					c-0.33-0.93-0.67-1.84-0.99-2.77c-1.93-5.59-3.85-11.18-5.78-16.77C223.07,252.12,222.73,251.17,222.34,250.05z"/>
				<path d="M325.12,270.09c0.18,1.43-1.38,3.15-3.08,3.09c-1.84-0.06-3.16-1.3-3.16-3.12c0-1.76,1.41-3.19,3.15-3.19
					C323.78,266.87,325.13,268.27,325.12,270.09z"/>
				<path d="M341.06,270.07c0,1.8-1.34,3.11-3.17,3.1c-1.78-0.01-3.15-1.41-3.13-3.18c0.02-1.61,1.54-3.09,3.17-3.1
					C339.68,266.87,341.06,268.28,341.06,270.07z"/>
			</g>
		</g>
	</g>
</g>
</svg>
