<?xml version="1.0" encoding="utf-8"?>
<!-- Generator: Adobe Illustrator 24.1.1, SVG Export Plug-In . SVG Version: 6.00 Build 0)  -->
<svg version="1.1" xmlns="http://www.w3.org/2000/svg" xmlns:xlink="http://www.w3.org/1999/xlink" x="0px" y="0px"
	 viewBox="0 0 450 450" style="enable-background:new 0 0 450 450;" xml:space="preserve">
<style type="text/css">
	.st0{fill:#FFFFFF;}
	.st1{fill:#6B6969;}
	.st2{fill:#A8A8A8;}
	.st3{fill:#3FA9F5;}
</style>
<g id="Capa_2">
	<polyline class="st0" points="160.04,410.06 101.71,378.21 57.56,328.49 30.96,258.19 28.4,212.14 47.22,128.83 115.18,61.48 
		187.5,32.03 224,29 279.56,36.57 341,73 371.86,95.9 402.59,143.71 417.13,191.26 417.13,257.46 393.95,322.48 354.22,371.42 
		308.6,401.67 242.85,419.65 192.21,418.01 	"/>
</g>
<g id="Capa_1">
	<g>
		<path class="st1" d="M20.77,222.03C21.7,116.97,103.26,32.13,201.42,22.01c64.46-6.65,120.75,12.29,167.21,57.75
			c34.47,33.73,54.62,75.06,59.37,123.18c6.32,64.02-12.68,119.89-57.89,165.72c-40.69,41.25-90.7,61.04-148.89,60.54
			C112.83,428.26,18.7,337.42,20.77,222.03z M224.55,22.94C113.36,22.96,22.76,113.49,22.93,225.31
			c0.17,111.49,90.65,201.85,202.26,201.76c111.34-0.09,201.88-90.4,201.87-202.16C427.04,113.29,336.41,22.54,224.55,22.94z"/>
		<path class="st2" d="M224.55,22.94c111.87-0.4,202.49,90.35,202.51,201.98c0.01,111.77-90.52,202.07-201.87,202.16
			C113.58,427.17,23.1,336.8,22.93,225.31C22.76,113.49,113.36,22.96,224.55,22.94z M224.31,28.96
			C117.13,27.51,28.3,115.84,28.05,223.41c-0.26,108.44,85.1,196.96,195.81,197.1c109.47,0.14,195.51-87.31,196.03-195.43
			C420.42,115.63,330.66,27.86,224.31,28.96z"/>
		<path class="st1" d="M224.31,28.96c106.35-1.1,196.11,86.67,195.59,196.13c-0.52,108.12-86.56,195.57-196.03,195.43
			c-110.71-0.14-196.07-88.66-195.81-197.1C28.3,115.84,117.13,27.51,224.31,28.96z M42.51,224.74
			c-0.1,100.4,81.55,182.44,181.85,182.75c100.58,0.31,182.92-81.55,183.08-182.01C407.61,124.8,326.03,42.8,225.36,42.46
			C125,42.12,42.61,124.25,42.51,224.74z"/>
	</g>
	<g>
		<g>
			<path d="M292.43,196.74l0.08,4.2c0,43.11-32.84,92.85-92.87,92.85c-18.43,0-35.58-5.4-49.99-14.72c2.51,0.33,5.11,0.5,7.77,0.5
				c15.3,0,29.36-5.26,40.52-14c-14.31-0.25-26.28-9.71-30.48-22.65c2.01,0.41,4.04,0.58,6.15,0.58c2.98,0,5.9-0.41,8.57-1.14
				c-14.89-3-26.13-16.17-26.13-31.95v-0.41c4.37,2.44,9.38,3.89,14.72,4.06c-8.74-5.82-14.47-15.86-14.47-27.11
				c0-5.98,1.62-11.64,4.45-16.42c16.01,19.73,40.11,32.68,67.21,34.06c-0.58-2.36-0.81-4.87-0.81-7.45
				c0-17.95,14.56-32.59,32.59-32.59c9.38,0,17.87,3.98,23.85,10.27c7.37-1.45,14.39-4.12,20.71-7.85c-2.42,7.62-7.6,14-14.39,18.04
				c6.63-0.81,12.94-2.59,18.76-5.18C304.31,186.39,298.74,192.12,292.43,196.74L292.43,196.74L292.43,196.74z M309.24,93.93H143.59
				c-27.42,0-49.66,22.24-49.66,49.66v165.66c0,27.52,22.24,49.76,49.66,49.76h165.66c27.52,0,49.76-22.24,49.76-49.76V143.58
				C359,116.17,336.76,93.93,309.24,93.93L309.24,93.93L309.24,93.93z"/>
		</g>
		<g>
			<g>
				<path class="st3" d="M290.43,194.74l0.08,4.2c0,43.11-32.84,92.85-92.87,92.85c-18.43,0-35.58-5.4-49.99-14.72
					c2.51,0.33,5.11,0.5,7.77,0.5c15.3,0,29.36-5.26,40.52-14c-14.31-0.25-26.28-9.71-30.48-22.65c2.01,0.41,4.04,0.58,6.15,0.58
					c2.98,0,5.9-0.41,8.57-1.14c-14.89-3-26.13-16.17-26.13-31.95v-0.41c4.37,2.44,9.38,3.89,14.72,4.06
					c-8.74-5.82-14.47-15.86-14.47-27.11c0-5.98,1.62-11.64,4.45-16.42c16.01,19.73,40.11,32.68,67.21,34.06
					c-0.58-2.36-0.81-4.87-0.81-7.45c0-17.95,14.56-32.59,32.59-32.59c9.38,0,17.87,3.98,23.85,10.27
					c7.37-1.45,14.39-4.12,20.71-7.85c-2.42,7.62-7.6,14-14.39,18.04c6.63-0.81,12.94-2.59,18.76-5.18
					C302.31,184.39,296.74,190.12,290.43,194.74L290.43,194.74L290.43,194.74z M307.24,91.93H141.59
					c-27.42,0-49.66,22.24-49.66,49.66v165.66c0,27.52,22.24,49.76,49.66,49.76h165.66c27.52,0,49.76-22.24,49.76-49.76V141.58
					C357,114.17,334.76,91.93,307.24,91.93L307.24,91.93L307.24,91.93z"/>
			</g>
		</g>
	</g>
</g>
</svg>
